<svg width="972" height="1080" viewBox="0 0 972 1080" fill="none" xmlns="http://www.w3.org/2000/svg">
<rect width="972" height="1080" fill="#F7F6F4"/>
<path d="M179.46 152V149.239C179.46 148.455 179.613 147.653 179.92 146.835C180.227 146.017 180.632 145.246 181.135 144.521C181.638 143.797 182.183 143.192 182.771 142.706L185.175 144.125C184.697 144.875 184.305 145.659 183.998 146.477C183.7 147.295 183.551 148.207 183.551 149.213V152H179.46ZM185.916 152V149.239C185.916 148.455 186.069 147.653 186.376 146.835C186.683 146.017 187.088 145.246 187.591 144.521C188.094 143.797 188.639 143.192 189.227 142.706L191.631 144.125C191.153 144.875 190.761 145.659 190.454 146.477C190.156 147.295 190.007 148.207 190.007 149.213V152H185.916ZM219.001 156.909C219.001 159.764 218.46 162.193 217.378 164.196C216.304 166.199 214.838 167.729 212.98 168.786C211.131 169.834 209.051 170.358 206.741 170.358C204.415 170.358 202.327 169.83 200.477 168.773C198.628 167.716 197.166 166.186 196.092 164.183C195.018 162.18 194.481 159.756 194.481 156.909C194.481 154.054 195.018 151.625 196.092 149.622C197.166 147.619 198.628 146.094 200.477 145.045C202.327 143.989 204.415 143.46 206.741 143.46C209.051 143.46 211.131 143.989 212.98 145.045C214.838 146.094 216.304 147.619 217.378 149.622C218.46 151.625 219.001 154.054 219.001 156.909ZM213.389 156.909C213.389 155.06 213.112 153.5 212.558 152.23C212.013 150.96 211.241 149.997 210.244 149.341C209.247 148.685 208.079 148.357 206.741 148.357C205.403 148.357 204.236 148.685 203.238 149.341C202.241 149.997 201.466 150.96 200.912 152.23C200.366 153.5 200.094 155.06 200.094 156.909C200.094 158.759 200.366 160.318 200.912 161.588C201.466 162.858 202.241 163.821 203.238 164.477C204.236 165.134 205.403 165.462 206.741 165.462C208.079 165.462 209.247 165.134 210.244 164.477C211.241 163.821 212.013 162.858 212.558 161.588C213.112 160.318 213.389 158.759 213.389 156.909ZM228.445 158.648V170H222.999V150.364H228.19V153.828H228.42C228.855 152.686 229.583 151.783 230.606 151.118C231.629 150.445 232.869 150.108 234.326 150.108C235.69 150.108 236.879 150.406 237.893 151.003C238.907 151.599 239.695 152.452 240.258 153.56C240.82 154.659 241.102 155.972 241.102 157.497V170H235.656V158.469C235.664 157.267 235.357 156.33 234.735 155.656C234.113 154.974 233.257 154.634 232.166 154.634C231.433 154.634 230.785 154.791 230.222 155.107C229.669 155.422 229.234 155.882 228.919 156.487C228.612 157.084 228.454 157.804 228.445 158.648ZM250.84 143.818V170H245.394V143.818H250.84ZM255.203 170V150.364H260.649V170H255.203ZM257.938 147.832C257.129 147.832 256.434 147.564 255.855 147.027C255.284 146.482 254.998 145.83 254.998 145.071C254.998 144.321 255.284 143.678 255.855 143.141C256.434 142.595 257.129 142.322 257.938 142.322C258.748 142.322 259.438 142.595 260.009 143.141C260.589 143.678 260.879 144.321 260.879 145.071C260.879 145.83 260.589 146.482 260.009 147.027C259.438 147.564 258.748 147.832 257.938 147.832ZM270.457 158.648V170H265.011V150.364H270.202V153.828H270.432C270.866 152.686 271.595 151.783 272.618 151.118C273.64 150.445 274.881 150.108 276.338 150.108C277.702 150.108 278.89 150.406 279.905 151.003C280.919 151.599 281.707 152.452 282.27 153.56C282.832 154.659 283.113 155.972 283.113 157.497V170H277.667V158.469C277.676 157.267 277.369 156.33 276.747 155.656C276.125 154.974 275.268 154.634 274.177 154.634C273.444 154.634 272.797 154.791 272.234 155.107C271.68 155.422 271.246 155.882 270.93 156.487C270.623 157.084 270.466 157.804 270.457 158.648ZM296.355 170.384C294.335 170.384 292.596 169.974 291.139 169.156C289.69 168.33 288.573 167.162 287.789 165.653C287.005 164.136 286.613 162.342 286.613 160.271C286.613 158.251 287.005 156.479 287.789 154.953C288.573 153.428 289.677 152.239 291.1 151.386C292.532 150.534 294.211 150.108 296.137 150.108C297.433 150.108 298.639 150.317 299.755 150.734C300.88 151.143 301.86 151.761 302.695 152.588C303.539 153.415 304.195 154.455 304.664 155.707C305.133 156.952 305.367 158.409 305.367 160.08V161.575H288.786V158.2H300.241C300.241 157.416 300.07 156.722 299.73 156.116C299.389 155.511 298.916 155.038 298.311 154.697C297.714 154.348 297.019 154.173 296.227 154.173C295.4 154.173 294.667 154.365 294.028 154.749C293.397 155.124 292.903 155.631 292.545 156.27C292.187 156.901 292.004 157.604 291.995 158.379V161.588C291.995 162.56 292.174 163.399 292.532 164.107C292.899 164.814 293.414 165.359 294.079 165.743C294.744 166.126 295.532 166.318 296.444 166.318C297.049 166.318 297.603 166.233 298.106 166.062C298.609 165.892 299.039 165.636 299.397 165.295C299.755 164.955 300.028 164.537 300.215 164.043L305.252 164.375C304.997 165.585 304.472 166.642 303.68 167.545C302.896 168.44 301.882 169.139 300.637 169.642C299.401 170.136 297.974 170.384 296.355 170.384ZM317.253 170V150.364H322.533V153.79H322.738C323.096 152.571 323.697 151.651 324.54 151.028C325.384 150.398 326.356 150.082 327.455 150.082C327.728 150.082 328.022 150.099 328.337 150.134C328.653 150.168 328.93 150.214 329.168 150.274V155.107C328.912 155.03 328.559 154.962 328.107 154.902C327.655 154.842 327.242 154.812 326.867 154.812C326.066 154.812 325.35 154.987 324.719 155.337C324.097 155.678 323.603 156.155 323.236 156.768C322.878 157.382 322.699 158.089 322.699 158.891V170H317.253ZM340.019 170.384C337.999 170.384 336.26 169.974 334.803 169.156C333.354 168.33 332.237 167.162 331.453 165.653C330.669 164.136 330.277 162.342 330.277 160.271C330.277 158.251 330.669 156.479 331.453 154.953C332.237 153.428 333.341 152.239 334.764 151.386C336.196 150.534 337.875 150.108 339.801 150.108C341.097 150.108 342.303 150.317 343.419 150.734C344.544 151.143 345.524 151.761 346.36 152.588C347.203 153.415 347.86 154.455 348.328 155.707C348.797 156.952 349.031 158.409 349.031 160.08V161.575H332.45V158.2H343.905C343.905 157.416 343.735 156.722 343.394 156.116C343.053 155.511 342.58 155.038 341.975 154.697C341.378 154.348 340.683 154.173 339.891 154.173C339.064 154.173 338.331 154.365 337.692 154.749C337.061 155.124 336.567 155.631 336.209 156.27C335.851 156.901 335.668 157.604 335.659 158.379V161.588C335.659 162.56 335.838 163.399 336.196 164.107C336.563 164.814 337.078 165.359 337.743 165.743C338.408 166.126 339.196 166.318 340.108 166.318C340.713 166.318 341.267 166.233 341.77 166.062C342.273 165.892 342.703 165.636 343.061 165.295C343.419 164.955 343.692 164.537 343.879 164.043L348.916 164.375C348.661 165.585 348.137 166.642 347.344 167.545C346.56 168.44 345.546 169.139 344.301 169.642C343.066 170.136 341.638 170.384 340.019 170.384ZM361.432 177.773C359.668 177.773 358.155 177.53 356.894 177.044C355.641 176.567 354.644 175.915 353.902 175.088C353.161 174.261 352.679 173.332 352.458 172.301L357.494 171.624C357.648 172.016 357.891 172.382 358.223 172.723C358.556 173.064 358.994 173.337 359.54 173.541C360.094 173.754 360.767 173.861 361.56 173.861C362.744 173.861 363.72 173.571 364.487 172.991C365.263 172.42 365.651 171.462 365.651 170.115V166.523H365.421C365.182 167.068 364.824 167.584 364.347 168.07C363.869 168.555 363.256 168.952 362.506 169.259C361.756 169.565 360.861 169.719 359.821 169.719C358.347 169.719 357.004 169.378 355.794 168.696C354.593 168.006 353.634 166.953 352.918 165.538C352.21 164.115 351.857 162.317 351.857 160.143C351.857 157.919 352.219 156.061 352.943 154.57C353.668 153.078 354.631 151.962 355.833 151.22C357.043 150.479 358.368 150.108 359.808 150.108C360.908 150.108 361.828 150.295 362.57 150.67C363.311 151.037 363.908 151.497 364.36 152.051C364.82 152.597 365.173 153.134 365.421 153.662H365.625V150.364H371.033V170.192C371.033 171.862 370.624 173.26 369.806 174.385C368.987 175.51 367.854 176.354 366.405 176.916C364.965 177.487 363.307 177.773 361.432 177.773ZM361.547 165.628C362.425 165.628 363.166 165.411 363.771 164.976C364.385 164.533 364.854 163.902 365.178 163.084C365.51 162.257 365.676 161.268 365.676 160.118C365.676 158.967 365.514 157.97 365.191 157.126C364.867 156.274 364.398 155.614 363.784 155.145C363.171 154.676 362.425 154.442 361.547 154.442C360.652 154.442 359.898 154.685 359.284 155.17C358.671 155.648 358.206 156.312 357.891 157.165C357.575 158.017 357.418 159.001 357.418 160.118C357.418 161.251 357.575 162.232 357.891 163.058C358.215 163.876 358.679 164.511 359.284 164.963C359.898 165.406 360.652 165.628 361.547 165.628ZM375.367 170V150.364H380.813V170H375.367ZM378.102 147.832C377.293 147.832 376.598 147.564 376.019 147.027C375.448 146.482 375.162 145.83 375.162 145.071C375.162 144.321 375.448 143.678 376.019 143.141C376.598 142.595 377.293 142.322 378.102 142.322C378.912 142.322 379.602 142.595 380.173 143.141C380.753 143.678 381.043 144.321 381.043 145.071C381.043 145.83 380.753 146.482 380.173 147.027C379.602 147.564 378.912 147.832 378.102 147.832ZM401.513 155.963L396.528 156.27C396.442 155.844 396.259 155.46 395.978 155.119C395.697 154.77 395.326 154.493 394.866 154.288C394.414 154.075 393.873 153.969 393.242 153.969C392.398 153.969 391.687 154.148 391.107 154.506C390.528 154.855 390.238 155.324 390.238 155.912C390.238 156.381 390.425 156.777 390.8 157.101C391.175 157.425 391.819 157.685 392.731 157.881L396.285 158.597C398.194 158.989 399.617 159.619 400.555 160.489C401.492 161.358 401.961 162.5 401.961 163.915C401.961 165.202 401.581 166.331 400.823 167.303C400.073 168.274 399.042 169.033 397.729 169.578C396.425 170.115 394.921 170.384 393.216 170.384C390.617 170.384 388.546 169.842 387.003 168.76C385.469 167.669 384.57 166.186 384.306 164.311L389.662 164.03C389.824 164.822 390.216 165.428 390.839 165.845C391.461 166.254 392.258 166.459 393.229 166.459C394.184 166.459 394.951 166.276 395.53 165.909C396.118 165.534 396.417 165.053 396.425 164.464C396.417 163.97 396.208 163.565 395.799 163.25C395.39 162.926 394.759 162.679 393.907 162.509L390.506 161.831C388.589 161.447 387.161 160.783 386.224 159.837C385.295 158.891 384.83 157.685 384.83 156.219C384.83 154.957 385.171 153.871 385.853 152.959C386.543 152.047 387.51 151.344 388.755 150.849C390.008 150.355 391.474 150.108 393.153 150.108C395.633 150.108 397.584 150.632 399.008 151.68C400.439 152.729 401.275 154.156 401.513 155.963ZM415.835 150.364V154.455H404.009V150.364H415.835ZM406.694 145.659H412.14V163.966C412.14 164.469 412.217 164.861 412.37 165.142C412.524 165.415 412.737 165.607 413.009 165.717C413.291 165.828 413.615 165.884 413.981 165.884C414.237 165.884 414.492 165.862 414.748 165.82C415.004 165.768 415.2 165.73 415.336 165.705L416.193 169.757C415.92 169.842 415.536 169.94 415.042 170.051C414.548 170.17 413.947 170.243 413.24 170.268C411.927 170.32 410.776 170.145 409.788 169.744C408.808 169.344 408.045 168.722 407.499 167.878C406.954 167.034 406.686 165.969 406.694 164.682V145.659ZM419.382 170V150.364H424.662V153.79H424.867C425.225 152.571 425.825 151.651 426.669 151.028C427.513 150.398 428.485 150.082 429.584 150.082C429.857 150.082 430.151 150.099 430.466 150.134C430.781 150.168 431.058 150.214 431.297 150.274V155.107C431.041 155.03 430.688 154.962 430.236 154.902C429.784 154.842 429.371 154.812 428.996 154.812C428.195 154.812 427.479 154.987 426.848 155.337C426.226 155.678 425.732 156.155 425.365 156.768C425.007 157.382 424.828 158.089 424.828 158.891V170H419.382ZM439.15 170.371C437.897 170.371 436.78 170.153 435.8 169.719C434.82 169.276 434.045 168.624 433.474 167.763C432.911 166.893 432.63 165.811 432.63 164.516C432.63 163.425 432.83 162.509 433.231 161.767C433.631 161.026 434.177 160.429 434.867 159.977C435.557 159.526 436.341 159.185 437.219 158.955C438.106 158.724 439.035 158.562 440.006 158.469C441.148 158.349 442.069 158.239 442.768 158.136C443.466 158.026 443.974 157.864 444.289 157.651C444.604 157.437 444.762 157.122 444.762 156.705V156.628C444.762 155.818 444.506 155.192 443.995 154.749C443.492 154.305 442.776 154.084 441.847 154.084C440.867 154.084 440.087 154.301 439.508 154.736C438.928 155.162 438.545 155.699 438.357 156.347L433.32 155.938C433.576 154.744 434.079 153.713 434.829 152.844C435.579 151.966 436.546 151.293 437.731 150.824C438.924 150.347 440.305 150.108 441.873 150.108C442.964 150.108 444.008 150.236 445.005 150.491C446.01 150.747 446.901 151.143 447.677 151.68C448.461 152.217 449.079 152.908 449.53 153.751C449.982 154.587 450.208 155.588 450.208 156.756V170H445.043V167.277H444.89C444.574 167.891 444.153 168.432 443.624 168.901C443.096 169.361 442.461 169.723 441.719 169.987C440.978 170.243 440.121 170.371 439.15 170.371ZM440.709 166.612C441.51 166.612 442.218 166.455 442.831 166.139C443.445 165.815 443.927 165.381 444.276 164.835C444.626 164.29 444.8 163.672 444.8 162.982V160.898C444.63 161.009 444.395 161.111 444.097 161.205C443.807 161.29 443.479 161.371 443.113 161.447C442.746 161.516 442.38 161.58 442.013 161.639C441.647 161.69 441.314 161.737 441.016 161.78C440.377 161.874 439.819 162.023 439.341 162.227C438.864 162.432 438.493 162.709 438.229 163.058C437.965 163.399 437.833 163.825 437.833 164.337C437.833 165.078 438.101 165.645 438.638 166.037C439.184 166.42 439.874 166.612 440.709 166.612ZM464.878 150.364V154.455H453.052V150.364H464.878ZM455.737 145.659H461.183V163.966C461.183 164.469 461.26 164.861 461.413 165.142C461.567 165.415 461.78 165.607 462.052 165.717C462.334 165.828 462.657 165.884 463.024 165.884C463.28 165.884 463.535 165.862 463.791 165.82C464.047 165.768 464.243 165.73 464.379 165.705L465.236 169.757C464.963 169.842 464.579 169.94 464.085 170.051C463.591 170.17 462.99 170.243 462.282 170.268C460.97 170.32 459.819 170.145 458.831 169.744C457.851 169.344 457.088 168.722 456.542 167.878C455.997 167.034 455.729 165.969 455.737 164.682V145.659ZM468.425 170V150.364H473.871V170H468.425ZM471.161 147.832C470.351 147.832 469.657 147.564 469.077 147.027C468.506 146.482 468.221 145.83 468.221 145.071C468.221 144.321 468.506 143.678 469.077 143.141C469.657 142.595 470.351 142.322 471.161 142.322C471.971 142.322 472.661 142.595 473.232 143.141C473.812 143.678 474.101 144.321 474.101 145.071C474.101 145.83 473.812 146.482 473.232 147.027C472.661 147.564 471.971 147.832 471.161 147.832ZM487.106 170.384C485.12 170.384 483.403 169.962 481.954 169.118C480.514 168.266 479.401 167.081 478.617 165.564C477.833 164.038 477.441 162.27 477.441 160.259C477.441 158.23 477.833 156.457 478.617 154.94C479.401 153.415 480.514 152.23 481.954 151.386C483.403 150.534 485.12 150.108 487.106 150.108C489.092 150.108 490.805 150.534 492.245 151.386C493.694 152.23 494.811 153.415 495.595 154.94C496.379 156.457 496.771 158.23 496.771 160.259C496.771 162.27 496.379 164.038 495.595 165.564C494.811 167.081 493.694 168.266 492.245 169.118C490.805 169.962 489.092 170.384 487.106 170.384ZM487.132 166.165C488.035 166.165 488.789 165.909 489.394 165.398C489.999 164.878 490.455 164.17 490.762 163.276C491.078 162.381 491.235 161.362 491.235 160.22C491.235 159.078 491.078 158.06 490.762 157.165C490.455 156.27 489.999 155.562 489.394 155.043C488.789 154.523 488.035 154.263 487.132 154.263C486.22 154.263 485.453 154.523 484.83 155.043C484.217 155.562 483.752 156.27 483.437 157.165C483.13 158.06 482.977 159.078 482.977 160.22C482.977 161.362 483.13 162.381 483.437 163.276C483.752 164.17 484.217 164.878 484.83 165.398C485.453 165.909 486.22 166.165 487.132 166.165ZM505.758 158.648V170H500.312V150.364H505.502V153.828H505.732C506.167 152.686 506.896 151.783 507.919 151.118C508.941 150.445 510.181 150.108 511.639 150.108C513.002 150.108 514.191 150.406 515.205 151.003C516.22 151.599 517.008 152.452 517.57 153.56C518.133 154.659 518.414 155.972 518.414 157.497V170H512.968V158.469C512.977 157.267 512.67 156.33 512.048 155.656C511.426 154.974 510.569 154.634 509.478 154.634C508.745 154.634 508.097 154.791 507.535 155.107C506.981 155.422 506.546 155.882 506.231 156.487C505.924 157.084 505.767 157.804 505.758 158.648ZM536.638 170.371C535.385 170.371 534.269 170.153 533.289 169.719C532.308 169.276 531.533 168.624 530.962 167.763C530.399 166.893 530.118 165.811 530.118 164.516C530.118 163.425 530.318 162.509 530.719 161.767C531.119 161.026 531.665 160.429 532.355 159.977C533.046 159.526 533.83 159.185 534.708 158.955C535.594 158.724 536.523 158.562 537.494 158.469C538.637 158.349 539.557 158.239 540.256 158.136C540.955 158.026 541.462 157.864 541.777 157.651C542.093 157.437 542.25 157.122 542.25 156.705V156.628C542.25 155.818 541.994 155.192 541.483 154.749C540.98 154.305 540.264 154.084 539.335 154.084C538.355 154.084 537.575 154.301 536.996 154.736C536.416 155.162 536.033 155.699 535.845 156.347L530.808 155.938C531.064 154.744 531.567 153.713 532.317 152.844C533.067 151.966 534.034 151.293 535.219 150.824C536.412 150.347 537.793 150.108 539.361 150.108C540.452 150.108 541.496 150.236 542.493 150.491C543.499 150.747 544.389 151.143 545.165 151.68C545.949 152.217 546.567 152.908 547.019 153.751C547.47 154.587 547.696 155.588 547.696 156.756V170H542.531V167.277H542.378C542.063 167.891 541.641 168.432 541.112 168.901C540.584 169.361 539.949 169.723 539.208 169.987C538.466 170.243 537.61 170.371 536.638 170.371ZM538.198 166.612C538.999 166.612 539.706 166.455 540.32 166.139C540.933 165.815 541.415 165.381 541.764 164.835C542.114 164.29 542.289 163.672 542.289 162.982V160.898C542.118 161.009 541.884 161.111 541.585 161.205C541.296 161.29 540.968 161.371 540.601 161.447C540.235 161.516 539.868 161.58 539.502 161.639C539.135 161.69 538.803 161.737 538.504 161.78C537.865 161.874 537.307 162.023 536.83 162.227C536.352 162.432 535.982 162.709 535.718 163.058C535.453 163.399 535.321 163.825 535.321 164.337C535.321 165.078 535.59 165.645 536.127 166.037C536.672 166.42 537.362 166.612 538.198 166.612ZM557.367 158.648V170H551.921V150.364H557.112V153.828H557.342C557.776 152.686 558.505 151.783 559.528 151.118C560.551 150.445 561.791 150.108 563.248 150.108C564.612 150.108 565.801 150.406 566.815 151.003C567.829 151.599 568.617 152.452 569.18 153.56C569.742 154.659 570.024 155.972 570.024 157.497V170H564.578V158.469C564.586 157.267 564.279 156.33 563.657 155.656C563.035 154.974 562.178 154.634 561.088 154.634C560.355 154.634 559.707 154.791 559.144 155.107C558.59 155.422 558.156 155.882 557.84 156.487C557.534 157.084 557.376 157.804 557.367 158.648ZM581.552 170.32C580.06 170.32 578.709 169.936 577.499 169.169C576.297 168.393 575.343 167.256 574.635 165.756C573.937 164.247 573.587 162.398 573.587 160.207C573.587 157.957 573.949 156.087 574.674 154.595C575.398 153.095 576.361 151.974 577.563 151.233C578.773 150.483 580.099 150.108 581.539 150.108C582.638 150.108 583.555 150.295 584.287 150.67C585.029 151.037 585.626 151.497 586.077 152.051C586.537 152.597 586.887 153.134 587.126 153.662H587.292V143.818H592.725V170H587.356V166.855H587.126C586.87 167.401 586.508 167.942 586.039 168.479C585.579 169.007 584.978 169.446 584.236 169.795C583.503 170.145 582.608 170.32 581.552 170.32ZM583.278 165.986C584.155 165.986 584.897 165.747 585.502 165.27C586.116 164.784 586.584 164.107 586.908 163.237C587.241 162.368 587.407 161.349 587.407 160.182C587.407 159.014 587.245 158 586.921 157.139C586.597 156.278 586.128 155.614 585.515 155.145C584.901 154.676 584.155 154.442 583.278 154.442C582.383 154.442 581.628 154.685 581.015 155.17C580.401 155.656 579.937 156.33 579.621 157.19C579.306 158.051 579.148 159.048 579.148 160.182C579.148 161.324 579.306 162.334 579.621 163.212C579.945 164.081 580.41 164.763 581.015 165.257C581.628 165.743 582.383 165.986 583.278 165.986ZM614.483 170.384C612.464 170.384 610.725 169.974 609.268 169.156C607.819 168.33 606.702 167.162 605.918 165.653C605.134 164.136 604.742 162.342 604.742 160.271C604.742 158.251 605.134 156.479 605.918 154.953C606.702 153.428 607.806 152.239 609.229 151.386C610.661 150.534 612.34 150.108 614.266 150.108C615.562 150.108 616.768 150.317 617.884 150.734C619.009 151.143 619.989 151.761 620.824 152.588C621.668 153.415 622.324 154.455 622.793 155.707C623.262 156.952 623.496 158.409 623.496 160.08V161.575H606.915V158.2H618.37C618.37 157.416 618.199 156.722 617.858 156.116C617.518 155.511 617.045 155.038 616.439 154.697C615.843 154.348 615.148 154.173 614.356 154.173C613.529 154.173 612.796 154.365 612.157 154.749C611.526 155.124 611.032 155.631 610.674 156.27C610.316 156.901 610.133 157.604 610.124 158.379V161.588C610.124 162.56 610.303 163.399 610.661 164.107C611.028 164.814 611.543 165.359 612.208 165.743C612.873 166.126 613.661 166.318 614.573 166.318C615.178 166.318 615.732 166.233 616.235 166.062C616.738 165.892 617.168 165.636 617.526 165.295C617.884 164.955 618.157 164.537 618.344 164.043L623.381 164.375C623.126 165.585 622.601 166.642 621.809 167.545C621.025 168.44 620.01 169.139 618.766 169.642C617.53 170.136 616.103 170.384 614.483 170.384ZM632.496 158.648V170H627.05V150.364H632.241V153.828H632.471C632.905 152.686 633.634 151.783 634.657 151.118C635.68 150.445 636.92 150.108 638.377 150.108C639.741 150.108 640.93 150.406 641.944 151.003C642.958 151.599 643.746 152.452 644.309 153.56C644.871 154.659 645.153 155.972 645.153 157.497V170H639.706V158.469C639.715 157.267 639.408 156.33 638.786 155.656C638.164 154.974 637.307 154.634 636.216 154.634C635.483 154.634 634.836 154.791 634.273 155.107C633.719 155.422 633.285 155.882 632.969 156.487C632.662 157.084 632.505 157.804 632.496 158.648ZM649.445 170V150.364H654.725V153.79H654.929C655.287 152.571 655.888 151.651 656.732 151.028C657.575 150.398 658.547 150.082 659.646 150.082C659.919 150.082 660.213 150.099 660.529 150.134C660.844 150.168 661.121 150.214 661.36 150.274V155.107C661.104 155.03 660.75 154.962 660.298 154.902C659.847 154.842 659.433 154.812 659.058 154.812C658.257 154.812 657.541 154.987 656.911 155.337C656.289 155.678 655.794 156.155 655.428 156.768C655.07 157.382 654.891 158.089 654.891 158.891V170H649.445ZM672.133 170.384C670.148 170.384 668.43 169.962 666.981 169.118C665.541 168.266 664.429 167.081 663.645 165.564C662.861 164.038 662.469 162.27 662.469 160.259C662.469 158.23 662.861 156.457 663.645 154.94C664.429 153.415 665.541 152.23 666.981 151.386C668.43 150.534 670.148 150.108 672.133 150.108C674.119 150.108 675.832 150.534 677.273 151.386C678.721 152.23 679.838 153.415 680.622 154.94C681.406 156.457 681.798 158.23 681.798 160.259C681.798 162.27 681.406 164.038 680.622 165.564C679.838 167.081 678.721 168.266 677.273 169.118C675.832 169.962 674.119 170.384 672.133 170.384ZM672.159 166.165C673.062 166.165 673.817 165.909 674.422 165.398C675.027 164.878 675.483 164.17 675.79 163.276C676.105 162.381 676.263 161.362 676.263 160.22C676.263 159.078 676.105 158.06 675.79 157.165C675.483 156.27 675.027 155.562 674.422 155.043C673.817 154.523 673.062 154.263 672.159 154.263C671.247 154.263 670.48 154.523 669.858 155.043C669.244 155.562 668.78 156.27 668.464 157.165C668.157 158.06 668.004 159.078 668.004 160.22C668.004 161.362 668.157 162.381 668.464 163.276C668.78 164.17 669.244 164.878 669.858 165.398C670.48 165.909 671.247 166.165 672.159 166.165ZM690.785 143.818V170H685.339V143.818H690.785ZM700.594 143.818V170H695.148V143.818H700.594ZM704.956 170V150.364H710.147V153.828H710.377C710.786 152.678 711.468 151.77 712.422 151.105C713.377 150.44 714.519 150.108 715.849 150.108C717.195 150.108 718.341 150.445 719.287 151.118C720.233 151.783 720.864 152.686 721.18 153.828H721.384C721.785 152.703 722.509 151.804 723.557 151.131C724.614 150.449 725.863 150.108 727.303 150.108C729.135 150.108 730.623 150.692 731.765 151.859C732.915 153.018 733.491 154.663 733.491 156.794V170H728.057V157.868C728.057 156.777 727.768 155.959 727.188 155.413C726.608 154.868 725.884 154.595 725.015 154.595C724.026 154.595 723.255 154.911 722.701 155.541C722.147 156.163 721.87 156.986 721.87 158.009V170H716.59V157.753C716.59 156.79 716.313 156.023 715.759 155.452C715.214 154.881 714.493 154.595 713.599 154.595C712.993 154.595 712.448 154.749 711.962 155.055C711.485 155.354 711.106 155.776 710.824 156.321C710.543 156.858 710.403 157.489 710.403 158.213V170H704.956ZM746.741 170.384C744.721 170.384 742.983 169.974 741.525 169.156C740.077 168.33 738.96 167.162 738.176 165.653C737.392 164.136 737 162.342 737 160.271C737 158.251 737.392 156.479 738.176 154.953C738.96 153.428 740.064 152.239 741.487 151.386C742.919 150.534 744.598 150.108 746.524 150.108C747.819 150.108 749.025 150.317 750.142 150.734C751.267 151.143 752.247 151.761 753.082 152.588C753.926 153.415 754.582 154.455 755.051 155.707C755.52 156.952 755.754 158.409 755.754 160.08V161.575H739.173V158.2H750.628C750.628 157.416 750.457 156.722 750.116 156.116C749.775 155.511 749.302 155.038 748.697 154.697C748.101 154.348 747.406 154.173 746.613 154.173C745.787 154.173 745.054 154.365 744.415 154.749C743.784 155.124 743.29 155.631 742.932 156.27C742.574 156.901 742.39 157.604 742.382 158.379V161.588C742.382 162.56 742.561 163.399 742.919 164.107C743.285 164.814 743.801 165.359 744.466 165.743C745.131 166.126 745.919 166.318 746.831 166.318C747.436 166.318 747.99 166.233 748.493 166.062C748.996 165.892 749.426 165.636 749.784 165.295C750.142 164.955 750.415 164.537 750.602 164.043L755.639 164.375C755.383 165.585 754.859 166.642 754.067 167.545C753.282 168.44 752.268 169.139 751.024 169.642C749.788 170.136 748.361 170.384 746.741 170.384ZM764.754 158.648V170H759.308V150.364H764.498V153.828H764.729C765.163 152.686 765.892 151.783 766.915 151.118C767.937 150.445 769.177 150.108 770.635 150.108C771.998 150.108 773.187 150.406 774.202 151.003C775.216 151.599 776.004 152.452 776.567 153.56C777.129 154.659 777.41 155.972 777.41 157.497V170H771.964V158.469C771.973 157.267 771.666 156.33 771.044 155.656C770.422 154.974 769.565 154.634 768.474 154.634C767.741 154.634 767.094 154.791 766.531 155.107C765.977 155.422 765.542 155.882 765.227 156.487C764.92 157.084 764.763 157.804 764.754 158.648ZM792.147 150.364V154.455H780.322V150.364H792.147ZM783.007 145.659H788.453V163.966C788.453 164.469 788.529 164.861 788.683 165.142C788.836 165.415 789.049 165.607 789.322 165.717C789.603 165.828 789.927 165.884 790.294 165.884C790.549 165.884 790.805 165.862 791.061 165.82C791.316 165.768 791.512 165.73 791.649 165.705L792.505 169.757C792.232 169.842 791.849 169.94 791.355 170.051C790.86 170.17 790.259 170.243 789.552 170.268C788.24 170.32 787.089 170.145 786.1 169.744C785.12 169.344 784.357 168.722 783.812 167.878C783.267 167.034 782.998 165.969 783.007 164.682V145.659ZM284.448 210.364V214.455H272.328V210.364H284.448ZM275.103 230V208.945C275.103 207.521 275.38 206.341 275.934 205.403C276.496 204.466 277.263 203.763 278.235 203.294C279.206 202.825 280.31 202.591 281.546 202.591C282.381 202.591 283.144 202.655 283.834 202.783C284.533 202.911 285.053 203.026 285.394 203.128L284.422 207.219C284.209 207.151 283.945 207.087 283.63 207.027C283.323 206.967 283.007 206.938 282.684 206.938C281.882 206.938 281.324 207.125 281.009 207.5C280.694 207.866 280.536 208.382 280.536 209.047V230H275.103ZM295.944 230.384C293.958 230.384 292.241 229.962 290.792 229.118C289.352 228.266 288.239 227.081 287.455 225.564C286.671 224.038 286.279 222.27 286.279 220.259C286.279 218.23 286.671 216.457 287.455 214.94C288.239 213.415 289.352 212.23 290.792 211.386C292.241 210.534 293.958 210.108 295.944 210.108C297.93 210.108 299.643 210.534 301.083 211.386C302.532 212.23 303.648 213.415 304.433 214.94C305.217 216.457 305.609 218.23 305.609 220.259C305.609 222.27 305.217 224.038 304.433 225.564C303.648 227.081 302.532 228.266 301.083 229.118C299.643 229.962 297.93 230.384 295.944 230.384ZM295.969 226.165C296.873 226.165 297.627 225.909 298.232 225.398C298.837 224.878 299.293 224.17 299.6 223.276C299.915 222.381 300.073 221.362 300.073 220.22C300.073 219.078 299.915 218.06 299.6 217.165C299.293 216.27 298.837 215.562 298.232 215.043C297.627 214.523 296.873 214.263 295.969 214.263C295.058 214.263 294.29 214.523 293.668 215.043C293.055 215.562 292.59 216.27 292.275 217.165C291.968 218.06 291.815 219.078 291.815 220.22C291.815 221.362 291.968 222.381 292.275 223.276C292.59 224.17 293.055 224.878 293.668 225.398C294.29 225.909 295.058 226.165 295.969 226.165ZM309.15 230V210.364H314.43V213.79H314.634C314.992 212.571 315.593 211.651 316.437 211.028C317.281 210.398 318.252 210.082 319.352 210.082C319.624 210.082 319.918 210.099 320.234 210.134C320.549 210.168 320.826 210.214 321.065 210.274V215.107C320.809 215.03 320.455 214.962 320.004 214.902C319.552 214.842 319.138 214.812 318.763 214.812C317.962 214.812 317.246 214.987 316.616 215.337C315.994 215.678 315.499 216.155 315.133 216.768C314.775 217.382 314.596 218.089 314.596 218.891V230H309.15ZM341.161 230.384C339.141 230.384 337.403 229.974 335.945 229.156C334.496 228.33 333.38 227.162 332.596 225.653C331.812 224.136 331.42 222.342 331.42 220.271C331.42 218.251 331.812 216.479 332.596 214.953C333.38 213.428 334.484 212.239 335.907 211.386C337.339 210.534 339.018 210.108 340.944 210.108C342.239 210.108 343.445 210.317 344.562 210.734C345.687 211.143 346.667 211.761 347.502 212.588C348.346 213.415 349.002 214.455 349.471 215.707C349.94 216.952 350.174 218.409 350.174 220.08V221.575H333.593V218.2H345.048C345.048 217.416 344.877 216.722 344.536 216.116C344.195 215.511 343.722 215.038 343.117 214.697C342.521 214.348 341.826 214.173 341.033 214.173C340.207 214.173 339.474 214.365 338.835 214.749C338.204 215.124 337.71 215.631 337.352 216.27C336.994 216.901 336.81 217.604 336.802 218.379V221.588C336.802 222.56 336.981 223.399 337.339 224.107C337.705 224.814 338.221 225.359 338.886 225.743C339.55 226.126 340.339 226.318 341.251 226.318C341.856 226.318 342.41 226.233 342.913 226.062C343.415 225.892 343.846 225.636 344.204 225.295C344.562 224.955 344.835 224.537 345.022 224.043L350.059 224.375C349.803 225.585 349.279 226.642 348.487 227.545C347.702 228.44 346.688 229.139 345.444 229.642C344.208 230.136 342.781 230.384 341.161 230.384ZM359.327 230.371C358.075 230.371 356.958 230.153 355.978 229.719C354.998 229.276 354.222 228.624 353.651 227.763C353.089 226.893 352.808 225.811 352.808 224.516C352.808 223.425 353.008 222.509 353.408 221.767C353.809 221.026 354.354 220.429 355.045 219.977C355.735 219.526 356.519 219.185 357.397 218.955C358.283 218.724 359.212 218.562 360.184 218.469C361.326 218.349 362.246 218.239 362.945 218.136C363.644 218.026 364.151 217.864 364.467 217.651C364.782 217.437 364.94 217.122 364.94 216.705V216.628C364.94 215.818 364.684 215.192 364.173 214.749C363.67 214.305 362.954 214.084 362.025 214.084C361.045 214.084 360.265 214.301 359.685 214.736C359.106 215.162 358.722 215.699 358.535 216.347L353.498 215.938C353.754 214.744 354.256 213.713 355.006 212.844C355.756 211.966 356.724 211.293 357.908 210.824C359.102 210.347 360.482 210.108 362.05 210.108C363.141 210.108 364.185 210.236 365.183 210.491C366.188 210.747 367.079 211.143 367.854 211.68C368.638 212.217 369.256 212.908 369.708 213.751C370.16 214.587 370.386 215.588 370.386 216.756V230H365.221V227.277H365.067C364.752 227.891 364.33 228.432 363.802 228.901C363.273 229.361 362.638 229.723 361.897 229.987C361.156 230.243 360.299 230.371 359.327 230.371ZM360.887 226.612C361.688 226.612 362.396 226.455 363.009 226.139C363.623 225.815 364.104 225.381 364.454 224.835C364.803 224.29 364.978 223.672 364.978 222.982V220.898C364.808 221.009 364.573 221.111 364.275 221.205C363.985 221.29 363.657 221.371 363.29 221.447C362.924 221.516 362.558 221.58 362.191 221.639C361.825 221.69 361.492 221.737 361.194 221.78C360.555 221.874 359.996 222.023 359.519 222.227C359.042 222.432 358.671 222.709 358.407 223.058C358.143 223.399 358.011 223.825 358.011 224.337C358.011 225.078 358.279 225.645 358.816 226.037C359.362 226.42 360.052 226.612 360.887 226.612ZM390.949 215.963L385.963 216.27C385.878 215.844 385.695 215.46 385.413 215.119C385.132 214.77 384.761 214.493 384.301 214.288C383.849 214.075 383.308 213.969 382.678 213.969C381.834 213.969 381.122 214.148 380.543 214.506C379.963 214.855 379.673 215.324 379.673 215.912C379.673 216.381 379.861 216.777 380.236 217.101C380.611 217.425 381.254 217.685 382.166 217.881L385.72 218.597C387.629 218.989 389.053 219.619 389.99 220.489C390.928 221.358 391.396 222.5 391.396 223.915C391.396 225.202 391.017 226.331 390.259 227.303C389.509 228.274 388.477 229.033 387.165 229.578C385.861 230.115 384.357 230.384 382.652 230.384C380.053 230.384 377.982 229.842 376.439 228.76C374.905 227.669 374.006 226.186 373.741 224.311L379.098 224.03C379.26 224.822 379.652 225.428 380.274 225.845C380.896 226.254 381.693 226.459 382.665 226.459C383.619 226.459 384.386 226.276 384.966 225.909C385.554 225.534 385.852 225.053 385.861 224.464C385.852 223.97 385.643 223.565 385.234 223.25C384.825 222.926 384.195 222.679 383.342 222.509L379.942 221.831C378.024 221.447 376.597 220.783 375.659 219.837C374.73 218.891 374.266 217.685 374.266 216.219C374.266 214.957 374.607 213.871 375.288 212.959C375.979 212.047 376.946 211.344 378.19 210.849C379.443 210.355 380.909 210.108 382.588 210.108C385.068 210.108 387.02 210.632 388.443 211.68C389.875 212.729 390.71 214.156 390.949 215.963ZM398.188 237.364C397.498 237.364 396.85 237.308 396.245 237.197C395.648 237.095 395.154 236.963 394.762 236.801L395.989 232.736C396.628 232.932 397.203 233.038 397.715 233.055C398.235 233.072 398.682 232.953 399.057 232.697C399.441 232.442 399.752 232.007 399.99 231.393L400.31 230.562L393.266 210.364H398.993L403.059 224.784H403.263L407.367 210.364H413.132L405.5 232.122C405.134 233.179 404.635 234.099 404.005 234.884C403.382 235.676 402.594 236.286 401.64 236.712C400.685 237.146 399.534 237.364 398.188 237.364ZM429.851 230.371C428.598 230.371 427.482 230.153 426.501 229.719C425.521 229.276 424.746 228.624 424.175 227.763C423.612 226.893 423.331 225.811 423.331 224.516C423.331 223.425 423.531 222.509 423.932 221.767C424.332 221.026 424.878 220.429 425.568 219.977C426.259 219.526 427.043 219.185 427.92 218.955C428.807 218.724 429.736 218.562 430.707 218.469C431.849 218.349 432.77 218.239 433.469 218.136C434.168 218.026 434.675 217.864 434.99 217.651C435.305 217.437 435.463 217.122 435.463 216.705V216.628C435.463 215.818 435.207 215.192 434.696 214.749C434.193 214.305 433.477 214.084 432.548 214.084C431.568 214.084 430.788 214.301 430.209 214.736C429.629 215.162 429.246 215.699 429.058 216.347L424.021 215.938C424.277 214.744 424.78 213.713 425.53 212.844C426.28 211.966 427.247 211.293 428.432 210.824C429.625 210.347 431.006 210.108 432.574 210.108C433.665 210.108 434.709 210.236 435.706 210.491C436.712 210.747 437.602 211.143 438.378 211.68C439.162 212.217 439.78 212.908 440.232 213.751C440.683 214.587 440.909 215.588 440.909 216.756V230H435.744V227.277H435.591C435.276 227.891 434.854 228.432 434.325 228.901C433.797 229.361 433.162 229.723 432.42 229.987C431.679 230.243 430.822 230.371 429.851 230.371ZM431.411 226.612C432.212 226.612 432.919 226.455 433.533 226.139C434.146 225.815 434.628 225.381 434.977 224.835C435.327 224.29 435.501 223.672 435.501 222.982V220.898C435.331 221.009 435.097 221.111 434.798 221.205C434.509 221.29 434.18 221.371 433.814 221.447C433.447 221.516 433.081 221.58 432.714 221.639C432.348 221.69 432.016 221.737 431.717 221.78C431.078 221.874 430.52 222.023 430.043 222.227C429.565 222.432 429.195 222.709 428.93 223.058C428.666 223.399 428.534 223.825 428.534 224.337C428.534 225.078 428.803 225.645 429.339 226.037C429.885 226.42 430.575 226.612 431.411 226.612ZM450.58 218.648V230H445.134V210.364H450.325V213.828H450.555C450.989 212.686 451.718 211.783 452.741 211.118C453.763 210.445 455.004 210.108 456.461 210.108C457.825 210.108 459.013 210.406 460.028 211.003C461.042 211.599 461.83 212.452 462.393 213.56C462.955 214.659 463.237 215.972 463.237 217.497V230H457.79V218.469C457.799 217.267 457.492 216.33 456.87 215.656C456.248 214.974 455.391 214.634 454.3 214.634C453.567 214.634 452.92 214.791 452.357 215.107C451.803 215.422 451.369 215.882 451.053 216.487C450.746 217.084 450.589 217.804 450.58 218.648ZM474.765 230.32C473.273 230.32 471.922 229.936 470.712 229.169C469.51 228.393 468.556 227.256 467.848 225.756C467.15 224.247 466.8 222.398 466.8 220.207C466.8 217.957 467.162 216.087 467.887 214.595C468.611 213.095 469.574 211.974 470.776 211.233C471.986 210.483 473.311 210.108 474.752 210.108C475.851 210.108 476.767 210.295 477.5 210.67C478.242 211.037 478.838 211.497 479.29 212.051C479.75 212.597 480.1 213.134 480.338 213.662H480.505V203.818H485.938V230H480.569V226.855H480.338C480.083 227.401 479.721 227.942 479.252 228.479C478.792 229.007 478.191 229.446 477.449 229.795C476.716 230.145 475.821 230.32 474.765 230.32ZM476.49 225.986C477.368 225.986 478.11 225.747 478.715 225.27C479.328 224.784 479.797 224.107 480.121 223.237C480.453 222.368 480.62 221.349 480.62 220.182C480.62 219.014 480.458 218 480.134 217.139C479.81 216.278 479.341 215.614 478.728 215.145C478.114 214.676 477.368 214.442 476.49 214.442C475.596 214.442 474.841 214.685 474.228 215.17C473.614 215.656 473.15 216.33 472.834 217.19C472.519 218.051 472.361 219.048 472.361 220.182C472.361 221.324 472.519 222.334 472.834 223.212C473.158 224.081 473.623 224.763 474.228 225.257C474.841 225.743 475.596 225.986 476.49 225.986ZM504.194 218.648V230H498.748V203.818H504.04V213.828H504.27C504.713 212.669 505.429 211.761 506.418 211.105C507.407 210.44 508.647 210.108 510.138 210.108C511.502 210.108 512.691 210.406 513.705 211.003C514.728 211.591 515.52 212.439 516.083 213.547C516.654 214.646 516.935 215.963 516.926 217.497V230H511.48V218.469C511.489 217.259 511.182 216.317 510.56 215.643C509.946 214.97 509.086 214.634 507.978 214.634C507.236 214.634 506.58 214.791 506.009 215.107C505.446 215.422 505.003 215.882 504.679 216.487C504.364 217.084 504.202 217.804 504.194 218.648ZM526.812 230.371C525.559 230.371 524.442 230.153 523.462 229.719C522.482 229.276 521.707 228.624 521.136 227.763C520.573 226.893 520.292 225.811 520.292 224.516C520.292 223.425 520.492 222.509 520.893 221.767C521.293 221.026 521.839 220.429 522.529 219.977C523.219 219.526 524.004 219.185 524.881 218.955C525.768 218.724 526.697 218.562 527.668 218.469C528.81 218.349 529.731 218.239 530.43 218.136C531.129 218.026 531.636 217.864 531.951 217.651C532.266 217.437 532.424 217.122 532.424 216.705V216.628C532.424 215.818 532.168 215.192 531.657 214.749C531.154 214.305 530.438 214.084 529.509 214.084C528.529 214.084 527.749 214.301 527.17 214.736C526.59 215.162 526.207 215.699 526.019 216.347L520.982 215.938C521.238 214.744 521.741 213.713 522.491 212.844C523.241 211.966 524.208 211.293 525.393 210.824C526.586 210.347 527.967 210.108 529.535 210.108C530.626 210.108 531.67 210.236 532.667 210.491C533.673 210.747 534.563 211.143 535.339 211.68C536.123 212.217 536.741 212.908 537.192 213.751C537.644 214.587 537.87 215.588 537.87 216.756V230H532.705V227.277H532.552C532.237 227.891 531.815 228.432 531.286 228.901C530.758 229.361 530.123 229.723 529.381 229.987C528.64 230.243 527.783 230.371 526.812 230.371ZM528.371 226.612C529.173 226.612 529.88 226.455 530.494 226.139C531.107 225.815 531.589 225.381 531.938 224.835C532.288 224.29 532.462 223.672 532.462 222.982V220.898C532.292 221.009 532.058 221.111 531.759 221.205C531.469 221.29 531.141 221.371 530.775 221.447C530.408 221.516 530.042 221.58 529.675 221.639C529.309 221.69 528.977 221.737 528.678 221.78C528.039 221.874 527.481 222.023 527.004 222.227C526.526 222.432 526.156 222.709 525.891 223.058C525.627 223.399 525.495 223.825 525.495 224.337C525.495 225.078 525.763 225.645 526.3 226.037C526.846 226.42 527.536 226.612 528.371 226.612ZM558.433 215.963L553.447 216.27C553.362 215.844 553.179 215.46 552.898 215.119C552.616 214.77 552.246 214.493 551.786 214.288C551.334 214.075 550.793 213.969 550.162 213.969C549.318 213.969 548.607 214.148 548.027 214.506C547.447 214.855 547.158 215.324 547.158 215.912C547.158 216.381 547.345 216.777 547.72 217.101C548.095 217.425 548.739 217.685 549.651 217.881L553.205 218.597C555.114 218.989 556.537 219.619 557.474 220.489C558.412 221.358 558.881 222.5 558.881 223.915C558.881 225.202 558.501 226.331 557.743 227.303C556.993 228.274 555.962 229.033 554.649 229.578C553.345 230.115 551.841 230.384 550.136 230.384C547.537 230.384 545.466 229.842 543.923 228.76C542.389 227.669 541.49 226.186 541.226 224.311L546.582 224.03C546.744 224.822 547.136 225.428 547.759 225.845C548.381 226.254 549.178 226.459 550.149 226.459C551.104 226.459 551.871 226.276 552.45 225.909C553.038 225.534 553.337 225.053 553.345 224.464C553.337 223.97 553.128 223.565 552.719 223.25C552.31 222.926 551.679 222.679 550.827 222.509L547.426 221.831C545.509 221.447 544.081 220.783 543.143 219.837C542.214 218.891 541.75 217.685 541.75 216.219C541.75 214.957 542.091 213.871 542.773 212.959C543.463 212.047 544.43 211.344 545.675 210.849C546.928 210.355 548.393 210.108 550.072 210.108C552.553 210.108 554.504 210.632 555.928 211.68C557.359 212.729 558.195 214.156 558.433 215.963ZM578.648 215.963L573.662 216.27C573.577 215.844 573.394 215.46 573.113 215.119C572.831 214.77 572.461 214.493 572 214.288C571.549 214.075 571.007 213.969 570.377 213.969C569.533 213.969 568.821 214.148 568.242 214.506C567.662 214.855 567.373 215.324 567.373 215.912C567.373 216.381 567.56 216.777 567.935 217.101C568.31 217.425 568.953 217.685 569.865 217.881L573.419 218.597C575.328 218.989 576.752 219.619 577.689 220.489C578.627 221.358 579.096 222.5 579.096 223.915C579.096 225.202 578.716 226.331 577.958 227.303C577.208 228.274 576.176 229.033 574.864 229.578C573.56 230.115 572.056 230.384 570.351 230.384C567.752 230.384 565.681 229.842 564.138 228.76C562.604 227.669 561.705 226.186 561.441 224.311L566.797 224.03C566.959 224.822 567.351 225.428 567.973 225.845C568.596 226.254 569.392 226.459 570.364 226.459C571.319 226.459 572.086 226.276 572.665 225.909C573.253 225.534 573.551 225.053 573.56 224.464C573.551 223.97 573.343 223.565 572.934 223.25C572.525 222.926 571.894 222.679 571.042 222.509L567.641 221.831C565.723 221.447 564.296 220.783 563.358 219.837C562.429 218.891 561.965 217.685 561.965 216.219C561.965 214.957 562.306 213.871 562.988 212.959C563.678 212.047 564.645 211.344 565.89 210.849C567.142 210.355 568.608 210.108 570.287 210.108C572.767 210.108 574.719 210.632 576.142 211.68C577.574 212.729 578.409 214.156 578.648 215.963ZM587.971 203.818V230H582.525V203.818H587.971ZM601.282 230.384C599.262 230.384 597.524 229.974 596.066 229.156C594.618 228.33 593.501 227.162 592.717 225.653C591.933 224.136 591.541 222.342 591.541 220.271C591.541 218.251 591.933 216.479 592.717 214.953C593.501 213.428 594.605 212.239 596.028 211.386C597.46 210.534 599.139 210.108 601.065 210.108C602.36 210.108 603.566 210.317 604.683 210.734C605.808 211.143 606.788 211.761 607.623 212.588C608.467 213.415 609.123 214.455 609.592 215.707C610.061 216.952 610.295 218.409 610.295 220.08V221.575H593.714V218.2H605.169C605.169 217.416 604.998 216.722 604.657 216.116C604.316 215.511 603.843 215.038 603.238 214.697C602.642 214.348 601.947 214.173 601.154 214.173C600.328 214.173 599.595 214.365 598.956 214.749C598.325 215.124 597.831 215.631 597.473 216.27C597.115 216.901 596.931 217.604 596.923 218.379V221.588C596.923 222.56 597.102 223.399 597.46 224.107C597.826 224.814 598.342 225.359 599.007 225.743C599.672 226.126 600.46 226.318 601.372 226.318C601.977 226.318 602.531 226.233 603.034 226.062C603.537 225.892 603.967 225.636 604.325 225.295C604.683 224.955 604.956 224.537 605.143 224.043L610.18 224.375C609.924 225.585 609.4 226.642 608.608 227.545C607.824 228.44 606.809 229.139 605.565 229.642C604.329 230.136 602.902 230.384 601.282 230.384ZM626.083 217.088V221.409H614.143V217.088H626.083ZM641.284 210.364V214.455H629.164V210.364H641.284ZM631.939 230V208.945C631.939 207.521 632.216 206.341 632.77 205.403C633.332 204.466 634.099 203.763 635.071 203.294C636.042 202.825 637.146 202.591 638.382 202.591C639.217 202.591 639.98 202.655 640.67 202.783C641.369 202.911 641.889 203.026 642.23 203.128L641.258 207.219C641.045 207.151 640.781 207.087 640.466 207.027C640.159 206.967 639.843 206.938 639.52 206.938C638.718 206.938 638.16 207.125 637.845 207.5C637.529 207.866 637.372 208.382 637.372 209.047V230H631.939ZM644.611 230V210.364H649.891V213.79H650.095C650.453 212.571 651.054 211.651 651.898 211.028C652.741 210.398 653.713 210.082 654.812 210.082C655.085 210.082 655.379 210.099 655.695 210.134C656.01 210.168 656.287 210.214 656.526 210.274V215.107C656.27 215.03 655.916 214.962 655.464 214.902C655.013 214.842 654.599 214.812 654.224 214.812C653.423 214.812 652.707 214.987 652.077 215.337C651.455 215.678 650.96 216.155 650.594 216.768C650.236 217.382 650.057 218.089 650.057 218.891V230H644.611ZM667.376 230.384C665.356 230.384 663.618 229.974 662.16 229.156C660.711 228.33 659.595 227.162 658.811 225.653C658.027 224.136 657.635 222.342 657.635 220.271C657.635 218.251 658.027 216.479 658.811 214.953C659.595 213.428 660.699 212.239 662.122 211.386C663.554 210.534 665.233 210.108 667.159 210.108C668.454 210.108 669.66 210.317 670.777 210.734C671.902 211.143 672.882 211.761 673.717 212.588C674.561 213.415 675.217 214.455 675.686 215.707C676.154 216.952 676.389 218.409 676.389 220.08V221.575H659.808V218.2H671.262C671.262 217.416 671.092 216.722 670.751 216.116C670.41 215.511 669.937 215.038 669.332 214.697C668.735 214.348 668.041 214.173 667.248 214.173C666.422 214.173 665.689 214.365 665.049 214.749C664.419 215.124 663.924 215.631 663.566 216.27C663.208 216.901 663.025 217.604 663.017 218.379V221.588C663.017 222.56 663.196 223.399 663.554 224.107C663.92 224.814 664.436 225.359 665.1 225.743C665.765 226.126 666.554 226.318 667.466 226.318C668.071 226.318 668.625 226.233 669.127 226.062C669.63 225.892 670.061 225.636 670.419 225.295C670.777 224.955 671.049 224.537 671.237 224.043L676.274 224.375C676.018 225.585 675.494 226.642 674.701 227.545C673.917 228.44 672.903 229.139 671.659 229.642C670.423 230.136 668.995 230.384 667.376 230.384ZM688.892 230.384C686.872 230.384 685.133 229.974 683.676 229.156C682.227 228.33 681.11 227.162 680.326 225.653C679.542 224.136 679.15 222.342 679.15 220.271C679.15 218.251 679.542 216.479 680.326 214.953C681.11 213.428 682.214 212.239 683.637 211.386C685.069 210.534 686.748 210.108 688.674 210.108C689.97 210.108 691.176 210.317 692.292 210.734C693.417 211.143 694.397 211.761 695.233 212.588C696.076 213.415 696.733 214.455 697.201 215.707C697.67 216.952 697.904 218.409 697.904 220.08V221.575H681.324V218.2H692.778C692.778 217.416 692.608 216.722 692.267 216.116C691.926 215.511 691.453 215.038 690.848 214.697C690.251 214.348 689.556 214.173 688.764 214.173C687.937 214.173 687.204 214.365 686.565 214.749C685.934 215.124 685.44 215.631 685.082 216.27C684.724 216.901 684.541 217.604 684.532 218.379V221.588C684.532 222.56 684.711 223.399 685.069 224.107C685.436 224.814 685.951 225.359 686.616 225.743C687.281 226.126 688.069 226.318 688.981 226.318C689.586 226.318 690.14 226.233 690.643 226.062C691.146 225.892 691.576 225.636 691.934 225.295C692.292 224.955 692.565 224.537 692.752 224.043L697.789 224.375C697.534 225.585 697.01 226.642 696.217 227.545C695.433 228.44 694.419 229.139 693.174 229.642C691.939 230.136 690.511 230.384 688.892 230.384ZM385.027 290.371C383.774 290.371 382.657 290.153 381.677 289.719C380.697 289.276 379.922 288.624 379.35 287.763C378.788 286.893 378.507 285.811 378.507 284.516C378.507 283.425 378.707 282.509 379.108 281.767C379.508 281.026 380.054 280.429 380.744 279.977C381.434 279.526 382.218 279.185 383.096 278.955C383.983 278.724 384.912 278.562 385.883 278.469C387.025 278.349 387.946 278.239 388.645 278.136C389.343 278.026 389.85 277.864 390.166 277.651C390.481 277.437 390.639 277.122 390.639 276.705V276.628C390.639 275.818 390.383 275.192 389.872 274.749C389.369 274.305 388.653 274.084 387.724 274.084C386.744 274.084 385.964 274.301 385.385 274.736C384.805 275.162 384.422 275.699 384.234 276.347L379.197 275.938C379.453 274.744 379.956 273.713 380.706 272.844C381.456 271.966 382.423 271.293 383.608 270.824C384.801 270.347 386.181 270.108 387.75 270.108C388.841 270.108 389.885 270.236 390.882 270.491C391.887 270.747 392.778 271.143 393.554 271.68C394.338 272.217 394.956 272.908 395.407 273.751C395.859 274.587 396.085 275.588 396.085 276.756V290H390.92V287.277H390.767C390.451 287.891 390.029 288.432 389.501 288.901C388.973 289.361 388.338 289.723 387.596 289.987C386.855 290.243 385.998 290.371 385.027 290.371ZM386.586 286.612C387.387 286.612 388.095 286.455 388.708 286.139C389.322 285.815 389.804 285.381 390.153 284.835C390.502 284.29 390.677 283.672 390.677 282.982V280.898C390.507 281.009 390.272 281.111 389.974 281.205C389.684 281.29 389.356 281.371 388.99 281.447C388.623 281.516 388.257 281.58 387.89 281.639C387.524 281.69 387.191 281.737 386.893 281.78C386.254 281.874 385.696 282.023 385.218 282.227C384.741 282.432 384.37 282.709 384.106 283.058C383.842 283.399 383.71 283.825 383.71 284.337C383.71 285.078 383.978 285.645 384.515 286.037C385.061 286.42 385.751 286.612 386.586 286.612ZM407.546 290.32C406.054 290.32 404.703 289.936 403.493 289.169C402.292 288.393 401.337 287.256 400.63 285.756C399.931 284.247 399.581 282.398 399.581 280.207C399.581 277.957 399.944 276.087 400.668 274.595C401.392 273.095 402.355 271.974 403.557 271.233C404.767 270.483 406.093 270.108 407.533 270.108C408.632 270.108 409.549 270.295 410.282 270.67C411.023 271.037 411.62 271.497 412.071 272.051C412.532 272.597 412.881 273.134 413.12 273.662H413.286V263.818H418.719V290H413.35V286.855H413.12C412.864 287.401 412.502 287.942 412.033 288.479C411.573 289.007 410.972 289.446 410.23 289.795C409.498 290.145 408.603 290.32 407.546 290.32ZM409.272 285.986C410.15 285.986 410.891 285.747 411.496 285.27C412.11 284.784 412.578 284.107 412.902 283.237C413.235 282.368 413.401 281.349 413.401 280.182C413.401 279.014 413.239 278 412.915 277.139C412.591 276.278 412.123 275.614 411.509 275.145C410.895 274.676 410.15 274.442 409.272 274.442C408.377 274.442 407.623 274.685 407.009 275.17C406.395 275.656 405.931 276.33 405.615 277.19C405.3 278.051 405.142 279.048 405.142 280.182C405.142 281.324 405.3 282.334 405.615 283.212C405.939 284.081 406.404 284.763 407.009 285.257C407.623 285.743 408.377 285.986 409.272 285.986ZM423.197 290V270.364H428.387V273.828H428.617C429.026 272.678 429.708 271.77 430.663 271.105C431.617 270.44 432.759 270.108 434.089 270.108C435.435 270.108 436.582 270.445 437.528 271.118C438.474 271.783 439.104 272.686 439.42 273.828H439.624C440.025 272.703 440.749 271.804 441.798 271.131C442.854 270.449 444.103 270.108 445.543 270.108C447.376 270.108 448.863 270.692 450.005 271.859C451.156 273.018 451.731 274.663 451.731 276.794V290H446.298V277.868C446.298 276.777 446.008 275.959 445.428 275.413C444.849 274.868 444.124 274.595 443.255 274.595C442.266 274.595 441.495 274.911 440.941 275.541C440.387 276.163 440.11 276.986 440.11 278.009V290H434.83V277.753C434.83 276.79 434.553 276.023 433.999 275.452C433.454 274.881 432.734 274.595 431.839 274.595C431.234 274.595 430.688 274.749 430.202 275.055C429.725 275.354 429.346 275.776 429.065 276.321C428.783 276.858 428.643 277.489 428.643 278.213V290H423.197ZM456.033 290V270.364H461.479V290H456.033ZM458.768 267.832C457.959 267.832 457.264 267.564 456.685 267.027C456.114 266.482 455.828 265.83 455.828 265.071C455.828 264.321 456.114 263.678 456.685 263.141C457.264 262.595 457.959 262.322 458.768 262.322C459.578 262.322 460.268 262.595 460.839 263.141C461.419 263.678 461.709 264.321 461.709 265.071C461.709 265.83 461.419 266.482 460.839 267.027C460.268 267.564 459.578 267.832 458.768 267.832ZM482.179 275.963L477.194 276.27C477.108 275.844 476.925 275.46 476.644 275.119C476.363 274.77 475.992 274.493 475.532 274.288C475.08 274.075 474.539 273.969 473.908 273.969C473.064 273.969 472.353 274.148 471.773 274.506C471.194 274.855 470.904 275.324 470.904 275.912C470.904 276.381 471.091 276.777 471.466 277.101C471.841 277.425 472.485 277.685 473.397 277.881L476.951 278.597C478.86 278.989 480.283 279.619 481.221 280.489C482.158 281.358 482.627 282.5 482.627 283.915C482.627 285.202 482.248 286.331 481.489 287.303C480.739 288.274 479.708 289.033 478.395 289.578C477.091 290.115 475.587 290.384 473.882 290.384C471.283 290.384 469.212 289.842 467.669 288.76C466.135 287.669 465.236 286.186 464.972 284.311L470.328 284.03C470.49 284.822 470.882 285.428 471.505 285.845C472.127 286.254 472.924 286.459 473.895 286.459C474.85 286.459 475.617 286.276 476.196 285.909C476.784 285.534 477.083 285.053 477.091 284.464C477.083 283.97 476.874 283.565 476.465 283.25C476.056 282.926 475.425 282.679 474.573 282.509L471.172 281.831C469.255 281.447 467.827 280.783 466.89 279.837C465.961 278.891 465.496 277.685 465.496 276.219C465.496 274.957 465.837 273.871 466.519 272.959C467.209 272.047 468.176 271.344 469.421 270.849C470.674 270.355 472.14 270.108 473.819 270.108C476.299 270.108 478.25 270.632 479.674 271.68C481.105 272.729 481.941 274.156 482.179 275.963ZM502.394 275.963L497.408 276.27C497.323 275.844 497.14 275.46 496.859 275.119C496.577 274.77 496.207 274.493 495.746 274.288C495.295 274.075 494.754 273.969 494.123 273.969C493.279 273.969 492.567 274.148 491.988 274.506C491.408 274.855 491.119 275.324 491.119 275.912C491.119 276.381 491.306 276.777 491.681 277.101C492.056 277.425 492.7 277.685 493.612 277.881L497.165 278.597C499.075 278.989 500.498 279.619 501.435 280.489C502.373 281.358 502.842 282.5 502.842 283.915C502.842 285.202 502.462 286.331 501.704 287.303C500.954 288.274 499.923 289.033 498.61 289.578C497.306 290.115 495.802 290.384 494.097 290.384C491.498 290.384 489.427 289.842 487.884 288.76C486.35 287.669 485.451 286.186 485.187 284.311L490.543 284.03C490.705 284.822 491.097 285.428 491.719 285.845C492.342 286.254 493.138 286.459 494.11 286.459C495.065 286.459 495.832 286.276 496.411 285.909C496.999 285.534 497.298 285.053 497.306 284.464C497.298 283.97 497.089 283.565 496.68 283.25C496.271 282.926 495.64 282.679 494.788 282.509L491.387 281.831C489.469 281.447 488.042 280.783 487.104 279.837C486.175 278.891 485.711 277.685 485.711 276.219C485.711 274.957 486.052 273.871 486.734 272.959C487.424 272.047 488.391 271.344 489.636 270.849C490.888 270.355 492.354 270.108 494.033 270.108C496.513 270.108 498.465 270.632 499.888 271.68C501.32 272.729 502.156 274.156 502.394 275.963ZM506.271 290V270.364H511.717V290H506.271ZM509.007 267.832C508.197 267.832 507.502 267.564 506.923 267.027C506.352 266.482 506.066 265.83 506.066 265.071C506.066 264.321 506.352 263.678 506.923 263.141C507.502 262.595 508.197 262.322 509.007 262.322C509.816 262.322 510.507 262.595 511.078 263.141C511.657 263.678 511.947 264.321 511.947 265.071C511.947 265.83 511.657 266.482 511.078 267.027C510.507 267.564 509.816 267.832 509.007 267.832ZM524.952 290.384C522.966 290.384 521.249 289.962 519.8 289.118C518.359 288.266 517.247 287.081 516.463 285.564C515.679 284.038 515.287 282.27 515.287 280.259C515.287 278.23 515.679 276.457 516.463 274.94C517.247 273.415 518.359 272.23 519.8 271.386C521.249 270.534 522.966 270.108 524.952 270.108C526.938 270.108 528.651 270.534 530.091 271.386C531.54 272.23 532.656 273.415 533.44 274.94C534.224 276.457 534.616 278.23 534.616 280.259C534.616 282.27 534.224 284.038 533.44 285.564C532.656 287.081 531.54 288.266 530.091 289.118C528.651 289.962 526.938 290.384 524.952 290.384ZM524.977 286.165C525.881 286.165 526.635 285.909 527.24 285.398C527.845 284.878 528.301 284.17 528.608 283.276C528.923 282.381 529.081 281.362 529.081 280.22C529.081 279.078 528.923 278.06 528.608 277.165C528.301 276.27 527.845 275.562 527.24 275.043C526.635 274.523 525.881 274.263 524.977 274.263C524.065 274.263 523.298 274.523 522.676 275.043C522.063 275.562 521.598 276.27 521.283 277.165C520.976 278.06 520.822 279.078 520.822 280.22C520.822 281.362 520.976 282.381 521.283 283.276C521.598 284.17 522.063 284.878 522.676 285.398C523.298 285.909 524.065 286.165 524.977 286.165ZM543.604 278.648V290H538.158V270.364H543.348V273.828H543.578C544.013 272.686 544.741 271.783 545.764 271.118C546.787 270.445 548.027 270.108 549.484 270.108C550.848 270.108 552.037 270.406 553.051 271.003C554.065 271.599 554.854 272.452 555.416 273.56C555.979 274.659 556.26 275.972 556.26 277.497V290H550.814V278.469C550.822 277.267 550.516 276.33 549.893 275.656C549.271 274.974 548.415 274.634 547.324 274.634C546.591 274.634 545.943 274.791 545.381 275.107C544.827 275.422 544.392 275.882 544.077 276.487C543.77 277.084 543.612 277.804 543.604 278.648ZM576.89 275.963L571.904 276.27C571.819 275.844 571.636 275.46 571.355 275.119C571.074 274.77 570.703 274.493 570.243 274.288C569.791 274.075 569.25 273.969 568.619 273.969C567.775 273.969 567.064 274.148 566.484 274.506C565.904 274.855 565.615 275.324 565.615 275.912C565.615 276.381 565.802 276.777 566.177 277.101C566.552 277.425 567.196 277.685 568.108 277.881L571.662 278.597C573.571 278.989 574.994 279.619 575.931 280.489C576.869 281.358 577.338 282.5 577.338 283.915C577.338 285.202 576.958 286.331 576.2 287.303C575.45 288.274 574.419 289.033 573.106 289.578C571.802 290.115 570.298 290.384 568.593 290.384C565.994 290.384 563.923 289.842 562.38 288.76C560.846 287.669 559.947 286.186 559.683 284.311L565.039 284.03C565.201 284.822 565.593 285.428 566.216 285.845C566.838 286.254 567.635 286.459 568.606 286.459C569.561 286.459 570.328 286.276 570.907 285.909C571.495 285.534 571.794 285.053 571.802 284.464C571.794 283.97 571.585 283.565 571.176 283.25C570.767 282.926 570.136 282.679 569.284 282.509L565.883 281.831C563.966 281.447 562.538 280.783 561.6 279.837C560.672 278.891 560.207 277.685 560.207 276.219C560.207 274.957 560.548 273.871 561.23 272.959C561.92 272.047 562.887 271.344 564.132 270.849C565.385 270.355 566.85 270.108 568.529 270.108C571.01 270.108 572.961 270.632 574.385 271.68C575.816 272.729 576.652 274.156 576.89 275.963ZM585.331 263.818V266.58C585.331 267.364 585.178 268.165 584.871 268.983C584.572 269.793 584.172 270.56 583.669 271.284C583.166 272 582.616 272.609 582.02 273.112L579.616 271.693C580.043 271.02 580.418 270.274 580.741 269.456C581.074 268.638 581.24 267.687 581.24 266.605V263.818H585.331ZM591.761 263.818V266.58C591.761 267.364 591.608 268.165 591.301 268.983C591.003 269.793 590.602 270.56 590.099 271.284C589.597 272 589.043 272.609 588.438 273.112L586.034 271.693C586.469 271.02 586.848 270.274 587.172 269.456C587.504 268.638 587.67 267.687 587.67 266.605V263.818H591.761Z" fill="#45515E"/>
<g clip-path="url(#clip0_4729_12703)">
<path d="M754.351 620H568.765C564.07 620 560.264 623.806 560.264 628.501V776.188C560.264 780.884 564.07 784.69 568.765 784.69H754.351C759.046 784.69 762.852 780.884 762.852 776.188V628.501C762.852 623.806 759.046 620 754.351 620Z" fill="#F2E7E3"/>
<path d="M568.702 620H754.399C759.055 620 762.837 623.782 762.837 628.438V638.83H560.248V628.438C560.248 623.782 564.03 620 568.686 620H568.702Z" fill="#91B1DA"/>
<path d="M754.351 620H568.765C564.07 620 560.264 623.806 560.264 628.501V776.188C560.264 780.884 564.07 784.69 568.765 784.69H754.351C759.046 784.69 762.852 780.884 762.852 776.188V628.501C762.852 623.806 759.046 620 754.351 620Z" stroke="#231F20" stroke-linecap="round" stroke-linejoin="round"/>
<path d="M560.264 638.83H762.852" stroke="#231F20" stroke-linecap="round" stroke-linejoin="round"/>
<path d="M746.693 632.76L753.018 626.451" stroke="#231F20" stroke-linecap="round" stroke-linejoin="round"/>
<path d="M680.49 652.242H572.1C570.731 652.242 569.621 653.352 569.621 654.721V661.061C569.621 662.431 570.731 663.54 572.1 663.54H680.49C681.859 663.54 682.968 662.431 682.968 661.061V654.721C682.968 653.352 681.859 652.242 680.49 652.242Z" fill="#91B1DA"/>
<path d="M752.172 741.007H572.1C570.731 741.007 569.621 742.117 569.621 743.486V749.333C569.621 750.703 570.731 751.812 572.1 751.812H752.172C753.541 751.812 754.651 750.703 754.651 749.333V743.486C754.651 742.117 753.541 741.007 752.172 741.007Z" fill="#91B1DA"/>
<path d="M753.018 632.76L746.693 626.451" stroke="#231F20" stroke-linecap="round" stroke-linejoin="round"/>
<path d="M680.49 652.242H572.1C570.731 652.242 569.621 653.352 569.621 654.721V661.061C569.621 662.431 570.731 663.54 572.1 663.54H680.49C681.859 663.54 682.968 662.431 682.968 661.061V654.721C682.968 653.352 681.859 652.242 680.49 652.242Z" stroke="#231F20" stroke-linecap="round" stroke-linejoin="round"/>
<path d="M680.49 674.616H572.1C570.731 674.616 569.621 675.726 569.621 677.095V683.435C569.621 684.805 570.731 685.914 572.1 685.914H680.49C681.859 685.914 682.968 684.805 682.968 683.435V677.095C682.968 675.726 681.859 674.616 680.49 674.616Z" fill="#91B1DA"/>
<path d="M680.49 674.616H572.1C570.731 674.616 569.621 675.726 569.621 677.095V683.435C569.621 684.805 570.731 685.914 572.1 685.914H680.49C681.859 685.914 682.968 684.805 682.968 683.435V677.095C682.968 675.726 681.859 674.616 680.49 674.616Z" stroke="#231F20" stroke-linecap="round" stroke-linejoin="round"/>
<path d="M680.49 696.973H572.1C570.731 696.973 569.621 698.083 569.621 699.452V705.792C569.621 707.161 570.731 708.271 572.1 708.271H680.49C681.859 708.271 682.968 707.161 682.968 705.792V699.452C682.968 698.083 681.859 696.973 680.49 696.973Z" fill="#91B1DA"/>
<path d="M680.49 696.973H572.1C570.731 696.973 569.621 698.083 569.621 699.452V705.792C569.621 707.161 570.731 708.271 572.1 708.271H680.49C681.859 708.271 682.968 707.161 682.968 705.792V699.452C682.968 698.083 681.859 696.973 680.49 696.973Z" stroke="#231F20" stroke-linecap="round" stroke-linejoin="round"/>
<path d="M752.172 741.007H572.1C570.731 741.007 569.621 742.117 569.621 743.486V749.333C569.621 750.703 570.731 751.812 572.1 751.812H752.172C753.541 751.812 754.651 750.703 754.651 749.333V743.486C754.651 742.117 753.541 741.007 752.172 741.007Z" stroke="#231F20" stroke-linecap="round" stroke-linejoin="round"/>
<path d="M752.172 760.313H572.1C570.731 760.313 569.621 761.423 569.621 762.792V768.64C569.621 770.009 570.731 771.119 572.1 771.119H752.172C753.541 771.119 754.651 770.009 754.651 768.64V762.792C754.651 761.423 753.541 760.313 752.172 760.313Z" fill="#91B1DA"/>
<path d="M752.172 760.313H572.1C570.731 760.313 569.621 761.423 569.621 762.792V768.64C569.621 770.009 570.731 771.119 572.1 771.119H752.172C753.541 771.119 754.651 770.009 754.651 768.64V762.792C754.651 761.423 753.541 760.313 752.172 760.313Z" stroke="#231F20" stroke-linecap="round" stroke-linejoin="round"/>
<path d="M749.011 652.242H697.112C693.988 652.242 691.455 654.775 691.455 657.899V720.81C691.455 723.934 693.988 726.467 697.112 726.467H749.011C752.135 726.467 754.668 723.934 754.668 720.81V657.899C754.668 654.775 752.135 652.242 749.011 652.242Z" fill="#E58A9C"/>
<path d="M749.011 652.242H697.112C693.988 652.242 691.455 654.775 691.455 657.899V720.81C691.455 723.934 693.988 726.467 697.112 726.467H749.011C752.135 726.467 754.668 723.934 754.668 720.81V657.899C754.668 654.775 752.135 652.242 749.011 652.242Z" stroke="#231F20" stroke-linecap="round" stroke-linejoin="round"/>
<path d="M829.257 807.906H643.671C638.976 807.906 635.17 811.712 635.17 816.408V964.095C635.17 968.79 638.976 972.596 643.671 972.596H829.257C833.952 972.596 837.759 968.79 837.759 964.095V816.408C837.759 811.712 833.952 807.906 829.257 807.906Z" fill="#F2E7E3"/>
<path d="M643.608 807.906H829.305C833.961 807.906 837.743 811.688 837.743 816.344V826.737H635.154V816.344C635.154 811.688 638.936 807.906 643.592 807.906H643.608Z" fill="#91B1DA"/>
<path d="M829.257 807.906H643.671C638.976 807.906 635.17 811.712 635.17 816.408V964.095C635.17 968.79 638.976 972.596 643.671 972.596H829.257C833.952 972.596 837.759 968.79 837.759 964.095V816.408C837.759 811.712 833.952 807.906 829.257 807.906Z" stroke="#231F20" stroke-linecap="round" stroke-linejoin="round"/>
<path d="M635.17 826.735H837.759" stroke="#231F20" stroke-linecap="round" stroke-linejoin="round"/>
<path d="M821.615 820.665L827.924 814.341" stroke="#231F20" stroke-linecap="round" stroke-linejoin="round"/>
<path d="M827.924 820.665L821.615 814.341" stroke="#231F20" stroke-linecap="round" stroke-linejoin="round"/>
<path d="M733.643 839.162H658.433C655.019 839.162 652.252 841.93 652.252 845.344V895.733C652.252 899.146 655.019 901.914 658.433 901.914H733.643C737.057 901.914 739.825 899.146 739.825 895.733V845.344C739.825 841.93 737.057 839.162 733.643 839.162Z" fill="#91B1DA"/>
<path d="M733.643 839.162H658.433C655.019 839.162 652.252 841.93 652.252 845.344V895.733C652.252 899.146 655.019 901.914 658.433 901.914H733.643C737.057 901.914 739.825 899.146 739.825 895.733V845.344C739.825 841.93 737.057 839.162 733.643 839.162Z" stroke="#231F20" stroke-linecap="round" stroke-linejoin="round"/>
<path d="M754.67 847.41C754.67 847.41 769.496 840.354 775.391 843.405C781.271 846.472 783.162 850.238 789.995 847.41C796.828 844.581 802.707 839.989 810.239 842.642C817.771 845.296 818.709 851.048 825.78 848.411M754.67 858.374C754.67 858.374 769.496 851.319 775.391 854.37C781.271 857.436 783.162 861.203 789.995 858.374C796.828 855.545 802.707 850.953 810.239 853.607C817.771 856.261 818.709 862.013 825.78 859.375M754.67 869.323C754.67 869.323 769.496 862.267 775.391 865.318C781.271 868.385 783.162 872.151 789.995 869.323C796.828 866.494 802.707 861.902 810.239 864.555C817.771 867.209 818.709 872.962 825.78 870.324M754.67 880.287C754.67 880.287 769.496 873.232 775.391 876.283C781.271 879.35 783.162 883.116 789.995 880.287C796.828 877.459 802.707 872.866 810.239 875.52C817.771 878.174 818.709 883.926 825.78 881.288" stroke="#231F20" stroke-linecap="round" stroke-linejoin="round"/>
<path d="M668.143 910.257H654.953C653.461 910.257 652.252 911.466 652.252 912.958V926.147C652.252 927.639 653.461 928.849 654.953 928.849H668.143C669.634 928.849 670.844 927.639 670.844 926.147V912.958C670.844 911.466 669.634 910.257 668.143 910.257Z" fill="#C7CFE4"/>
<path d="M699.924 910.257H686.735C685.243 910.257 684.033 911.466 684.033 912.958V926.147C684.033 927.639 685.243 928.849 686.735 928.849H699.924C701.416 928.849 702.625 927.639 702.625 926.147V912.958C702.625 911.466 701.416 910.257 699.924 910.257Z" fill="#C7CFE4"/>
<path d="M731.705 910.257H718.516C717.024 910.257 715.814 911.466 715.814 912.958V926.147C715.814 927.639 717.024 928.849 718.516 928.849H731.705C733.197 928.849 734.406 927.639 734.406 926.147V912.958C734.406 911.466 733.197 910.257 731.705 910.257Z" fill="#C7CFE4"/>
<path d="M668.143 938.51H654.953C653.461 938.51 652.252 939.719 652.252 941.211V954.4C652.252 955.892 653.461 957.102 654.953 957.102H668.143C669.634 957.102 670.844 955.892 670.844 954.4V941.211C670.844 939.719 669.634 938.51 668.143 938.51Z" fill="#C7CFE4"/>
<path d="M699.924 938.51H686.735C685.243 938.51 684.033 939.719 684.033 941.211V954.4C684.033 955.892 685.243 957.102 686.735 957.102H699.924C701.416 957.102 702.625 955.892 702.625 954.4V941.211C702.625 939.719 701.416 938.51 699.924 938.51Z" fill="#C7CFE4"/>
<path d="M731.705 938.51H718.516C717.024 938.51 715.814 939.719 715.814 941.211V954.4C715.814 955.892 717.024 957.102 718.516 957.102H731.705C733.197 957.102 734.406 955.892 734.406 954.4V941.211C734.406 939.719 733.197 938.51 731.705 938.51Z" fill="#C7CFE4"/>
<path d="M754.67 891.251C754.67 891.251 769.496 884.196 775.391 887.247C781.271 890.314 783.162 894.08 789.995 891.251C796.828 888.423 802.707 883.83 810.239 886.484C817.771 889.138 818.709 894.89 825.78 892.252M754.67 951.763C754.67 951.763 769.496 944.707 775.391 947.758C781.271 950.825 783.162 954.591 789.995 951.763C796.828 948.934 802.707 944.342 810.239 946.995C817.771 949.649 818.709 955.402 825.78 952.764" stroke="#231F20" stroke-linecap="round" stroke-linejoin="round"/>
<path d="M754.67 944.072C754.67 944.072 769.496 937.016 775.391 940.067C781.271 943.134 783.162 946.9 789.995 944.072C796.828 941.243 802.707 936.651 810.239 939.304C817.771 941.958 818.709 947.711 825.78 945.073" stroke="#231F20" stroke-linecap="round" stroke-linejoin="round"/>
<path d="M754.67 936.398C754.67 936.398 769.496 929.342 775.391 932.393C781.271 935.46 783.162 939.226 789.995 936.398C796.828 933.569 802.707 928.977 810.239 931.631C817.771 934.284 818.709 940.037 825.78 937.399M754.67 902.217C754.67 902.217 769.496 895.162 775.391 898.213C781.271 901.28 783.162 905.046 789.995 902.217M754.67 921.445C754.67 921.445 769.496 914.389 775.391 917.44C781.271 920.507 783.162 924.273 789.995 921.445" stroke="#231F20" stroke-linecap="round" stroke-linejoin="round"/>
<path d="M668.143 910.257H654.953C653.461 910.257 652.252 911.466 652.252 912.958V926.147C652.252 927.639 653.461 928.849 654.953 928.849H668.143C669.634 928.849 670.844 927.639 670.844 926.147V912.958C670.844 911.466 669.634 910.257 668.143 910.257Z" stroke="#231F20" stroke-linecap="round" stroke-linejoin="round"/>
<path d="M699.924 910.257H686.735C685.243 910.257 684.033 911.466 684.033 912.958V926.147C684.033 927.639 685.243 928.849 686.735 928.849H699.924C701.416 928.849 702.625 927.639 702.625 926.147V912.958C702.625 911.466 701.416 910.257 699.924 910.257Z" stroke="#231F20" stroke-linecap="round" stroke-linejoin="round"/>
<path d="M731.705 910.257H718.516C717.024 910.257 715.814 911.466 715.814 912.958V926.147C715.814 927.639 717.024 928.849 718.516 928.849H731.705C733.197 928.849 734.406 927.639 734.406 926.147V912.958C734.406 911.466 733.197 910.257 731.705 910.257Z" stroke="#231F20" stroke-linecap="round" stroke-linejoin="round"/>
<path d="M668.143 938.51H654.953C653.461 938.51 652.252 939.719 652.252 941.211V954.4C652.252 955.892 653.461 957.102 654.953 957.102H668.143C669.634 957.102 670.844 955.892 670.844 954.4V941.211C670.844 939.719 669.634 938.51 668.143 938.51Z" stroke="#231F20" stroke-linecap="round" stroke-linejoin="round"/>
<path d="M699.924 938.51H686.735C685.243 938.51 684.033 939.719 684.033 941.211V954.4C684.033 955.892 685.243 957.102 686.735 957.102H699.924C701.416 957.102 702.625 955.892 702.625 954.4V941.211C702.625 939.719 701.416 938.51 699.924 938.51Z" stroke="#231F20" stroke-linecap="round" stroke-linejoin="round"/>
<path d="M731.705 938.51H718.516C717.024 938.51 715.814 939.719 715.814 941.211V954.4C715.814 955.892 717.024 957.102 718.516 957.102H731.705C733.197 957.102 734.406 955.892 734.406 954.4V941.211C734.406 939.719 733.197 938.51 731.705 938.51Z" stroke="#231F20" stroke-linecap="round" stroke-linejoin="round"/>
<path d="M456.53 726.879C470.609 736.541 475.201 862.601 462.139 910.622C449.077 958.643 441.879 974.534 441.879 974.534C441.879 974.534 505.934 969.242 533.822 943.817C533.822 943.817 543.356 877.728 535.236 820.729C527.116 763.729 507.3 740.291 490.202 732.409C473.104 724.527 456.53 726.879 456.53 726.879Z" fill="#FFC7B6"/>
<path d="M456.53 726.879C470.609 736.541 475.201 862.601 462.139 910.622C449.077 958.643 441.879 974.534 441.879 974.534C441.879 974.534 505.934 969.242 533.822 943.817C533.822 943.817 543.356 877.728 535.236 820.729C527.116 763.729 507.3 740.291 490.202 732.409C473.104 724.527 456.53 726.879 456.53 726.879Z" stroke="#231F20" stroke-linecap="round" stroke-linejoin="round"/>
<path d="M500.196 835.062L478.712 759.28C478.045 756.928 478.076 754.449 478.791 752.113C481.064 744.661 489.486 740.99 496.493 744.422L496.732 744.533C500.101 746.186 502.58 749.237 503.485 752.892L522.459 829.77C516.865 833.775 510.064 835.714 503.199 835.269L500.212 835.078L500.196 835.062Z" fill="#E58A9C"/>
<path d="M500.196 835.062L478.712 759.28C478.045 756.928 478.076 754.449 478.791 752.113C481.064 744.661 489.486 740.99 496.493 744.422L496.732 744.533C500.101 746.186 502.58 749.237 503.485 752.892L522.459 829.77" stroke="#231F20" stroke-linecap="round" stroke-linejoin="round"/>
<path d="M522.444 829.756L547.519 865.78L527.036 877.428L500.197 835.047L501.532 834.046C507.507 829.549 515.182 827.96 522.444 829.756Z" fill="#E58A9C"/>
<path d="M522.444 829.756L547.519 865.78L527.036 877.428L500.197 835.063" stroke="#231F20" stroke-linecap="round" stroke-linejoin="round"/>
<path d="M468.685 789.187H342.26V935.173H468.685V789.187Z" fill="#91B1DA"/>
<path d="M468.685 789.187H342.26V935.173H468.685V789.187Z" stroke="#231F20" stroke-linecap="round" stroke-linejoin="round"/>
<path d="M585.689 922.445L574.375 1086.12H542.244C542.244 1086.12 523.875 948.395 533.775 931.805L536.317 929.977C550.158 920.062 567.812 917.106 584.132 921.969L585.689 922.429V922.445Z" fill="#625E8A"/>
<path d="M585.689 922.445L574.375 1086.12H542.244C542.244 1086.12 523.875 948.395 533.775 931.805" stroke="#231F20" stroke-linecap="round" stroke-linejoin="round"/>
<path d="M556.054 943.564L515.136 942.913C489.25 942.499 468.83 920.777 469.99 894.923L471.389 864.111L499.595 866.002L558.406 883.101C575.567 888.09 586.929 904.362 585.69 922.191L556.054 943.564Z" fill="#625E8A"/>
<path d="M499.592 866.002L558.403 883.101C575.565 888.09 586.926 904.362 585.687 922.191M471.386 864.111L469.988 894.923C468.812 920.777 489.247 942.499 515.133 942.913L556.051 943.564" stroke="#231F20" stroke-linecap="round" stroke-linejoin="round"/>
<path d="M473.341 731.631L496.493 744.423L491.965 761.966C503.739 787.391 491.965 796.925 491.965 796.925L500.085 866.001L481.572 871.627C467.954 875.79 451.285 868.464 437.126 867.018L411.225 864.365L423.937 743.596L433.026 731.472L454.209 725.974" fill="#E58A9C"/>
<path d="M454.209 725.974L433.027 731.472" stroke="#231F20" stroke-linecap="round" stroke-linejoin="round"/>
<path d="M491.965 761.967C503.739 787.392 491.965 796.926 491.965 796.926L500.085 866.003L482.955 871.247C469.336 875.41 451.285 868.466 437.126 867.02L411.225 864.366L423.937 743.598" stroke="#231F20" stroke-linecap="round" stroke-linejoin="round"/>
<path d="M473.342 731.631L496.494 744.407" stroke="#231F20" stroke-linecap="round" stroke-linejoin="round"/>
<path d="M455.355 724.259L431.566 716.282C431.566 716.282 439.051 709.782 443.198 694.289C447.346 678.78 458.596 674.585 458.596 674.585C458.596 674.585 462.013 663.859 475.218 663.128C488.423 662.397 497.957 668.244 497.957 668.244C497.957 668.244 508.032 673.123 504.997 683.42C504.997 683.42 510.924 691.985 506.935 704.904C502.931 717.807 493.81 736.574 493.81 736.574L472.93 729.01L455.323 724.259H455.355Z" fill="#625E8A"/>
<path d="M502.344 690.554C498.753 689.775 495.988 680.86 495.988 680.86C495.988 680.86 480.685 700.914 465.462 694.987C464.826 694.558 464.111 694.224 463.333 694.018C459.455 692.985 455.419 695.4 454.355 699.421C453.353 703.171 455.276 707 458.693 708.335C461.076 713.595 454.529 725.91 454.529 725.91C454.529 725.91 461.664 734.3 472.47 730.916C472.47 730.916 472.565 727.356 475.378 725.052L474.726 724.528C482.02 728.024 491.094 726.339 496.274 719.649C497.402 718.187 498.276 716.662 498.673 715.152C500.834 707.048 502.36 690.569 502.36 690.569L502.344 690.554Z" fill="#FFC7B6"/>
<path d="M458.102 697.625C461.343 696.751 464.061 699.31 464.235 704.283M458.403 702.361C458.531 699.468 462.964 699.58 462.964 699.58" stroke="#231F20" stroke-linecap="round" stroke-linejoin="round"/>
<path d="M463.045 708.732C461.885 709.05 460.629 709.066 459.39 708.732C455.513 707.699 453.224 703.583 454.305 699.563C455.385 695.543 459.406 693.112 463.283 694.16C464.062 694.367 464.777 694.701 465.412 695.13C480.651 701.057 495.938 681.003 495.938 681.003C495.938 681.003 498.719 689.918 502.294 690.696C502.294 690.696 500.769 707.191 498.608 715.279C498.195 716.804 497.337 718.314 496.208 719.776C489.995 727.817 478.125 728.659 470.513 721.921L464.602 716.693" stroke="#231F20" stroke-linecap="round" stroke-linejoin="round"/>
<path d="M458.628 708.494C461.012 713.754 454.465 726.069 454.465 726.069C454.465 726.069 461.6 734.459 472.405 731.074C472.405 731.074 472.501 727.515 475.313 725.211M493.619 705.236C497.242 708.081 494.128 712.196 491.808 709.288" stroke="#231F20" stroke-linecap="round" stroke-linejoin="round"/>
<path d="M455.355 724.259L431.566 716.282C431.566 716.282 439.051 709.782 443.198 694.289C447.346 678.78 458.596 674.585 458.596 674.585C458.596 674.585 462.013 663.859 475.218 663.128C488.423 662.397 497.957 668.244 497.957 668.244C497.957 668.244 508.032 673.123 504.997 683.42C504.997 683.42 510.924 691.985 506.935 704.904C502.931 717.807 493.81 736.574 493.81 736.574L472.93 729.01" stroke="#231F20" stroke-linecap="round" stroke-linejoin="round"/>
<path d="M488.278 697.546L487.865 699.087" stroke="#231F20" stroke-linecap="round" stroke-linejoin="round"/>
<path d="M498.766 700.342L498.782 701.994" stroke="#231F20" stroke-linecap="round" stroke-linejoin="round"/>
<path d="M486.389 692.651L489.201 692.683" stroke="#231F20" stroke-linecap="round" stroke-linejoin="round"/>
<path d="M482.701 711.641C483.453 714.957 484.899 715.893 488.692 716.44" stroke="#231F20" stroke-linecap="round" stroke-linejoin="round"/>
<path d="M499.18 695.353L500.896 695.797" stroke="#231F20" stroke-linecap="round" stroke-linejoin="round"/>
<path d="M391.665 821.476C391.364 817.488 391.983 813.388 393.636 809.511L423.319 739.64C425.226 735.143 429.342 731.965 434.157 731.25C439.48 730.455 444.788 732.775 447.823 737.225C451.779 743.009 452.606 750.366 450.063 756.897L425.036 819.474L421.842 820.825C413.038 824.559 403.202 825.052 394.065 822.223L391.665 821.476Z" fill="#E58A9C"/>
<path d="M391.665 821.476C391.364 817.488 391.983 813.388 393.636 809.511L423.319 739.64C425.226 735.143 429.342 731.965 434.157 731.25C439.48 730.455 444.788 732.775 447.823 737.225C451.779 743.009 452.606 750.366 450.063 756.897L425.036 819.474" stroke="#231F20" stroke-linecap="round" stroke-linejoin="round"/>
<path d="M550.713 922.445L539.399 1086.12H507.268C507.268 1086.12 488.898 948.395 498.798 931.805L501.341 929.977C515.181 920.062 532.836 917.106 549.155 921.969L550.713 922.429V922.445Z" fill="#625E8A"/>
<path d="M550.713 922.445L539.399 1086.12H507.268C507.268 1086.12 488.898 948.395 498.798 931.805" stroke="#231F20" stroke-linecap="round" stroke-linejoin="round"/>
<path d="M411.21 864.365L409.812 895.177C408.636 921.031 429.071 942.753 454.957 943.167L495.875 943.818" stroke="#231F20" stroke-linecap="round" stroke-linejoin="round"/>
<path d="M521.075 943.819L480.157 943.168C454.271 942.754 433.852 921.032 435.012 895.178L436.41 864.366L464.616 866.257L523.427 883.355C540.589 888.345 551.951 904.617 550.711 922.446L521.075 943.819Z" fill="#625E8A"/>
<path d="M464.617 866.257L523.428 883.355C540.59 888.345 551.952 904.617 550.712 922.446M436.412 864.366L435.013 895.178C433.837 921.032 454.273 942.754 480.158 943.168L521.076 943.819" stroke="#231F20" stroke-linecap="round" stroke-linejoin="round"/>
<path d="M374.488 1015.06H488.455C501.676 1015.06 512.402 1004.33 512.402 991.109V936.573C512.402 923.352 501.676 912.626 488.455 912.626H366.225C351.574 912.626 340.355 925.672 342.548 940.164L350.827 994.701C352.607 1006.41 362.666 1015.06 374.504 1015.06H374.488Z" fill="#91B1DA"/>
<path d="M374.488 1015.06H488.455C501.676 1015.06 512.402 1004.33 512.402 991.109V936.573C512.402 923.352 501.676 912.626 488.455 912.626H366.225C351.574 912.626 340.355 925.672 342.548 940.164L350.827 994.701C352.607 1006.41 362.666 1015.06 374.504 1015.06H374.488Z" stroke="#231F20" stroke-linecap="round" stroke-linejoin="round"/>
<path d="M344.042 788.789H348.332C359.932 788.789 369.848 797.163 371.787 808.605L402.058 987.294C404.521 1001.82 393.334 1015.05 378.604 1015.05H374.313C362.713 1015.05 352.797 1006.68 350.859 995.239L320.587 816.55C318.124 802.026 329.311 788.789 344.042 788.789Z" fill="#91B1DA"/>
<path d="M344.042 788.789H348.332C359.932 788.789 369.848 797.163 371.787 808.605L402.058 987.294C404.521 1001.82 393.334 1015.05 378.604 1015.05H374.313C362.713 1015.05 352.797 1006.68 350.859 995.239L320.587 816.55C318.124 802.026 329.311 788.789 344.042 788.789Z" stroke="#231F20" stroke-linecap="round" stroke-linejoin="round"/>
<path d="M375.694 945.757C375.694 945.757 375.551 960.758 377.315 967.829M381.24 949.825C381.24 949.825 381.097 964.826 382.861 971.897M386.786 953.893C386.786 953.893 386.643 968.893 388.407 975.965M392.332 956.181C392.332 956.181 392.189 971.182 393.952 978.253M397.877 959.089C397.877 959.089 397.734 974.09 399.498 981.161M403.423 961.568C403.423 961.568 403.28 976.569 405.044 983.64M408.969 963.157C408.969 963.157 408.826 978.158 410.59 985.229M414.499 965.159C414.499 965.159 414.356 980.16 416.12 987.231M420.045 966.415C420.045 966.415 419.902 981.415 421.666 988.487M424.78 967.829C424.78 967.829 424.637 982.829 426.401 989.901M430.326 969.418C430.326 969.418 430.183 984.419 431.947 991.49M435.872 970.832C435.872 970.832 435.729 985.833 437.493 992.904M441.418 971.897C441.418 971.897 441.275 986.898 443.038 993.969M446.518 972.596C446.518 972.596 446.375 987.597 448.139 994.668M452.017 973.486C452.017 973.486 451.874 988.487 453.637 995.558M457.229 974.535C457.229 974.535 457.086 989.535 458.849 996.607M462.568 975.234C462.568 975.234 462.425 990.235 464.189 997.306" stroke="#231F20" stroke-linecap="round" stroke-linejoin="round"/>
<path d="M384.498 1143.34H376.728L374.328 1015.06H386.786L384.498 1143.34Z" fill="#A3808D"/>
<path d="M384.498 1143.34H376.728L374.328 1015.06H386.786L384.498 1143.34Z" stroke="#231F20" stroke-linecap="round" stroke-linejoin="round"/>
<path d="M487.912 1143.34H480.142L477.727 1015.06H490.185L487.912 1143.34Z" fill="#A3808D"/>
<path d="M487.912 1143.34H480.142L477.727 1015.06H490.185L487.912 1143.34Z" stroke="#231F20" stroke-linecap="round" stroke-linejoin="round"/>
<path d="M506.584 877.857H586.688L610.556 818.871H530.452L506.584 877.857Z" fill="#91B1DA"/>
<path d="M506.584 877.857H586.688L610.556 818.871H530.452L506.584 877.857Z" stroke="#231F20" stroke-linecap="round" stroke-linejoin="round"/>
<path d="M450.442 877.857H512.717V873.948H450.442V877.857Z" fill="#91B1DA"/>
<path d="M450.442 877.857H512.717V873.948H450.442V877.857Z" stroke="#231F20" stroke-linecap="round" stroke-linejoin="round"/>
<path d="M509.572 877.857H589.692L613.56 818.871H533.456L509.572 877.857Z" fill="#C7CFE4"/>
<path d="M509.572 877.857H589.692L613.56 818.871H533.456L509.572 877.857Z" stroke="#231F20" stroke-linecap="round" stroke-linejoin="round"/>
<path d="M469.832 863.491L493.159 856.134L500.517 870.61L505.888 871.977L503.647 874.726H492.54L485.913 869.561L482.433 874.726H469.212L468.37 872.151C467.703 870.117 467.83 867.909 468.72 865.954L469.832 863.491Z" fill="#FFC7B6"/>
<path d="M469.213 874.726H482.434L487.551 867.114" stroke="#231F20" stroke-linecap="round" stroke-linejoin="round"/>
<path d="M469.832 863.491L493.159 856.134L500.533 870.61L505.888 871.977L503.647 874.726H496.528L486.549 864.492" stroke="#231F20" stroke-linecap="round" stroke-linejoin="round"/>
<path d="M496.529 874.726H492.54L485.914 869.562" stroke="#231F20" stroke-linecap="round" stroke-linejoin="round"/>
<path d="M420.126 808.176L481.575 856.674L467.925 877.856L401.185 832.044C394.59 827.531 390.697 820.38 390.125 812.832C398.277 807.827 407.986 805.983 417.409 807.684L420.142 808.176H420.126Z" fill="#E58A9C"/>
<path d="M420.126 808.176L481.575 856.674L467.925 877.856L401.185 832.043C394.59 827.53 390.697 820.38 390.125 812.832" stroke="#231F20" stroke-linecap="round" stroke-linejoin="round"/>
<path d="M450.73 726.879C436.65 736.541 432.058 862.601 445.12 910.622C458.182 958.643 465.381 974.534 465.381 974.534C465.381 974.534 401.326 969.242 373.438 943.817C373.438 943.817 363.903 877.728 372.024 820.729C380.144 763.729 399.959 740.291 417.057 732.409C434.172 724.527 450.73 726.879 450.73 726.879Z" fill="#FFC7B6"/>
<path d="M450.73 726.879C436.65 736.541 432.058 862.601 445.12 910.622C458.182 958.643 465.381 974.534 465.381 974.534C465.381 974.534 401.326 969.242 373.438 943.817C373.438 943.817 363.903 877.728 372.024 820.729C380.144 763.729 399.959 740.291 417.057 732.409C434.172 724.527 450.73 726.879 450.73 726.879Z" stroke="#231F20" stroke-linecap="round" stroke-linejoin="round"/>
<path d="M252.177 939.13C252.177 939.13 256.357 918.837 235.778 902.152C215.2 885.467 185.707 875.965 178.938 885.61C172.168 895.256 192.89 919.139 213.611 931.947C234.332 944.755 252.177 939.146 252.177 939.146V939.13ZM350.174 987.342C350.174 987.342 341.101 977.696 365.429 960.439C389.758 943.182 410.463 940.163 414.356 944.04C418.25 947.917 406.872 967.049 389.027 975.98C371.182 984.895 358.66 991.092 350.174 987.342Z" fill="#768D5D"/>
<path d="M334.235 905.505C334.235 905.505 355.528 901.087 365.126 875.376C371.006 859.629 373.072 839.257 373.787 825.845C374.105 819.886 367.192 816.359 362.568 820.125C352.493 828.34 338.573 841.974 332.312 858.58C321.952 886.118 334.235 905.489 334.235 905.489V905.505ZM261.663 1023.89C261.663 1023.89 244.247 1020.58 234.617 1040.57C224.972 1060.58 229.58 1081.87 232.742 1088.79C235.904 1095.7 244.406 1095.41 253.892 1078.57C263.395 1061.72 266.271 1043.75 266.271 1035.68C266.271 1027.61 261.663 1023.87 261.663 1023.87V1023.89ZM280.811 729.358C276.362 725.258 269.131 727.483 267.733 733.378C263.586 750.874 257.802 785.579 268.814 811.878C276.536 830.311 287.358 843.103 296.209 851.27C303.805 858.278 316.136 854.305 318.329 844.215C321.554 829.437 322.73 806.793 311.782 779.445C300.547 751.366 288.82 736.747 280.795 729.342L280.811 729.358Z" fill="#B9D28B"/>
<path d="M280.811 729.358C276.361 725.258 269.131 727.483 267.733 733.378C263.585 750.874 257.801 785.579 268.813 811.878C276.536 830.311 287.358 843.103 296.209 851.27C303.804 858.278 316.135 854.305 318.328 844.215C321.554 829.437 322.73 806.793 311.781 779.445C300.547 751.366 288.82 736.747 280.795 729.342L280.811 729.358Z" stroke="#231F20" stroke-linecap="round" stroke-linejoin="round"/>
<path d="M272.406 727.88C272.406 727.88 300.866 779.254 313.515 890.536C326.18 1001.82 316.201 1068.59 316.201 1068.59M334.236 905.505C334.236 905.505 355.53 901.087 365.128 875.376C371.007 859.629 373.073 839.257 373.788 825.845C374.106 819.886 367.193 816.359 362.569 820.125C352.495 828.34 338.575 841.974 332.314 858.58C321.953 886.118 334.236 905.489 334.236 905.489V905.505Z" stroke="#231F20" stroke-linecap="round" stroke-linejoin="round"/>
<path d="M370.244 819.474C370.244 819.474 333.203 881.145 326.561 942.149C319.919 1003.15 322.525 1068.59 322.525 1068.59M252.177 939.13C252.177 939.13 256.357 918.837 235.778 902.152C215.2 885.467 185.707 875.965 178.938 885.61C172.168 895.256 192.89 919.139 213.611 931.947C234.332 944.755 252.177 939.145 252.177 939.145V939.13Z" stroke="#231F20" stroke-linecap="round" stroke-linejoin="round"/>
<path d="M178.922 885.61C178.922 885.61 231.583 910.511 262.665 950.793C293.747 991.092 300.373 1068.61 300.373 1068.61M261.664 1023.89C261.664 1023.89 244.248 1020.58 234.618 1040.58C224.973 1060.58 229.581 1081.87 232.743 1088.79C235.905 1095.7 244.407 1095.41 253.894 1078.57C263.396 1061.73 266.272 1043.75 266.272 1035.68C266.272 1027.61 261.664 1023.87 261.664 1023.87V1023.89Z" stroke="#231F20" stroke-linecap="round" stroke-linejoin="round"/>
<path d="M238.066 1093.01C238.066 1093.01 233.759 1078.87 241.959 1055.85C250.158 1032.82 259.232 1018.87 276.775 1020.73C294.334 1022.6 304.552 1048.98 306.268 1068.61M350.174 987.341C350.174 987.341 341.1 977.696 365.429 960.438C389.757 943.181 410.462 940.162 414.356 944.039C418.249 947.917 406.871 967.049 389.026 975.979C371.181 984.894 358.659 991.091 350.174 987.341Z" stroke="#231F20" stroke-linecap="round" stroke-linejoin="round"/>
<path d="M414.342 944.039C414.342 944.039 383.546 951.079 362.682 970.513C341.817 989.947 323.686 1033.68 327.134 1068.61" stroke="#231F20" stroke-linecap="round" stroke-linejoin="round"/>
<path d="M340.086 1068.61H289.729V1139.05H340.086V1068.61Z" fill="#D39FAB"/>
<path d="M340.086 1068.61H289.729V1139.05H340.086V1068.61Z" stroke="#231F20" stroke-linecap="round" stroke-linejoin="round"/>
<path d="M340.086 1068.61H289.729V1078.58H340.086V1068.61Z" stroke="#231F20" stroke-linecap="round" stroke-linejoin="round"/>
</g>
<defs>
<clipPath id="clip0_4729_12703">
<rect width="760" height="496" fill="white" transform="translate(106 584)"/>
</clipPath>
</defs>
</svg>
