<svg width="972" height="1080" viewBox="0 0 972 1080" fill="none" xmlns="http://www.w3.org/2000/svg">
<rect width="972" height="1080" fill="#F7F5F4"/>
<path d="M197.056 152V149.239C197.056 148.455 197.209 147.653 197.516 146.835C197.823 146.017 198.228 145.246 198.73 144.521C199.233 143.797 199.779 143.192 200.367 142.706L202.77 144.125C202.293 144.875 201.901 145.659 201.594 146.477C201.296 147.295 201.147 148.207 201.147 149.213V152H197.056ZM203.512 152V149.239C203.512 148.455 203.665 147.653 203.972 146.835C204.279 146.017 204.684 145.246 205.186 144.521C205.689 143.797 206.235 143.192 206.823 142.706L209.226 144.125C208.749 144.875 208.357 145.659 208.05 146.477C207.752 147.295 207.603 148.207 207.603 149.213V152H203.512ZM212.537 170V143.818H222.867C224.844 143.818 226.532 144.172 227.929 144.879C229.336 145.578 230.405 146.571 231.138 147.858C231.88 149.136 232.25 150.641 232.25 152.371C232.25 154.109 231.875 155.605 231.125 156.858C230.375 158.102 229.289 159.057 227.865 159.722C226.451 160.386 224.738 160.719 222.726 160.719H215.81V156.27H221.831C222.888 156.27 223.766 156.125 224.465 155.835C225.164 155.545 225.684 155.111 226.025 154.531C226.374 153.952 226.549 153.232 226.549 152.371C226.549 151.501 226.374 150.768 226.025 150.172C225.684 149.575 225.159 149.124 224.452 148.817C223.753 148.501 222.871 148.344 221.806 148.344H218.073V170H212.537ZM226.676 158.085L233.184 170H227.073L220.706 158.085H226.676ZM244.616 170.384C242.63 170.384 240.913 169.962 239.464 169.118C238.023 168.266 236.911 167.081 236.127 165.564C235.343 164.038 234.951 162.27 234.951 160.259C234.951 158.23 235.343 156.457 236.127 154.94C236.911 153.415 238.023 152.23 239.464 151.386C240.913 150.534 242.63 150.108 244.616 150.108C246.602 150.108 248.315 150.534 249.755 151.386C251.204 152.23 252.32 153.415 253.104 154.94C253.888 156.457 254.281 158.23 254.281 160.259C254.281 162.27 253.888 164.038 253.104 165.564C252.32 167.081 251.204 168.266 249.755 169.118C248.315 169.962 246.602 170.384 244.616 170.384ZM244.641 166.165C245.545 166.165 246.299 165.909 246.904 165.398C247.509 164.878 247.965 164.17 248.272 163.276C248.587 162.381 248.745 161.362 248.745 160.22C248.745 159.078 248.587 158.06 248.272 157.165C247.965 156.27 247.509 155.562 246.904 155.043C246.299 154.523 245.545 154.263 244.641 154.263C243.729 154.263 242.962 154.523 242.34 155.043C241.727 155.562 241.262 156.27 240.947 157.165C240.64 158.06 240.487 159.078 240.487 160.22C240.487 161.362 240.64 162.381 240.947 163.276C241.262 164.17 241.727 164.878 242.34 165.398C242.962 165.909 243.729 166.165 244.641 166.165ZM257.924 170V143.818H263.37V153.662H263.536C263.775 153.134 264.12 152.597 264.572 152.051C265.032 151.497 265.629 151.037 266.362 150.67C267.103 150.295 268.023 150.108 269.123 150.108C270.555 150.108 271.876 150.483 273.086 151.233C274.296 151.974 275.263 153.095 275.988 154.595C276.712 156.087 277.075 157.957 277.075 160.207C277.075 162.398 276.721 164.247 276.013 165.756C275.315 167.256 274.36 168.393 273.15 169.169C271.948 169.936 270.602 170.32 269.11 170.32C268.053 170.32 267.154 170.145 266.413 169.795C265.68 169.446 265.079 169.007 264.61 168.479C264.141 167.942 263.783 167.401 263.536 166.855H263.293V170H257.924ZM263.255 160.182C263.255 161.349 263.417 162.368 263.741 163.237C264.065 164.107 264.533 164.784 265.147 165.27C265.761 165.747 266.506 165.986 267.384 165.986C268.271 165.986 269.021 165.743 269.634 165.257C270.248 164.763 270.712 164.081 271.028 163.212C271.352 162.334 271.513 161.324 271.513 160.182C271.513 159.048 271.356 158.051 271.04 157.19C270.725 156.33 270.261 155.656 269.647 155.17C269.033 154.685 268.279 154.442 267.384 154.442C266.498 154.442 265.748 154.676 265.134 155.145C264.529 155.614 264.065 156.278 263.741 157.139C263.417 158 263.255 159.014 263.255 160.182ZM293.301 161.639V150.364H298.747V170H293.518V166.433H293.314C292.87 167.584 292.133 168.509 291.102 169.207C290.079 169.906 288.831 170.256 287.356 170.256C286.044 170.256 284.889 169.957 283.892 169.361C282.895 168.764 282.115 167.916 281.552 166.817C280.998 165.717 280.717 164.401 280.708 162.866V150.364H286.154V161.895C286.163 163.054 286.474 163.97 287.088 164.643C287.701 165.317 288.524 165.653 289.555 165.653C290.211 165.653 290.825 165.504 291.396 165.206C291.967 164.899 292.427 164.447 292.777 163.851C293.135 163.254 293.309 162.517 293.301 161.639ZM319.441 155.963L314.455 156.27C314.37 155.844 314.187 155.46 313.906 155.119C313.624 154.77 313.254 154.493 312.793 154.288C312.342 154.075 311.8 153.969 311.17 153.969C310.326 153.969 309.614 154.148 309.035 154.506C308.455 154.855 308.165 155.324 308.165 155.912C308.165 156.381 308.353 156.777 308.728 157.101C309.103 157.425 309.746 157.685 310.658 157.881L314.212 158.597C316.121 158.989 317.545 159.619 318.482 160.489C319.42 161.358 319.888 162.5 319.888 163.915C319.888 165.202 319.509 166.331 318.751 167.303C318.001 168.274 316.969 169.033 315.657 169.578C314.353 170.115 312.849 170.384 311.144 170.384C308.545 170.384 306.474 169.842 304.931 168.76C303.397 167.669 302.498 166.186 302.234 164.311L307.59 164.03C307.752 164.822 308.144 165.428 308.766 165.845C309.388 166.254 310.185 166.459 311.157 166.459C312.112 166.459 312.879 166.276 313.458 165.909C314.046 165.534 314.344 165.053 314.353 164.464C314.344 163.97 314.136 163.565 313.727 163.25C313.317 162.926 312.687 162.679 311.835 162.509L308.434 161.831C306.516 161.447 305.089 160.783 304.151 159.837C303.222 158.891 302.758 157.685 302.758 156.219C302.758 154.957 303.099 153.871 303.781 152.959C304.471 152.047 305.438 151.344 306.683 150.849C307.935 150.355 309.401 150.108 311.08 150.108C313.56 150.108 315.512 150.632 316.935 151.68C318.367 152.729 319.202 154.156 319.441 155.963ZM333.762 150.364V154.455H321.937V150.364H333.762ZM324.622 145.659H330.068V163.966C330.068 164.469 330.145 164.861 330.298 165.142C330.451 165.415 330.664 165.607 330.937 165.717C331.218 165.828 331.542 165.884 331.909 165.884C332.164 165.884 332.42 165.862 332.676 165.82C332.931 165.768 333.127 165.73 333.264 165.705L334.12 169.757C333.848 169.842 333.464 169.94 332.97 170.051C332.475 170.17 331.875 170.243 331.167 170.268C329.855 170.32 328.704 170.145 327.716 169.744C326.735 169.344 325.973 168.722 325.427 167.878C324.882 167.034 324.613 165.969 324.622 164.682V145.659ZM361.98 155.963L356.994 156.27C356.909 155.844 356.726 155.46 356.445 155.119C356.163 154.77 355.793 154.493 355.332 154.288C354.881 154.075 354.339 153.969 353.709 153.969C352.865 153.969 352.153 154.148 351.574 154.506C350.994 154.855 350.705 155.324 350.705 155.912C350.705 156.381 350.892 156.777 351.267 157.101C351.642 157.425 352.286 157.685 353.197 157.881L356.751 158.597C358.661 158.989 360.084 159.619 361.021 160.489C361.959 161.358 362.428 162.5 362.428 163.915C362.428 165.202 362.048 166.331 361.29 167.303C360.54 168.274 359.509 169.033 358.196 169.578C356.892 170.115 355.388 170.384 353.683 170.384C351.084 170.384 349.013 169.842 347.47 168.76C345.936 167.669 345.037 166.186 344.773 164.311L350.129 164.03C350.291 164.822 350.683 165.428 351.305 165.845C351.928 166.254 352.724 166.459 353.696 166.459C354.651 166.459 355.418 166.276 355.997 165.909C356.585 165.534 356.884 165.053 356.892 164.464C356.884 163.97 356.675 163.565 356.266 163.25C355.857 162.926 355.226 162.679 354.374 162.509L350.973 161.831C349.055 161.447 347.628 160.783 346.69 159.837C345.761 158.891 345.297 157.685 345.297 156.219C345.297 154.957 345.638 153.871 346.32 152.959C347.01 152.047 347.977 151.344 349.222 150.849C350.474 150.355 351.94 150.108 353.619 150.108C356.099 150.108 358.051 150.632 359.474 151.68C360.906 152.729 361.741 154.156 361.98 155.963ZM374.729 170.384C372.718 170.384 370.988 169.957 369.539 169.105C368.098 168.244 366.99 167.051 366.215 165.526C365.448 164 365.064 162.244 365.064 160.259C365.064 158.247 365.452 156.483 366.228 154.966C367.012 153.44 368.124 152.251 369.564 151.399C371.005 150.538 372.718 150.108 374.703 150.108C376.417 150.108 377.917 150.419 379.203 151.041C380.49 151.663 381.509 152.537 382.259 153.662C383.009 154.787 383.422 156.108 383.499 157.625H378.36C378.215 156.645 377.831 155.857 377.209 155.26C376.596 154.655 375.79 154.352 374.793 154.352C373.949 154.352 373.212 154.582 372.581 155.043C371.959 155.494 371.473 156.155 371.124 157.024C370.775 157.893 370.6 158.946 370.6 160.182C370.6 161.435 370.77 162.5 371.111 163.378C371.461 164.256 371.951 164.925 372.581 165.385C373.212 165.845 373.949 166.075 374.793 166.075C375.415 166.075 375.973 165.947 376.468 165.692C376.971 165.436 377.384 165.065 377.708 164.58C378.04 164.085 378.257 163.493 378.36 162.803H383.499C383.414 164.303 383.005 165.624 382.272 166.766C381.547 167.899 380.546 168.786 379.267 169.425C377.989 170.064 376.476 170.384 374.729 170.384ZM392.432 158.648V170H386.986V143.818H392.278V153.828H392.509C392.952 152.669 393.668 151.761 394.656 151.105C395.645 150.44 396.885 150.108 398.376 150.108C399.74 150.108 400.929 150.406 401.943 151.003C402.966 151.591 403.759 152.439 404.321 153.547C404.892 154.646 405.173 155.963 405.165 157.497V170H399.719V158.469C399.727 157.259 399.42 156.317 398.798 155.643C398.185 154.97 397.324 154.634 396.216 154.634C395.474 154.634 394.818 154.791 394.247 155.107C393.685 155.422 393.241 155.882 392.918 156.487C392.602 157.084 392.44 157.804 392.432 158.648ZM418.4 170.384C416.38 170.384 414.641 169.974 413.184 169.156C411.735 168.33 410.618 167.162 409.834 165.653C409.05 164.136 408.658 162.342 408.658 160.271C408.658 158.251 409.05 156.479 409.834 154.953C410.618 153.428 411.722 152.239 413.145 151.386C414.577 150.534 416.256 150.108 418.182 150.108C419.478 150.108 420.684 150.317 421.8 150.734C422.925 151.143 423.905 151.761 424.74 152.588C425.584 153.415 426.24 154.455 426.709 155.707C427.178 156.952 427.412 158.409 427.412 160.08V161.575H410.831V158.2H422.286C422.286 157.416 422.115 156.722 421.775 156.116C421.434 155.511 420.961 155.038 420.355 154.697C419.759 154.348 419.064 154.173 418.272 154.173C417.445 154.173 416.712 154.365 416.073 154.749C415.442 155.124 414.948 155.631 414.59 156.27C414.232 156.901 414.049 157.604 414.04 158.379V161.588C414.04 162.56 414.219 163.399 414.577 164.107C414.944 164.814 415.459 165.359 416.124 165.743C416.789 166.126 417.577 166.318 418.489 166.318C419.094 166.318 419.648 166.233 420.151 166.062C420.654 165.892 421.084 165.636 421.442 165.295C421.8 164.955 422.073 164.537 422.26 164.043L427.297 164.375C427.042 165.585 426.517 166.642 425.725 167.545C424.941 168.44 423.926 169.139 422.682 169.642C421.446 170.136 420.019 170.384 418.4 170.384ZM438.202 170.32C436.711 170.32 435.36 169.936 434.15 169.169C432.948 168.393 431.993 167.256 431.286 165.756C430.587 164.247 430.238 162.398 430.238 160.207C430.238 157.957 430.6 156.087 431.324 154.595C432.049 153.095 433.012 151.974 434.213 151.233C435.424 150.483 436.749 150.108 438.189 150.108C439.289 150.108 440.205 150.295 440.938 150.67C441.679 151.037 442.276 151.497 442.728 152.051C443.188 152.597 443.537 153.134 443.776 153.662H443.942V143.818H449.375V170H444.006V166.855H443.776C443.52 167.401 443.158 167.942 442.689 168.479C442.229 169.007 441.628 169.446 440.887 169.795C440.154 170.145 439.259 170.32 438.202 170.32ZM439.928 165.986C440.806 165.986 441.547 165.747 442.152 165.27C442.766 164.784 443.235 164.107 443.559 163.237C443.891 162.368 444.057 161.349 444.057 160.182C444.057 159.014 443.895 158 443.571 157.139C443.248 156.278 442.779 155.614 442.165 155.145C441.551 154.676 440.806 154.442 439.928 154.442C439.033 154.442 438.279 154.685 437.665 155.17C437.051 155.656 436.587 156.33 436.272 157.19C435.956 158.051 435.799 159.048 435.799 160.182C435.799 161.324 435.956 162.334 436.272 163.212C436.596 164.081 437.06 164.763 437.665 165.257C438.279 165.743 439.033 165.986 439.928 165.986ZM466.445 161.639V150.364H471.891V170H466.663V166.433H466.458C466.015 167.584 465.278 168.509 464.246 169.207C463.224 169.906 461.975 170.256 460.501 170.256C459.188 170.256 458.033 169.957 457.036 169.361C456.039 168.764 455.259 167.916 454.697 166.817C454.143 165.717 453.862 164.401 453.853 162.866V150.364H459.299V161.895C459.308 163.054 459.619 163.97 460.232 164.643C460.846 165.317 461.668 165.653 462.7 165.653C463.356 165.653 463.969 165.504 464.54 165.206C465.112 164.899 465.572 164.447 465.921 163.851C466.279 163.254 466.454 162.517 466.445 161.639ZM481.694 143.818V170H476.248V143.818H481.694ZM486.056 170V150.364H491.502V170H486.056ZM488.792 147.832C487.982 147.832 487.288 147.564 486.708 147.027C486.137 146.482 485.852 145.83 485.852 145.071C485.852 144.321 486.137 143.678 486.708 143.141C487.288 142.595 487.982 142.322 488.792 142.322C489.602 142.322 490.292 142.595 490.863 143.141C491.442 143.678 491.732 144.321 491.732 145.071C491.732 145.83 491.442 146.482 490.863 147.027C490.292 147.564 489.602 147.832 488.792 147.832ZM501.311 158.648V170H495.865V150.364H501.055V153.828H501.285C501.72 152.686 502.449 151.783 503.471 151.118C504.494 150.445 505.734 150.108 507.191 150.108C508.555 150.108 509.744 150.406 510.758 151.003C511.772 151.599 512.561 152.452 513.123 153.56C513.686 154.659 513.967 155.972 513.967 157.497V170H508.521V158.469C508.529 157.267 508.223 156.33 507.6 155.656C506.978 154.974 506.122 154.634 505.031 154.634C504.298 154.634 503.65 154.791 503.088 155.107C502.534 155.422 502.099 155.882 501.784 156.487C501.477 157.084 501.319 157.804 501.311 158.648ZM527.106 177.773C525.342 177.773 523.829 177.53 522.567 177.044C521.315 176.567 520.317 175.915 519.576 175.088C518.835 174.261 518.353 173.332 518.131 172.301L523.168 171.624C523.322 172.016 523.565 172.382 523.897 172.723C524.229 173.064 524.668 173.337 525.214 173.541C525.768 173.754 526.441 173.861 527.234 173.861C528.418 173.861 529.394 173.571 530.161 172.991C530.937 172.42 531.325 171.462 531.325 170.115V166.523H531.094C530.856 167.068 530.498 167.584 530.021 168.07C529.543 168.555 528.93 168.952 528.18 169.259C527.43 169.565 526.535 169.719 525.495 169.719C524.021 169.719 522.678 169.378 521.468 168.696C520.266 168.006 519.308 166.953 518.592 165.538C517.884 164.115 517.531 162.317 517.531 160.143C517.531 157.919 517.893 156.061 518.617 154.57C519.342 153.078 520.305 151.962 521.506 151.22C522.717 150.479 524.042 150.108 525.482 150.108C526.582 150.108 527.502 150.295 528.244 150.67C528.985 151.037 529.582 151.497 530.033 152.051C530.494 152.597 530.847 153.134 531.094 153.662H531.299V150.364H536.707V170.192C536.707 171.862 536.298 173.26 535.479 174.385C534.661 175.51 533.528 176.354 532.079 176.916C530.638 177.487 528.981 177.773 527.106 177.773ZM527.221 165.628C528.099 165.628 528.84 165.411 529.445 164.976C530.059 164.533 530.528 163.902 530.852 163.084C531.184 162.257 531.35 161.268 531.35 160.118C531.35 158.967 531.188 157.97 530.864 157.126C530.54 156.274 530.072 155.614 529.458 155.145C528.844 154.676 528.099 154.442 527.221 154.442C526.326 154.442 525.572 154.685 524.958 155.17C524.344 155.648 523.88 156.312 523.565 157.165C523.249 158.017 523.092 159.001 523.092 160.118C523.092 161.251 523.249 162.232 523.565 163.058C523.888 163.876 524.353 164.511 524.958 164.963C525.572 165.406 526.326 165.628 527.221 165.628ZM554.972 170.371C553.719 170.371 552.603 170.153 551.623 169.719C550.642 169.276 549.867 168.624 549.296 167.763C548.733 166.893 548.452 165.811 548.452 164.516C548.452 163.425 548.652 162.509 549.053 161.767C549.453 161.026 549.999 160.429 550.689 159.977C551.38 159.526 552.164 159.185 553.042 158.955C553.928 158.724 554.857 158.562 555.828 158.469C556.971 158.349 557.891 158.239 558.59 158.136C559.289 158.026 559.796 157.864 560.111 157.651C560.426 157.437 560.584 157.122 560.584 156.705V156.628C560.584 155.818 560.328 155.192 559.817 154.749C559.314 154.305 558.598 154.084 557.669 154.084C556.689 154.084 555.909 154.301 555.33 154.736C554.75 155.162 554.367 155.699 554.179 156.347L549.142 155.938C549.398 154.744 549.901 153.713 550.651 152.844C551.401 151.966 552.368 151.293 553.553 150.824C554.746 150.347 556.127 150.108 557.695 150.108C558.786 150.108 559.83 150.236 560.827 150.491C561.833 150.747 562.723 151.143 563.499 151.68C564.283 152.217 564.901 152.908 565.353 153.751C565.804 154.587 566.03 155.588 566.03 156.756V170H560.865V167.277H560.712C560.397 167.891 559.975 168.432 559.446 168.901C558.918 169.361 558.283 169.723 557.542 169.987C556.8 170.243 555.944 170.371 554.972 170.371ZM556.532 166.612C557.333 166.612 558.04 166.455 558.654 166.139C559.267 165.815 559.749 165.381 560.098 164.835C560.448 164.29 560.623 163.672 560.623 162.982V160.898C560.452 161.009 560.218 161.111 559.919 161.205C559.63 161.29 559.301 161.371 558.935 161.447C558.569 161.516 558.202 161.58 557.836 161.639C557.469 161.69 557.137 161.737 556.838 161.78C556.199 161.874 555.641 162.023 555.164 162.227C554.686 162.432 554.316 162.709 554.051 163.058C553.787 163.399 553.655 163.825 553.655 164.337C553.655 165.078 553.924 165.645 554.461 166.037C555.006 166.42 555.696 166.612 556.532 166.612ZM575.701 158.648V170H570.255V150.364H575.446V153.828H575.676C576.11 152.686 576.839 151.783 577.862 151.118C578.885 150.445 580.125 150.108 581.582 150.108C582.946 150.108 584.135 150.406 585.149 151.003C586.163 151.599 586.951 152.452 587.514 153.56C588.076 154.659 588.358 155.972 588.358 157.497V170H582.912V158.469C582.92 157.267 582.613 156.33 581.991 155.656C581.369 154.974 580.512 154.634 579.422 154.634C578.689 154.634 578.041 154.791 577.478 155.107C576.924 155.422 576.49 155.882 576.174 156.487C575.868 157.084 575.71 157.804 575.701 158.648ZM599.886 170.32C598.394 170.32 597.043 169.936 595.833 169.169C594.631 168.393 593.677 167.256 592.969 165.756C592.271 164.247 591.921 162.398 591.921 160.207C591.921 157.957 592.283 156.087 593.008 154.595C593.732 153.095 594.695 151.974 595.897 151.233C597.107 150.483 598.433 150.108 599.873 150.108C600.972 150.108 601.888 150.295 602.621 150.67C603.363 151.037 603.96 151.497 604.411 152.051C604.871 152.597 605.221 153.134 605.46 153.662H605.626V143.818H611.059V170H605.69V166.855H605.46C605.204 167.401 604.842 167.942 604.373 168.479C603.913 169.007 603.312 169.446 602.57 169.795C601.837 170.145 600.942 170.32 599.886 170.32ZM601.612 165.986C602.489 165.986 603.231 165.747 603.836 165.27C604.45 164.784 604.918 164.107 605.242 163.237C605.575 162.368 605.741 161.349 605.741 160.182C605.741 159.014 605.579 158 605.255 157.139C604.931 156.278 604.462 155.614 603.849 155.145C603.235 154.676 602.489 154.442 601.612 154.442C600.717 154.442 599.962 154.685 599.349 155.17C598.735 155.656 598.271 156.33 597.955 157.19C597.64 158.051 597.482 159.048 597.482 160.182C597.482 161.324 597.64 162.334 597.955 163.212C598.279 164.081 598.744 164.763 599.349 165.257C599.962 165.743 600.717 165.986 601.612 165.986ZM632.741 170.384C630.729 170.384 628.999 169.957 627.55 169.105C626.11 168.244 625.002 167.051 624.227 165.526C623.46 164 623.076 162.244 623.076 160.259C623.076 158.247 623.464 156.483 624.239 154.966C625.023 153.44 626.136 152.251 627.576 151.399C629.016 150.538 630.729 150.108 632.715 150.108C634.428 150.108 635.928 150.419 637.215 151.041C638.502 151.663 639.521 152.537 640.271 153.662C641.021 154.787 641.434 156.108 641.511 157.625H636.371C636.227 156.645 635.843 155.857 635.221 155.26C634.607 154.655 633.802 154.352 632.805 154.352C631.961 154.352 631.224 154.582 630.593 155.043C629.971 155.494 629.485 156.155 629.136 157.024C628.786 157.893 628.612 158.946 628.612 160.182C628.612 161.435 628.782 162.5 629.123 163.378C629.472 164.256 629.962 164.925 630.593 165.385C631.224 165.845 631.961 166.075 632.805 166.075C633.427 166.075 633.985 165.947 634.479 165.692C634.982 165.436 635.396 165.065 635.719 164.58C636.052 164.085 636.269 163.493 636.371 162.803H641.511C641.425 164.303 641.016 165.624 640.283 166.766C639.559 167.899 638.558 168.786 637.279 169.425C636.001 170.064 634.488 170.384 632.741 170.384ZM650.597 170.371C649.344 170.371 648.228 170.153 647.248 169.719C646.267 169.276 645.492 168.624 644.921 167.763C644.358 166.893 644.077 165.811 644.077 164.516C644.077 163.425 644.277 162.509 644.678 161.767C645.078 161.026 645.624 160.429 646.314 159.977C647.005 159.526 647.789 159.185 648.667 158.955C649.553 158.724 650.482 158.562 651.453 158.469C652.596 158.349 653.516 158.239 654.215 158.136C654.914 158.026 655.421 157.864 655.736 157.651C656.051 157.437 656.209 157.122 656.209 156.705V156.628C656.209 155.818 655.953 155.192 655.442 154.749C654.939 154.305 654.223 154.084 653.294 154.084C652.314 154.084 651.534 154.301 650.955 154.736C650.375 155.162 649.992 155.699 649.804 156.347L644.767 155.938C645.023 154.744 645.526 153.713 646.276 152.844C647.026 151.966 647.993 151.293 649.178 150.824C650.371 150.347 651.752 150.108 653.32 150.108C654.411 150.108 655.455 150.236 656.452 150.491C657.458 150.747 658.348 151.143 659.124 151.68C659.908 152.217 660.526 152.908 660.978 153.751C661.429 154.587 661.655 155.588 661.655 156.756V170H656.49V167.277H656.337C656.022 167.891 655.6 168.432 655.071 168.901C654.543 169.361 653.908 169.723 653.167 169.987C652.425 170.243 651.569 170.371 650.597 170.371ZM652.157 166.612C652.958 166.612 653.665 166.455 654.279 166.139C654.892 165.815 655.374 165.381 655.723 164.835C656.073 164.29 656.248 163.672 656.248 162.982V160.898C656.077 161.009 655.843 161.111 655.544 161.205C655.255 161.29 654.926 161.371 654.56 161.447C654.194 161.516 653.827 161.58 653.461 161.639C653.094 161.69 652.762 161.737 652.463 161.78C651.824 161.874 651.266 162.023 650.789 162.227C650.311 162.432 649.941 162.709 649.676 163.058C649.412 163.399 649.28 163.825 649.28 164.337C649.28 165.078 649.549 165.645 650.086 166.037C650.631 166.42 651.321 166.612 652.157 166.612ZM671.326 143.818V170H665.88V143.818H671.326ZM684.638 170.384C682.618 170.384 680.879 169.974 679.422 169.156C677.973 168.33 676.857 167.162 676.072 165.653C675.288 164.136 674.896 162.342 674.896 160.271C674.896 158.251 675.288 156.479 676.072 154.953C676.857 153.428 677.96 152.239 679.384 151.386C680.815 150.534 682.494 150.108 684.42 150.108C685.716 150.108 686.922 150.317 688.038 150.734C689.163 151.143 690.143 151.761 690.979 152.588C691.822 153.415 692.479 154.455 692.947 155.707C693.416 156.952 693.651 158.409 693.651 160.08V161.575H677.07V158.2H688.524C688.524 157.416 688.354 156.722 688.013 156.116C687.672 155.511 687.199 155.038 686.594 154.697C685.997 154.348 685.303 154.173 684.51 154.173C683.683 154.173 682.95 154.365 682.311 154.749C681.68 155.124 681.186 155.631 680.828 156.27C680.47 156.901 680.287 157.604 680.278 158.379V161.588C680.278 162.56 680.457 163.399 680.815 164.107C681.182 164.814 681.697 165.359 682.362 165.743C683.027 166.126 683.815 166.318 684.727 166.318C685.332 166.318 685.886 166.233 686.389 166.062C686.892 165.892 687.322 165.636 687.68 165.295C688.038 164.955 688.311 164.537 688.499 164.043L693.536 164.375C693.28 165.585 692.756 166.642 691.963 167.545C691.179 168.44 690.165 169.139 688.92 169.642C687.685 170.136 686.257 170.384 684.638 170.384ZM702.651 158.648V170H697.205V150.364H702.395V153.828H702.625C703.06 152.686 703.788 151.783 704.811 151.118C705.834 150.445 707.074 150.108 708.531 150.108C709.895 150.108 711.084 150.406 712.098 151.003C713.112 151.599 713.901 152.452 714.463 153.56C715.026 154.659 715.307 155.972 715.307 157.497V170H709.861V158.469C709.869 157.267 709.563 156.33 708.94 155.656C708.318 154.974 707.462 154.634 706.371 154.634C705.638 154.634 704.99 154.791 704.428 155.107C703.874 155.422 703.439 155.882 703.124 156.487C702.817 157.084 702.659 157.804 702.651 158.648ZM726.835 170.32C725.343 170.32 723.993 169.936 722.782 169.169C721.581 168.393 720.626 167.256 719.919 165.756C719.22 164.247 718.87 162.398 718.87 160.207C718.87 157.957 719.233 156.087 719.957 154.595C720.681 153.095 721.645 151.974 722.846 151.233C724.056 150.483 725.382 150.108 726.822 150.108C727.922 150.108 728.838 150.295 729.571 150.67C730.312 151.037 730.909 151.497 731.36 152.051C731.821 152.597 732.17 153.134 732.409 153.662H732.575V143.818H738.008V170H732.639V166.855H732.409C732.153 167.401 731.791 167.942 731.322 168.479C730.862 169.007 730.261 169.446 729.52 169.795C728.787 170.145 727.892 170.32 726.835 170.32ZM728.561 165.986C729.439 165.986 730.18 165.747 730.785 165.27C731.399 164.784 731.868 164.107 732.191 163.237C732.524 162.368 732.69 161.349 732.69 160.182C732.69 159.014 732.528 158 732.204 157.139C731.88 156.278 731.412 155.614 730.798 155.145C730.184 154.676 729.439 154.442 728.561 154.442C727.666 154.442 726.912 154.685 726.298 155.17C725.684 155.656 725.22 156.33 724.904 157.19C724.589 158.051 724.431 159.048 724.431 160.182C724.431 161.324 724.589 162.334 724.904 163.212C725.228 164.081 725.693 164.763 726.298 165.257C726.912 165.743 727.666 165.986 728.561 165.986ZM748.085 170.371C746.832 170.371 745.716 170.153 744.736 169.719C743.756 169.276 742.98 168.624 742.409 167.763C741.847 166.893 741.565 165.811 741.565 164.516C741.565 163.425 741.766 162.509 742.166 161.767C742.567 161.026 743.112 160.429 743.803 159.977C744.493 159.526 745.277 159.185 746.155 158.955C747.041 158.724 747.97 158.562 748.942 158.469C750.084 158.349 751.004 158.239 751.703 158.136C752.402 158.026 752.909 157.864 753.224 157.651C753.54 157.437 753.697 157.122 753.697 156.705V156.628C753.697 155.818 753.442 155.192 752.93 154.749C752.428 154.305 751.712 154.084 750.783 154.084C749.803 154.084 749.023 154.301 748.443 154.736C747.864 155.162 747.48 155.699 747.293 156.347L742.256 155.938C742.511 154.744 743.014 153.713 743.764 152.844C744.514 151.966 745.482 151.293 746.666 150.824C747.859 150.347 749.24 150.108 750.808 150.108C751.899 150.108 752.943 150.236 753.94 150.491C754.946 150.747 755.837 151.143 756.612 151.68C757.396 152.217 758.014 152.908 758.466 153.751C758.918 154.587 759.143 155.588 759.143 156.756V170H753.979V167.277H753.825C753.51 167.891 753.088 168.432 752.56 168.901C752.031 169.361 751.396 169.723 750.655 169.987C749.913 170.243 749.057 170.371 748.085 170.371ZM749.645 166.612C750.446 166.612 751.153 166.455 751.767 166.139C752.381 165.815 752.862 165.381 753.212 164.835C753.561 164.29 753.736 163.672 753.736 162.982V160.898C753.565 161.009 753.331 161.111 753.033 161.205C752.743 161.29 752.415 161.371 752.048 161.447C751.682 161.516 751.315 161.58 750.949 161.639C750.582 161.69 750.25 161.737 749.952 161.78C749.313 161.874 748.754 162.023 748.277 162.227C747.8 162.432 747.429 162.709 747.165 163.058C746.901 163.399 746.768 163.825 746.768 164.337C746.768 165.078 747.037 165.645 747.574 166.037C748.119 166.42 748.81 166.612 749.645 166.612ZM763.369 170V150.364H768.648V153.79H768.853C769.211 152.571 769.812 151.651 770.656 151.028C771.499 150.398 772.471 150.082 773.57 150.082C773.843 150.082 774.137 150.099 774.452 150.134C774.768 150.168 775.045 150.214 775.283 150.274V155.107C775.028 155.03 774.674 154.962 774.222 154.902C773.771 154.842 773.357 154.812 772.982 154.812C772.181 154.812 771.465 154.987 770.835 155.337C770.212 155.678 769.718 156.155 769.352 156.768C768.994 157.382 768.815 158.089 768.815 158.891V170H763.369ZM273.936 210.364V214.455H261.817V210.364H273.936ZM264.591 230V208.945C264.591 207.521 264.868 206.341 265.422 205.403C265.984 204.466 266.751 203.763 267.723 203.294C268.695 202.825 269.798 202.591 271.034 202.591C271.869 202.591 272.632 202.655 273.322 202.783C274.021 202.911 274.541 203.026 274.882 203.128L273.911 207.219C273.697 207.151 273.433 207.087 273.118 207.027C272.811 206.967 272.496 206.938 272.172 206.938C271.371 206.938 270.812 207.125 270.497 207.5C270.182 207.866 270.024 208.382 270.024 209.047V230H264.591ZM285.509 230.384C283.489 230.384 281.75 229.974 280.293 229.156C278.844 228.33 277.728 227.162 276.944 225.653C276.159 224.136 275.767 222.342 275.767 220.271C275.767 218.251 276.159 216.479 276.944 214.953C277.728 213.428 278.831 212.239 280.255 211.386C281.686 210.534 283.365 210.108 285.292 210.108C286.587 210.108 287.793 210.317 288.909 210.734C290.034 211.143 291.015 211.761 291.85 212.588C292.694 213.415 293.35 214.455 293.819 215.707C294.287 216.952 294.522 218.409 294.522 220.08V221.575H277.941V218.2H289.395C289.395 217.416 289.225 216.722 288.884 216.116C288.543 215.511 288.07 215.038 287.465 214.697C286.868 214.348 286.174 214.173 285.381 214.173C284.554 214.173 283.821 214.365 283.182 214.749C282.551 215.124 282.057 215.631 281.699 216.27C281.341 216.901 281.158 217.604 281.15 218.379V221.588C281.15 222.56 281.328 223.399 281.686 224.107C282.053 224.814 282.569 225.359 283.233 225.743C283.898 226.126 284.686 226.318 285.598 226.318C286.203 226.318 286.757 226.233 287.26 226.062C287.763 225.892 288.194 225.636 288.551 225.295C288.909 224.955 289.182 224.537 289.37 224.043L294.407 224.375C294.151 225.585 293.627 226.642 292.834 227.545C292.05 228.44 291.036 229.139 289.792 229.642C288.556 230.136 287.128 230.384 285.509 230.384ZM303.675 230.371C302.422 230.371 301.306 230.153 300.326 229.719C299.346 229.276 298.57 228.624 297.999 227.763C297.436 226.893 297.155 225.811 297.155 224.516C297.155 223.425 297.355 222.509 297.756 221.767C298.157 221.026 298.702 220.429 299.392 219.977C300.083 219.526 300.867 219.185 301.745 218.955C302.631 218.724 303.56 218.562 304.532 218.469C305.674 218.349 306.594 218.239 307.293 218.136C307.992 218.026 308.499 217.864 308.814 217.651C309.13 217.437 309.287 217.122 309.287 216.705V216.628C309.287 215.818 309.032 215.192 308.52 214.749C308.017 214.305 307.301 214.084 306.373 214.084C305.392 214.084 304.613 214.301 304.033 214.736C303.453 215.162 303.07 215.699 302.882 216.347L297.846 215.938C298.101 214.744 298.604 213.713 299.354 212.844C300.104 211.966 301.071 211.293 302.256 210.824C303.449 210.347 304.83 210.108 306.398 210.108C307.489 210.108 308.533 210.236 309.53 210.491C310.536 210.747 311.426 211.143 312.202 211.68C312.986 212.217 313.604 212.908 314.056 213.751C314.507 214.587 314.733 215.588 314.733 216.756V230H309.569V227.277H309.415C309.1 227.891 308.678 228.432 308.15 228.901C307.621 229.361 306.986 229.723 306.245 229.987C305.503 230.243 304.647 230.371 303.675 230.371ZM305.235 226.612C306.036 226.612 306.743 226.455 307.357 226.139C307.971 225.815 308.452 225.381 308.801 224.835C309.151 224.29 309.326 223.672 309.326 222.982V220.898C309.155 221.009 308.921 221.111 308.623 221.205C308.333 221.29 308.005 221.371 307.638 221.447C307.272 221.516 306.905 221.58 306.539 221.639C306.172 221.69 305.84 221.737 305.542 221.78C304.902 221.874 304.344 222.023 303.867 222.227C303.39 222.432 303.019 222.709 302.755 223.058C302.49 223.399 302.358 223.825 302.358 224.337C302.358 225.078 302.627 225.645 303.164 226.037C303.709 226.42 304.4 226.612 305.235 226.612ZM329.403 210.364V214.455H317.578V210.364H329.403ZM320.262 205.659H325.708V223.966C325.708 224.469 325.785 224.861 325.939 225.142C326.092 225.415 326.305 225.607 326.578 225.717C326.859 225.828 327.183 225.884 327.549 225.884C327.805 225.884 328.061 225.862 328.316 225.82C328.572 225.768 328.768 225.73 328.904 225.705L329.761 229.757C329.488 229.842 329.105 229.94 328.61 230.051C328.116 230.17 327.515 230.243 326.808 230.268C325.495 230.32 324.345 230.145 323.356 229.744C322.376 229.344 321.613 228.722 321.068 227.878C320.522 227.034 320.254 225.969 320.262 224.682V205.659ZM345.543 221.639V210.364H350.989V230H345.76V226.433H345.556C345.113 227.584 344.375 228.509 343.344 229.207C342.321 229.906 341.073 230.256 339.598 230.256C338.286 230.256 337.131 229.957 336.134 229.361C335.137 228.764 334.357 227.916 333.794 226.817C333.24 225.717 332.959 224.401 332.951 222.866V210.364H338.397V221.895C338.405 223.054 338.716 223.97 339.33 224.643C339.944 225.317 340.766 225.653 341.797 225.653C342.453 225.653 343.067 225.504 343.638 225.206C344.209 224.899 344.669 224.447 345.019 223.851C345.377 223.254 345.551 222.517 345.543 221.639ZM355.345 230V210.364H360.625V213.79H360.83C361.188 212.571 361.788 211.651 362.632 211.028C363.476 210.398 364.447 210.082 365.547 210.082C365.82 210.082 366.114 210.099 366.429 210.134C366.744 210.168 367.021 210.214 367.26 210.274V215.107C367.004 215.03 366.651 214.962 366.199 214.902C365.747 214.842 365.334 214.812 364.959 214.812C364.158 214.812 363.442 214.987 362.811 215.337C362.189 215.678 361.695 216.155 361.328 216.768C360.97 217.382 360.791 218.089 360.791 218.891V230H355.345ZM378.11 230.384C376.091 230.384 374.352 229.974 372.895 229.156C371.446 228.33 370.329 227.162 369.545 225.653C368.761 224.136 368.369 222.342 368.369 220.271C368.369 218.251 368.761 216.479 369.545 214.953C370.329 213.428 371.433 212.239 372.856 211.386C374.288 210.534 375.967 210.108 377.893 210.108C379.189 210.108 380.395 210.317 381.511 210.734C382.636 211.143 383.616 211.761 384.451 212.588C385.295 213.415 385.951 214.455 386.42 215.707C386.889 216.952 387.123 218.409 387.123 220.08V221.575H370.542V218.2H381.997C381.997 217.416 381.826 216.722 381.485 216.116C381.145 215.511 380.672 215.038 380.066 214.697C379.47 214.348 378.775 214.173 377.983 214.173C377.156 214.173 376.423 214.365 375.784 214.749C375.153 215.124 374.659 215.631 374.301 216.27C373.943 216.901 373.76 217.604 373.751 218.379V221.588C373.751 222.56 373.93 223.399 374.288 224.107C374.654 224.814 375.17 225.359 375.835 225.743C376.5 226.126 377.288 226.318 378.2 226.318C378.805 226.318 379.359 226.233 379.862 226.062C380.365 225.892 380.795 225.636 381.153 225.295C381.511 224.955 381.784 224.537 381.971 224.043L387.008 224.375C386.752 225.585 386.228 226.642 385.436 227.545C384.652 228.44 383.637 229.139 382.393 229.642C381.157 230.136 379.73 230.384 378.11 230.384ZM407.015 215.963L402.029 216.27C401.944 215.844 401.761 215.46 401.48 215.119C401.199 214.77 400.828 214.493 400.368 214.288C399.916 214.075 399.375 213.969 398.744 213.969C397.9 213.969 397.189 214.148 396.609 214.506C396.029 214.855 395.74 215.324 395.74 215.912C395.74 216.381 395.927 216.777 396.302 217.101C396.677 217.425 397.321 217.685 398.233 217.881L401.787 218.597C403.696 218.989 405.119 219.619 406.056 220.489C406.994 221.358 407.463 222.5 407.463 223.915C407.463 225.202 407.083 226.331 406.325 227.303C405.575 228.274 404.544 229.033 403.231 229.578C401.927 230.115 400.423 230.384 398.718 230.384C396.119 230.384 394.048 229.842 392.505 228.76C390.971 227.669 390.072 226.186 389.808 224.311L395.164 224.03C395.326 224.822 395.718 225.428 396.341 225.845C396.963 226.254 397.76 226.459 398.731 226.459C399.686 226.459 400.453 226.276 401.032 225.909C401.62 225.534 401.919 225.053 401.927 224.464C401.919 223.97 401.71 223.565 401.301 223.25C400.892 222.926 400.261 222.679 399.409 222.509L396.008 221.831C394.091 221.447 392.663 220.783 391.725 219.837C390.797 218.891 390.332 217.685 390.332 216.219C390.332 214.957 390.673 213.871 391.355 212.959C392.045 212.047 393.012 211.344 394.257 210.849C395.51 210.355 396.975 210.108 398.654 210.108C401.135 210.108 403.086 210.632 404.51 211.68C405.941 212.729 406.777 214.156 407.015 215.963ZM429.784 210.364V214.455H417.664V210.364H429.784ZM420.439 230V208.945C420.439 207.521 420.716 206.341 421.27 205.403C421.832 204.466 422.599 203.763 423.571 203.294C424.542 202.825 425.646 202.591 426.882 202.591C427.717 202.591 428.48 202.655 429.17 202.783C429.869 202.911 430.389 203.026 430.73 203.128L429.758 207.219C429.545 207.151 429.281 207.087 428.966 207.027C428.659 206.967 428.343 206.938 428.02 206.938C427.218 206.938 426.66 207.125 426.345 207.5C426.029 207.866 425.872 208.382 425.872 209.047V230H420.439ZM441.28 230.384C439.294 230.384 437.577 229.962 436.128 229.118C434.688 228.266 433.575 227.081 432.791 225.564C432.007 224.038 431.615 222.27 431.615 220.259C431.615 218.23 432.007 216.457 432.791 214.94C433.575 213.415 434.688 212.23 436.128 211.386C437.577 210.534 439.294 210.108 441.28 210.108C443.266 210.108 444.979 210.534 446.419 211.386C447.868 212.23 448.984 213.415 449.768 214.94C450.553 216.457 450.945 218.23 450.945 220.259C450.945 222.27 450.553 224.038 449.768 225.564C448.984 227.081 447.868 228.266 446.419 229.118C444.979 229.962 443.266 230.384 441.28 230.384ZM441.305 226.165C442.209 226.165 442.963 225.909 443.568 225.398C444.173 224.878 444.629 224.17 444.936 223.276C445.251 222.381 445.409 221.362 445.409 220.22C445.409 219.078 445.251 218.06 444.936 217.165C444.629 216.27 444.173 215.562 443.568 215.043C442.963 214.523 442.209 214.263 441.305 214.263C440.393 214.263 439.626 214.523 439.004 215.043C438.391 215.562 437.926 216.27 437.611 217.165C437.304 218.06 437.151 219.078 437.151 220.22C437.151 221.362 437.304 222.381 437.611 223.276C437.926 224.17 438.391 224.878 439.004 225.398C439.626 225.909 440.393 226.165 441.305 226.165ZM454.486 230V210.364H459.766V213.79H459.97C460.328 212.571 460.929 211.651 461.773 211.028C462.616 210.398 463.588 210.082 464.688 210.082C464.96 210.082 465.254 210.099 465.57 210.134C465.885 210.168 466.162 210.214 466.401 210.274V215.107C466.145 215.03 465.791 214.962 465.339 214.902C464.888 214.842 464.474 214.812 464.099 214.812C463.298 214.812 462.582 214.987 461.952 215.337C461.33 215.678 460.835 216.155 460.469 216.768C460.111 217.382 459.932 218.089 459.932 218.891V230H454.486ZM486.497 230.384C484.477 230.384 482.739 229.974 481.281 229.156C479.832 228.33 478.716 227.162 477.932 225.653C477.148 224.136 476.756 222.342 476.756 220.271C476.756 218.251 477.148 216.479 477.932 214.953C478.716 213.428 479.82 212.239 481.243 211.386C482.675 210.534 484.354 210.108 486.28 210.108C487.575 210.108 488.781 210.317 489.898 210.734C491.023 211.143 492.003 211.761 492.838 212.588C493.682 213.415 494.338 214.455 494.807 215.707C495.276 216.952 495.51 218.409 495.51 220.08V221.575H478.929V218.2H490.384C490.384 217.416 490.213 216.722 489.872 216.116C489.531 215.511 489.058 215.038 488.453 214.697C487.857 214.348 487.162 214.173 486.369 214.173C485.543 214.173 484.81 214.365 484.17 214.749C483.54 215.124 483.045 215.631 482.688 216.27C482.33 216.901 482.146 217.604 482.138 218.379V221.588C482.138 222.56 482.317 223.399 482.675 224.107C483.041 224.814 483.557 225.359 484.222 225.743C484.886 226.126 485.675 226.318 486.587 226.318C487.192 226.318 487.746 226.233 488.249 226.062C488.751 225.892 489.182 225.636 489.54 225.295C489.898 224.955 490.17 224.537 490.358 224.043L495.395 224.375C495.139 225.585 494.615 226.642 493.822 227.545C493.038 228.44 492.024 229.139 490.78 229.642C489.544 230.136 488.116 230.384 486.497 230.384ZM509.624 210.364V214.455H497.504V210.364H509.624ZM500.278 230V208.945C500.278 207.521 500.555 206.341 501.109 205.403C501.672 204.466 502.439 203.763 503.411 203.294C504.382 202.825 505.486 202.591 506.722 202.591C507.557 202.591 508.32 202.655 509.01 202.783C509.709 202.911 510.229 203.026 510.57 203.128L509.598 207.219C509.385 207.151 509.121 207.087 508.805 207.027C508.499 206.967 508.183 206.938 507.859 206.938C507.058 206.938 506.5 207.125 506.185 207.5C505.869 207.866 505.712 208.382 505.712 209.047V230H500.278ZM523.51 210.364V214.455H511.391V210.364H523.51ZM514.165 230V208.945C514.165 207.521 514.442 206.341 514.996 205.403C515.559 204.466 516.326 203.763 517.297 203.294C518.269 202.825 519.373 202.591 520.608 202.591C521.444 202.591 522.206 202.655 522.897 202.783C523.596 202.911 524.115 203.026 524.456 203.128L523.485 207.219C523.272 207.151 523.007 207.087 522.692 207.027C522.385 206.967 522.07 206.938 521.746 206.938C520.945 206.938 520.387 207.125 520.071 207.5C519.756 207.866 519.598 208.382 519.598 209.047V230H514.165ZM526.837 230V210.364H532.283V230H526.837ZM529.573 207.832C528.763 207.832 528.069 207.564 527.489 207.027C526.918 206.482 526.633 205.83 526.633 205.071C526.633 204.321 526.918 203.678 527.489 203.141C528.069 202.595 528.763 202.322 529.573 202.322C530.383 202.322 531.073 202.595 531.644 203.141C532.224 203.678 532.513 204.321 532.513 205.071C532.513 205.83 532.224 206.482 531.644 207.027C531.073 207.564 530.383 207.832 529.573 207.832ZM545.518 230.384C543.507 230.384 541.777 229.957 540.328 229.105C538.887 228.244 537.779 227.051 537.004 225.526C536.237 224 535.853 222.244 535.853 220.259C535.853 218.247 536.241 216.483 537.017 214.966C537.801 213.44 538.913 212.251 540.353 211.399C541.794 210.538 543.507 210.108 545.493 210.108C547.206 210.108 548.706 210.419 549.993 211.041C551.279 211.663 552.298 212.537 553.048 213.662C553.798 214.787 554.211 216.108 554.288 217.625H549.149C549.004 216.645 548.62 215.857 547.998 215.26C547.385 214.655 546.579 214.352 545.582 214.352C544.738 214.352 544.001 214.582 543.37 215.043C542.748 215.494 542.262 216.155 541.913 217.024C541.564 217.893 541.389 218.946 541.389 220.182C541.389 221.435 541.559 222.5 541.9 223.378C542.25 224.256 542.74 224.925 543.37 225.385C544.001 225.845 544.738 226.075 545.582 226.075C546.204 226.075 546.762 225.947 547.257 225.692C547.76 225.436 548.173 225.065 548.497 224.58C548.829 224.085 549.047 223.493 549.149 222.803H554.288C554.203 224.303 553.794 225.624 553.061 226.766C552.336 227.899 551.335 228.786 550.056 229.425C548.778 230.064 547.265 230.384 545.518 230.384ZM557.775 230V210.364H563.221V230H557.775ZM560.511 207.832C559.701 207.832 559.006 207.564 558.427 207.027C557.856 206.482 557.57 205.83 557.57 205.071C557.57 204.321 557.856 203.678 558.427 203.141C559.006 202.595 559.701 202.322 560.511 202.322C561.32 202.322 562.011 202.595 562.582 203.141C563.161 203.678 563.451 204.321 563.451 205.071C563.451 205.83 563.161 206.482 562.582 207.027C562.011 207.564 561.32 207.832 560.511 207.832ZM576.532 230.384C574.512 230.384 572.774 229.974 571.316 229.156C569.868 228.33 568.751 227.162 567.967 225.653C567.183 224.136 566.791 222.342 566.791 220.271C566.791 218.251 567.183 216.479 567.967 214.953C568.751 213.428 569.855 212.239 571.278 211.386C572.71 210.534 574.389 210.108 576.315 210.108C577.61 210.108 578.816 210.317 579.933 210.734C581.058 211.143 582.038 211.761 582.873 212.588C583.717 213.415 584.373 214.455 584.842 215.707C585.311 216.952 585.545 218.409 585.545 220.08V221.575H568.964V218.2H580.419C580.419 217.416 580.248 216.722 579.907 216.116C579.566 215.511 579.093 215.038 578.488 214.697C577.892 214.348 577.197 214.173 576.404 214.173C575.578 214.173 574.845 214.365 574.206 214.749C573.575 215.124 573.081 215.631 572.723 216.27C572.365 216.901 572.181 217.604 572.173 218.379V221.588C572.173 222.56 572.352 223.399 572.71 224.107C573.076 224.814 573.592 225.359 574.257 225.743C574.922 226.126 575.71 226.318 576.622 226.318C577.227 226.318 577.781 226.233 578.284 226.062C578.787 225.892 579.217 225.636 579.575 225.295C579.933 224.955 580.206 224.537 580.393 224.043L585.43 224.375C585.174 225.585 584.65 226.642 583.858 227.545C583.074 228.44 582.059 229.139 580.815 229.642C579.579 230.136 578.152 230.384 576.532 230.384ZM594.545 218.648V230H589.099V210.364H594.289V213.828H594.52C594.954 212.686 595.683 211.783 596.706 211.118C597.728 210.445 598.968 210.108 600.426 210.108C601.789 210.108 602.978 210.406 603.993 211.003C605.007 211.599 605.795 212.452 606.358 213.56C606.92 214.659 607.201 215.972 607.201 217.497V230H601.755V218.469C601.764 217.267 601.457 216.33 600.835 215.656C600.213 214.974 599.356 214.634 598.265 214.634C597.532 214.634 596.885 214.791 596.322 215.107C595.768 215.422 595.333 215.882 595.018 216.487C594.711 217.084 594.554 217.804 594.545 218.648ZM621.938 210.364V214.455H610.113V210.364H621.938ZM612.798 205.659H618.244V223.966C618.244 224.469 618.32 224.861 618.474 225.142C618.627 225.415 618.84 225.607 619.113 225.717C619.394 225.828 619.718 225.884 620.085 225.884C620.34 225.884 620.596 225.862 620.852 225.82C621.107 225.768 621.303 225.73 621.44 225.705L622.296 229.757C622.023 229.842 621.64 229.94 621.146 230.051C620.651 230.17 620.05 230.243 619.343 230.268C618.031 230.32 616.88 230.145 615.891 229.744C614.911 229.344 614.148 228.722 613.603 227.878C613.058 227.034 612.789 225.969 612.798 224.682V205.659ZM644.262 210.364V214.455H632.437V210.364H644.262ZM635.122 205.659H640.568V223.966C640.568 224.469 640.645 224.861 640.798 225.142C640.951 225.415 641.164 225.607 641.437 225.717C641.718 225.828 642.042 225.884 642.409 225.884C642.664 225.884 642.92 225.862 643.176 225.82C643.431 225.768 643.627 225.73 643.764 225.705L644.62 229.757C644.348 229.842 643.964 229.94 643.47 230.051C642.975 230.17 642.375 230.243 641.667 230.268C640.355 230.32 639.204 230.145 638.216 229.744C637.235 229.344 636.473 228.722 635.927 227.878C635.382 227.034 635.113 225.969 635.122 224.682V205.659ZM647.81 230V210.364H653.256V230H647.81ZM650.546 207.832C649.736 207.832 649.042 207.564 648.462 207.027C647.891 206.482 647.605 205.83 647.605 205.071C647.605 204.321 647.891 203.678 648.462 203.141C649.042 202.595 649.736 202.322 650.546 202.322C651.355 202.322 652.046 202.595 652.617 203.141C653.196 203.678 653.486 204.321 653.486 205.071C653.486 205.83 653.196 206.482 652.617 207.027C652.046 207.564 651.355 207.832 650.546 207.832ZM657.619 230V210.364H662.809V213.828H663.039C663.448 212.678 664.13 211.77 665.085 211.105C666.039 210.44 667.181 210.108 668.511 210.108C669.857 210.108 671.004 210.445 671.95 211.118C672.896 211.783 673.526 212.686 673.842 213.828H674.046C674.447 212.703 675.171 211.804 676.219 211.131C677.276 210.449 678.525 210.108 679.965 210.108C681.798 210.108 683.285 210.692 684.427 211.859C685.577 213.018 686.153 214.663 686.153 216.794V230H680.719V217.868C680.719 216.777 680.43 215.959 679.85 215.413C679.271 214.868 678.546 214.595 677.677 214.595C676.688 214.595 675.917 214.911 675.363 215.541C674.809 216.163 674.532 216.986 674.532 218.009V230H669.252V217.753C669.252 216.79 668.975 216.023 668.421 215.452C667.876 214.881 667.156 214.595 666.261 214.595C665.656 214.595 665.11 214.749 664.624 215.055C664.147 215.354 663.768 215.776 663.487 216.321C663.205 216.858 663.065 217.489 663.065 218.213V230H657.619ZM699.403 230.384C697.384 230.384 695.645 229.974 694.188 229.156C692.739 228.33 691.622 227.162 690.838 225.653C690.054 224.136 689.662 222.342 689.662 220.271C689.662 218.251 690.054 216.479 690.838 214.953C691.622 213.428 692.726 212.239 694.149 211.386C695.581 210.534 697.26 210.108 699.186 210.108C700.482 210.108 701.688 210.317 702.804 210.734C703.929 211.143 704.909 211.761 705.744 212.588C706.588 213.415 707.244 214.455 707.713 215.707C708.182 216.952 708.416 218.409 708.416 220.08V221.575H691.835V218.2H703.29C703.29 217.416 703.119 216.722 702.778 216.116C702.438 215.511 701.964 215.038 701.359 214.697C700.763 214.348 700.068 214.173 699.276 214.173C698.449 214.173 697.716 214.365 697.077 214.749C696.446 215.124 695.952 215.631 695.594 216.27C695.236 216.901 695.053 217.604 695.044 218.379V221.588C695.044 222.56 695.223 223.399 695.581 224.107C695.947 224.814 696.463 225.359 697.128 225.743C697.793 226.126 698.581 226.318 699.493 226.318C700.098 226.318 700.652 226.233 701.155 226.062C701.658 225.892 702.088 225.636 702.446 225.295C702.804 224.955 703.077 224.537 703.264 224.043L708.301 224.375C708.045 225.585 707.521 226.642 706.729 227.545C705.945 228.44 704.93 229.139 703.686 229.642C702.45 230.136 701.023 230.384 699.403 230.384ZM363.642 290V270.364H368.832V273.828H369.062C369.472 272.678 370.153 271.77 371.108 271.105C372.062 270.44 373.205 270.108 374.534 270.108C375.881 270.108 377.027 270.445 377.973 271.118C378.919 271.783 379.55 272.686 379.865 273.828H380.07C380.47 272.703 381.195 271.804 382.243 271.131C383.3 270.449 384.548 270.108 385.989 270.108C387.821 270.108 389.308 270.692 390.45 271.859C391.601 273.018 392.176 274.663 392.176 276.794V290H386.743V277.868C386.743 276.777 386.453 275.959 385.874 275.413C385.294 274.868 384.57 274.595 383.7 274.595C382.712 274.595 381.94 274.911 381.386 275.541C380.832 276.163 380.555 276.986 380.555 278.009V290H375.276V277.753C375.276 276.79 374.999 276.023 374.445 275.452C373.899 274.881 373.179 274.595 372.284 274.595C371.679 274.595 371.134 274.749 370.648 275.055C370.17 275.354 369.791 275.776 369.51 276.321C369.229 276.858 369.088 277.489 369.088 278.213V290H363.642ZM402.077 290.371C400.825 290.371 399.708 290.153 398.728 289.719C397.748 289.276 396.972 288.624 396.401 287.763C395.839 286.893 395.558 285.811 395.558 284.516C395.558 283.425 395.758 282.509 396.158 281.767C396.559 281.026 397.104 280.429 397.795 279.977C398.485 279.526 399.269 279.185 400.147 278.955C401.033 278.724 401.962 278.562 402.934 278.469C404.076 278.349 404.996 278.239 405.695 278.136C406.394 278.026 406.901 277.864 407.217 277.651C407.532 277.437 407.69 277.122 407.69 276.705V276.628C407.69 275.818 407.434 275.192 406.923 274.749C406.42 274.305 405.704 274.084 404.775 274.084C403.795 274.084 403.015 274.301 402.435 274.736C401.856 275.162 401.472 275.699 401.285 276.347L396.248 275.938C396.504 274.744 397.006 273.713 397.756 272.844C398.506 271.966 399.474 271.293 400.658 270.824C401.852 270.347 403.232 270.108 404.8 270.108C405.891 270.108 406.935 270.236 407.933 270.491C408.938 270.747 409.829 271.143 410.604 271.68C411.388 272.217 412.006 272.908 412.458 273.751C412.91 274.587 413.136 275.588 413.136 276.756V290H407.971V287.277H407.817C407.502 287.891 407.08 288.432 406.552 288.901C406.023 289.361 405.388 289.723 404.647 289.987C403.906 290.243 403.049 290.371 402.077 290.371ZM403.637 286.612C404.438 286.612 405.146 286.455 405.759 286.139C406.373 285.815 406.854 285.381 407.204 284.835C407.553 284.29 407.728 283.672 407.728 282.982V280.898C407.558 281.009 407.323 281.111 407.025 281.205C406.735 281.29 406.407 281.371 406.04 281.447C405.674 281.516 405.308 281.58 404.941 281.639C404.575 281.69 404.242 281.737 403.944 281.78C403.305 281.874 402.746 282.023 402.269 282.227C401.792 282.432 401.421 282.709 401.157 283.058C400.893 283.399 400.761 283.825 400.761 284.337C400.761 285.078 401.029 285.645 401.566 286.037C402.112 286.42 402.802 286.612 403.637 286.612ZM422.807 278.648V290H417.361V270.364H422.551V273.828H422.781C423.216 272.686 423.945 271.783 424.967 271.118C425.99 270.445 427.23 270.108 428.688 270.108C430.051 270.108 431.24 270.406 432.254 271.003C433.268 271.599 434.057 272.452 434.619 273.56C435.182 274.659 435.463 275.972 435.463 277.497V290H430.017V278.469C430.026 277.267 429.719 276.33 429.097 275.656C428.474 274.974 427.618 274.634 426.527 274.634C425.794 274.634 425.146 274.791 424.584 275.107C424.03 275.422 423.595 275.882 423.28 276.487C422.973 277.084 422.815 277.804 422.807 278.648ZM445.355 290.371C444.102 290.371 442.985 290.153 442.005 289.719C441.025 289.276 440.25 288.624 439.679 287.763C439.116 286.893 438.835 285.811 438.835 284.516C438.835 283.425 439.035 282.509 439.436 281.767C439.836 281.026 440.382 280.429 441.072 279.977C441.762 279.526 442.547 279.185 443.424 278.955C444.311 278.724 445.24 278.562 446.211 278.469C447.353 278.349 448.274 278.239 448.973 278.136C449.672 278.026 450.179 277.864 450.494 277.651C450.809 277.437 450.967 277.122 450.967 276.705V276.628C450.967 275.818 450.711 275.192 450.2 274.749C449.697 274.305 448.981 274.084 448.052 274.084C447.072 274.084 446.292 274.301 445.713 274.736C445.133 275.162 444.75 275.699 444.562 276.347L439.525 275.938C439.781 274.744 440.284 273.713 441.034 272.844C441.784 271.966 442.751 271.293 443.936 270.824C445.129 270.347 446.51 270.108 448.078 270.108C449.169 270.108 450.213 270.236 451.21 270.491C452.216 270.747 453.106 271.143 453.882 271.68C454.666 272.217 455.284 272.908 455.735 273.751C456.187 274.587 456.413 275.588 456.413 276.756V290H451.248V287.277H451.095C450.779 287.891 450.358 288.432 449.829 288.901C449.301 289.361 448.666 289.723 447.924 289.987C447.183 290.243 446.326 290.371 445.355 290.371ZM446.914 286.612C447.716 286.612 448.423 286.455 449.037 286.139C449.65 285.815 450.132 285.381 450.481 284.835C450.831 284.29 451.005 283.672 451.005 282.982V280.898C450.835 281.009 450.6 281.111 450.302 281.205C450.012 281.29 449.684 281.371 449.318 281.447C448.951 281.516 448.585 281.58 448.218 281.639C447.852 281.69 447.52 281.737 447.221 281.78C446.582 281.874 446.024 282.023 445.547 282.227C445.069 282.432 444.699 282.709 444.434 283.058C444.17 283.399 444.038 283.825 444.038 284.337C444.038 285.078 444.306 285.645 444.843 286.037C445.389 286.42 446.079 286.612 446.914 286.612ZM469.485 297.773C467.721 297.773 466.208 297.53 464.946 297.044C463.694 296.567 462.696 295.915 461.955 295.088C461.213 294.261 460.732 293.332 460.51 292.301L465.547 291.624C465.701 292.016 465.944 292.382 466.276 292.723C466.608 293.064 467.047 293.337 467.593 293.541C468.147 293.754 468.82 293.861 469.613 293.861C470.797 293.861 471.773 293.571 472.54 292.991C473.316 292.42 473.703 291.462 473.703 290.115V286.523H473.473C473.235 287.068 472.877 287.584 472.4 288.07C471.922 288.555 471.309 288.952 470.559 289.259C469.809 289.565 468.914 289.719 467.874 289.719C466.4 289.719 465.057 289.378 463.847 288.696C462.645 288.006 461.686 286.953 460.971 285.538C460.263 284.115 459.909 282.317 459.909 280.143C459.909 277.919 460.272 276.061 460.996 274.57C461.721 273.078 462.684 271.962 463.885 271.22C465.096 270.479 466.421 270.108 467.861 270.108C468.961 270.108 469.881 270.295 470.623 270.67C471.364 271.037 471.961 271.497 472.412 272.051C472.873 272.597 473.226 273.134 473.473 273.662H473.678V270.364H479.086V290.192C479.086 291.862 478.676 293.26 477.858 294.385C477.04 295.51 475.907 296.354 474.458 296.916C473.017 297.487 471.36 297.773 469.485 297.773ZM469.6 285.628C470.478 285.628 471.219 285.411 471.824 284.976C472.438 284.533 472.907 283.902 473.23 283.084C473.563 282.257 473.729 281.268 473.729 280.118C473.729 278.967 473.567 277.97 473.243 277.126C472.919 276.274 472.451 275.614 471.837 275.145C471.223 274.676 470.478 274.442 469.6 274.442C468.705 274.442 467.951 274.685 467.337 275.17C466.723 275.648 466.259 276.312 465.944 277.165C465.628 278.017 465.471 279.001 465.471 280.118C465.471 281.251 465.628 282.232 465.944 283.058C466.267 283.876 466.732 284.511 467.337 284.963C467.951 285.406 468.705 285.628 469.6 285.628ZM492.368 290.384C490.348 290.384 488.61 289.974 487.152 289.156C485.703 288.33 484.587 287.162 483.803 285.653C483.019 284.136 482.627 282.342 482.627 280.271C482.627 278.251 483.019 276.479 483.803 274.953C484.587 273.428 485.691 272.239 487.114 271.386C488.546 270.534 490.225 270.108 492.151 270.108C493.446 270.108 494.652 270.317 495.769 270.734C496.894 271.143 497.874 271.761 498.709 272.588C499.553 273.415 500.209 274.455 500.678 275.707C501.147 276.952 501.381 278.409 501.381 280.08V281.575H484.8V278.2H496.255C496.255 277.416 496.084 276.722 495.743 276.116C495.402 275.511 494.929 275.038 494.324 274.697C493.728 274.348 493.033 274.173 492.24 274.173C491.414 274.173 490.681 274.365 490.042 274.749C489.411 275.124 488.917 275.631 488.559 276.27C488.201 276.901 488.017 277.604 488.009 278.379V281.588C488.009 282.56 488.188 283.399 488.546 284.107C488.912 284.814 489.428 285.359 490.093 285.743C490.757 286.126 491.546 286.318 492.458 286.318C493.063 286.318 493.617 286.233 494.12 286.062C494.623 285.892 495.053 285.636 495.411 285.295C495.769 284.955 496.042 284.537 496.229 284.043L501.266 284.375C501.01 285.585 500.486 286.642 499.694 287.545C498.909 288.44 497.895 289.139 496.651 289.642C495.415 290.136 493.988 290.384 492.368 290.384ZM504.935 290V270.364H510.125V273.828H510.355C510.765 272.678 511.446 271.77 512.401 271.105C513.355 270.44 514.498 270.108 515.827 270.108C517.174 270.108 518.32 270.445 519.266 271.118C520.212 271.783 520.843 272.686 521.158 273.828H521.363C521.763 272.703 522.488 271.804 523.536 271.131C524.593 270.449 525.841 270.108 527.282 270.108C529.114 270.108 530.601 270.692 531.743 271.859C532.894 273.018 533.469 274.663 533.469 276.794V290H528.036V277.868C528.036 276.777 527.746 275.959 527.167 275.413C526.587 274.868 525.863 274.595 524.993 274.595C524.005 274.595 523.233 274.911 522.679 275.541C522.125 276.163 521.848 276.986 521.848 278.009V290H516.569V277.753C516.569 276.79 516.292 276.023 515.738 275.452C515.192 274.881 514.472 274.595 513.577 274.595C512.972 274.595 512.426 274.749 511.941 275.055C511.463 275.354 511.084 275.776 510.803 276.321C510.522 276.858 510.381 277.489 510.381 278.213V290H504.935ZM546.72 290.384C544.7 290.384 542.961 289.974 541.504 289.156C540.055 288.33 538.939 287.162 538.154 285.653C537.37 284.136 536.978 282.342 536.978 280.271C536.978 278.251 537.37 276.479 538.154 274.953C538.939 273.428 540.042 272.239 541.466 271.386C542.897 270.534 544.576 270.108 546.502 270.108C547.798 270.108 549.004 270.317 550.12 270.734C551.245 271.143 552.225 271.761 553.061 272.588C553.904 273.415 554.561 274.455 555.029 275.707C555.498 276.952 555.733 278.409 555.733 280.08V281.575H539.152V278.2H550.606C550.606 277.416 550.436 276.722 550.095 276.116C549.754 275.511 549.281 275.038 548.676 274.697C548.079 274.348 547.385 274.173 546.592 274.173C545.765 274.173 545.032 274.365 544.393 274.749C543.762 275.124 543.268 275.631 542.91 276.27C542.552 276.901 542.369 277.604 542.36 278.379V281.588C542.36 282.56 542.539 283.399 542.897 284.107C543.264 284.814 543.779 285.359 544.444 285.743C545.109 286.126 545.897 286.318 546.809 286.318C547.414 286.318 547.968 286.233 548.471 286.062C548.974 285.892 549.404 285.636 549.762 285.295C550.12 284.955 550.393 284.537 550.581 284.043L555.618 284.375C555.362 285.585 554.838 286.642 554.045 287.545C553.261 288.44 552.247 289.139 551.002 289.642C549.767 290.136 548.339 290.384 546.72 290.384ZM564.733 278.648V290H559.287V270.364H564.477V273.828H564.707C565.142 272.686 565.87 271.783 566.893 271.118C567.916 270.445 569.156 270.108 570.613 270.108C571.977 270.108 573.166 270.406 574.18 271.003C575.194 271.599 575.983 272.452 576.545 273.56C577.108 274.659 577.389 275.972 577.389 277.497V290H571.943V278.469C571.951 277.267 571.645 276.33 571.022 275.656C570.4 274.974 569.544 274.634 568.453 274.634C567.72 274.634 567.072 274.791 566.51 275.107C565.956 275.422 565.521 275.882 565.206 276.487C564.899 277.084 564.741 277.804 564.733 278.648ZM592.126 270.364V274.455H580.3V270.364H592.126ZM582.985 265.659H588.431V283.966C588.431 284.469 588.508 284.861 588.661 285.142C588.815 285.415 589.028 285.607 589.3 285.717C589.582 285.828 589.906 285.884 590.272 285.884C590.528 285.884 590.783 285.862 591.039 285.82C591.295 285.768 591.491 285.73 591.627 285.705L592.484 289.757C592.211 289.842 591.827 289.94 591.333 290.051C590.839 290.17 590.238 290.243 589.531 290.268C588.218 290.32 587.067 290.145 586.079 289.744C585.099 289.344 584.336 288.722 583.79 287.878C583.245 287.034 582.977 285.969 582.985 284.682V265.659ZM601.116 263.818V266.58C601.116 267.364 600.963 268.165 600.656 268.983C600.358 269.793 599.957 270.56 599.454 271.284C598.951 272 598.402 272.609 597.805 273.112L595.402 271.693C595.828 271.02 596.203 270.274 596.527 269.456C596.859 268.638 597.025 267.687 597.025 266.605V263.818H601.116ZM607.547 263.818V266.58C607.547 267.364 607.393 268.165 607.086 268.983C606.788 269.793 606.387 270.56 605.885 271.284C605.382 272 604.828 272.609 604.223 273.112L601.819 271.693C602.254 271.02 602.633 270.274 602.957 269.456C603.289 268.638 603.456 267.687 603.456 266.605V263.818H607.547Z" fill="#45515E"/>
<path d="M343.631 804.447C343.631 804.447 320.253 801.912 273.665 859.846C227.077 917.779 200.416 1062.89 200.416 1062.89L228.909 1023.2L229.52 1037.91C229.52 1037.91 266.641 1026.26 295.592 998.068C324.544 969.864 336.607 936.592 336.607 936.592L330.072 984.096C330.072 984.096 390.448 925.109 410.833 869.023L343.646 804.432L343.631 804.447Z" fill="#FFC7B6"/>
<path d="M343.631 804.447C343.631 804.447 320.253 801.912 273.665 859.846C227.077 917.779 200.416 1062.89 200.416 1062.89L228.909 1023.2L229.52 1037.91C229.52 1037.91 266.641 1026.26 295.592 998.068C324.544 969.864 336.607 936.592 336.607 936.592L330.072 984.096C330.072 984.096 390.448 925.109 410.833 869.023L343.646 804.432L343.631 804.447Z" stroke="#231F20" stroke-linecap="round" stroke-linejoin="round"/>
<path d="M345.128 807.257C306.77 817.259 270.596 900.631 270.596 900.631L289.469 890.828L242.393 992.219L353.343 899.746L347.006 934.668C347.006 934.668 389.089 910.083 404.924 866.122L345.112 807.272L345.128 807.257Z" fill="#E58A9C"/>
<path d="M345.128 807.257C306.77 817.259 270.596 900.631 270.596 900.631L289.469 890.828L242.393 992.219L353.343 899.746L347.006 934.668C347.006 934.668 389.089 910.083 404.924 866.122L345.112 807.272L345.128 807.257Z" stroke="#231F20" stroke-linecap="round" stroke-linejoin="round"/>
<path d="M350.66 783.038L339.559 795.941C353.5 827.687 378.344 853.401 409.586 868.442L410.823 869.037L423.313 859.845L350.66 783.038Z" fill="#91B1DA"/>
<path d="M350.66 783.038L339.559 795.941C353.5 827.687 378.344 853.401 409.586 868.442L410.823 869.037L423.313 859.845L350.66 783.038Z" stroke="#231F20" stroke-linecap="round" stroke-linejoin="round"/>
<path d="M520.09 629.822C520.09 629.822 450.827 673.188 347.832 776.794C347.832 776.794 374.203 842.652 431.205 863.053C431.205 863.053 495.323 812.372 586.376 698.154L520.09 629.838V629.822Z" fill="#F2E7E3"/>
<path d="M520.09 629.822C520.09 629.822 450.827 673.188 347.832 776.794C347.832 776.794 374.203 842.652 431.205 863.053C431.205 863.053 495.323 812.372 586.376 698.154L520.09 629.838V629.822Z" stroke="#231F20" stroke-linecap="round" stroke-linejoin="round"/>
<path d="M510.484 636.251L579.091 707.24L586.375 698.154L520.089 629.822L510.484 636.251Z" fill="#FFC7B6"/>
<path d="M510.484 636.251L579.091 707.24L586.375 698.154L520.089 629.822L510.484 636.251Z" stroke="#231F20" stroke-linecap="round" stroke-linejoin="round"/>
<path d="M520.092 629.821L586.271 698.474L599.8 682.441C613.1 666.667 620.109 646.542 619.498 625.912L618.811 603.008L597.876 601.282C580.255 599.832 562.618 604 547.501 613.177L520.122 629.821H520.092Z" fill="#E58A9C"/>
<path d="M520.092 629.821L586.271 698.474L599.8 682.441C613.1 666.667 620.109 646.542 619.498 625.912L618.811 603.008L597.876 601.282C580.255 599.832 562.618 604 547.501 613.177L520.122 629.821H520.092Z" stroke="#231F20" stroke-linecap="round" stroke-linejoin="round"/>
<path d="M553.654 629.822H563.916" stroke="#231F20" stroke-linecap="round" stroke-linejoin="round"/>
<path d="M402.195 724.556L369.227 716.157C359.302 713.623 348.766 716.218 341.131 723.044L297.169 762.379C294.146 765.082 295.703 770.075 299.719 770.594L347.834 776.778L402.195 724.54V724.556Z" fill="#E58A9C"/>
<path d="M402.195 724.556L369.227 716.157C359.302 713.623 348.766 716.218 341.131 723.044L297.169 762.379C294.146 765.082 295.703 770.075 299.719 770.594L347.834 776.778L402.195 724.54V724.556Z" stroke="#231F20" stroke-linecap="round" stroke-linejoin="round"/>
<path d="M486.91 811.929L493.308 845.339C495.232 855.402 492.025 865.755 484.742 872.977L442.826 914.496C439.956 917.351 435.054 915.504 434.779 911.457L431.496 863.052L486.91 811.929Z" fill="#E58A9C"/>
<path d="M486.91 811.929L493.308 845.339C495.232 855.402 492.025 865.755 484.742 872.977L442.826 914.496C439.956 917.351 435.054 915.504 434.779 911.457L431.496 863.052L486.91 811.929Z" stroke="#231F20" stroke-linecap="round" stroke-linejoin="round"/>
<path d="M427.027 787.635L416.979 777.046L333.275 856.478L343.323 867.067L427.027 787.635Z" fill="#E58A9C"/>
<path d="M427.027 787.635L416.979 777.046L333.275 856.478L343.323 867.067L427.027 787.635Z" stroke="#231F20" stroke-linecap="round" stroke-linejoin="round"/>
<path d="M211.458 942.485L166 959.16L190.141 1015.47C190.141 1015.47 196.585 1011.79 194.967 996.387C193.363 980.98 195.471 968.612 218.436 961.465L211.458 942.47V942.485Z" fill="#A3808D"/>
<path d="M201.581 946.486C201.581 946.486 199.062 949.387 202.039 956.136C205.017 962.886 209.644 964.321 209.644 964.321C209.644 964.321 217.706 961.267 217.676 961.084C217.645 960.901 211.003 943.447 211.003 943.447L201.581 946.501V946.486Z" fill="#FFC7B6"/>
<path d="M171.405 957.785L166.885 959.511L190.171 1014.45L192.675 1012.6V1010.69L171.405 957.785Z" fill="#F2E7E3"/>
<path d="M211.458 942.485L166 959.16L190.141 1015.47C190.141 1015.47 196.585 1011.79 194.967 996.388C193.363 980.98 195.471 968.612 218.436 961.466M201.09 946.288C197.486 957.786 209.412 965.054 209.412 965.054" stroke="#231F20" stroke-linecap="round" stroke-linejoin="round"/>
<path d="M171.604 957.1L193.409 1011.14" stroke="#231F20" stroke-linecap="round" stroke-linejoin="round"/>
<path d="M347.191 951.22L301.015 936.652L285.715 995.991C285.715 995.991 293.06 997.014 301.198 983.836C309.337 970.658 318.575 962.153 341.114 970.521L347.191 951.22Z" fill="#A3808D"/>
<path d="M336.928 948.348C336.928 948.348 333.156 949.096 331.385 956.258C329.614 963.42 332.408 967.374 332.408 967.374C332.408 967.374 340.654 969.879 340.745 969.711C340.837 969.543 346.242 951.677 346.242 951.677L336.913 948.333L336.928 948.348Z" fill="#FFC7B6"/>
<path d="M306.13 938.85L301.488 937.461L286.355 995.181L289.486 995.242L290.646 993.73L306.13 938.85Z" fill="#F2E7E3"/>
<path d="M347.191 951.22L301.015 936.652L285.715 995.991C285.715 995.991 293.06 997.014 301.198 983.836C309.337 970.658 318.575 962.153 341.114 970.521M336.655 947.891C326.775 954.793 331.768 967.833 331.768 967.833" stroke="#231F20" stroke-linecap="round" stroke-linejoin="round"/>
<path d="M306.712 938.44L290.953 994.542" stroke="#231F20" stroke-linecap="round" stroke-linejoin="round"/>
<path d="M353.816 925.139L219.106 963.298L210.83 940.776C210.83 940.776 302.785 899.853 337.264 890.66C347.617 897.623 353.816 909.274 353.816 921.734V925.139Z" fill="#625E8A"/>
<path d="M353.816 925.139L219.106 963.298L210.83 940.776C210.83 940.776 302.785 899.853 337.264 890.66" stroke="#231F20" stroke-linecap="round" stroke-linejoin="round"/>
<path d="M497.001 842.072L353.802 925.139L350.167 922.605C339.921 915.443 334.852 902.922 337.249 890.66L448.215 789.33L497.001 842.072Z" fill="#625E8A"/>
<path d="M337.268 890.66L448.218 789.33" stroke="#231F20" stroke-linecap="round" stroke-linejoin="round"/>
<path d="M484.848 849.126L353.818 925.139" stroke="#231F20" stroke-linecap="round" stroke-linejoin="round"/>
<path d="M459.793 1000.17C454.265 1002.42 447.974 1002.94 441.744 1001.18L339.559 972.49L347.835 949.036C347.835 949.036 413.586 953.632 435.422 963.283L459.793 1000.16V1000.17Z" fill="#625E8A"/>
<path d="M459.793 1000.17C454.265 1002.42 447.974 1002.94 441.744 1001.18L339.559 972.49L347.835 949.036C347.835 949.036 413.586 953.632 435.422 963.283" stroke="#231F20" stroke-linecap="round" stroke-linejoin="round"/>
<path d="M452.643 794.125C434.717 825.84 435.404 973.422 435.404 973.422C438.03 985.18 446.306 994.861 457.514 999.274L459.79 1000.17C468.096 996.785 474.662 989.471 476.617 979.942L503.538 849.126L452.643 794.109V794.125Z" fill="#625E8A"/>
<path d="M503.538 849.125L476.617 979.941C474.662 989.469 468.096 996.783 459.79 1000.17M452.643 794.123C434.717 825.838 435.404 973.421 435.404 973.421" stroke="#231F20" stroke-linecap="round" stroke-linejoin="round"/>
<path d="M805.939 646.497L791.738 629.822L785.707 632.617C783.966 630.952 781.34 630.632 779.248 631.807L774.346 634.571L762.863 654.223L778.164 671.127L791.067 666.79C793.586 665.951 795.754 664.317 797.266 662.133L806.077 649.429C806.703 648.528 806.642 647.337 805.924 646.497H805.939ZM783.722 640.862L783.432 642.053C783.355 641.122 783.218 640.557 783.218 640.557C783.386 640.664 783.554 640.755 783.722 640.862Z" fill="#FFC7B6"/>
<path d="M762.863 654.222L774.346 634.57L779.248 631.806C781.34 630.63 783.966 630.951 785.707 632.615L797.8 644.113C797.8 644.113 794.426 647.9 783.248 640.556C783.248 640.556 784.623 646.526 781.263 651.29" stroke="#231F20" stroke-linecap="round" stroke-linejoin="round"/>
<path d="M785.694 632.617L791.726 629.822L805.926 646.497C806.629 647.321 806.69 648.528 806.079 649.429L797.269 662.133C795.757 664.317 793.588 665.951 791.069 666.79L778.166 671.127" stroke="#231F20" stroke-linecap="round" stroke-linejoin="round"/>
<path d="M782.836 648.008L791.036 659.857L806.244 648.558" stroke="#231F20" stroke-linecap="round" stroke-linejoin="round"/>
<path d="M787.74 655.092L803.896 644.113" stroke="#231F20" stroke-linecap="round" stroke-linejoin="round"/>
<path d="M784.531 650.481L792.655 644.893" stroke="#231F20" stroke-linecap="round" stroke-linejoin="round"/>
<path d="M796.258 642.663L800.136 639.686" stroke="#231F20" stroke-linecap="round" stroke-linejoin="round"/>
<path d="M783.447 644.892L786.776 642.663" stroke="#231F20" stroke-linecap="round" stroke-linejoin="round"/>
<path d="M791.572 638.19L796.26 635.151" stroke="#231F20" stroke-linecap="round" stroke-linejoin="round"/>
<path d="M709.202 726.829L778.16 671.125L761.913 653.198L693.871 698.488C694.665 707.406 698.498 715.789 704.728 722.233L709.187 726.844L709.202 726.829Z" fill="#91B1DA"/>
<path d="M709.202 726.829L778.16 671.125L761.913 653.198L693.871 698.473" stroke="#231F20" stroke-linecap="round" stroke-linejoin="round"/>
<path d="M606.533 752.391L709.207 726.83L708.764 722.921C707.65 712.98 702.198 704.032 693.876 698.474L612.046 712.11L606.533 752.376V752.391Z" fill="#91B1DA"/>
<path d="M693.874 698.474L612.043 712.125" stroke="#231F20" stroke-linecap="round" stroke-linejoin="round"/>
<path d="M606.533 752.393L709.207 726.831" stroke="#231F20" stroke-linecap="round" stroke-linejoin="round"/>
<path d="M526.241 700.873C526.241 700.873 471.498 751.125 435.416 775.496L503.534 849.127C503.534 849.127 543.373 820.924 570.66 792.736C597.932 764.532 606.514 752.393 606.514 752.393C610.957 743.307 611.95 732.512 611.95 732.512L612.026 712.127L598.039 673.662C598.039 673.662 586.129 659.873 572.951 661.248L526.241 700.888V700.873Z" fill="#91B1DA"/>
<path d="M598.054 673.646C598.054 673.646 586.144 659.858 572.966 661.232M526.241 700.872C526.241 700.872 471.498 751.125 435.416 775.496L503.534 849.126C503.534 849.126 543.373 820.923 570.66 792.735C597.932 764.532 606.514 752.393 606.514 752.393" stroke="#231F20" stroke-linecap="round" stroke-linejoin="round"/>
<path d="M572.966 661.247C574.615 683.204 558.643 710.217 538.059 728.021C517.491 745.841 474.033 740.787 474.033 740.787L463.695 749.75C463.695 749.75 508.069 764.226 548.977 736.068C589.9 707.911 586.174 664.285 586.174 664.285C586.174 664.285 577.516 659.979 572.966 661.231V661.247Z" fill="#625E8A"/>
<path d="M572.966 661.247C574.615 683.204 558.643 710.217 538.059 728.021C517.491 745.841 474.033 740.787 474.033 740.787L463.695 749.75C463.695 749.75 508.069 764.226 548.977 736.068C589.9 707.911 586.174 664.285 586.174 664.285C586.174 664.285 577.516 659.979 572.966 661.231V661.247Z" stroke="#231F20" stroke-linecap="round" stroke-linejoin="round"/>
<path d="M615.266 705.88C615.266 705.88 627.665 712.278 620.335 738.481C613.8 761.844 591.979 778.03 577.916 785.16C577.916 785.16 603.982 760.271 609.753 743.764C615.525 727.258 612.044 712.125 612.044 712.125L615.266 705.88Z" fill="#625E8A"/>
<path d="M615.266 705.88C615.266 705.88 627.665 712.278 620.335 738.481C613.8 761.844 591.979 778.03 577.916 785.16C577.916 785.16 603.982 760.271 609.753 743.764C615.525 727.258 612.044 712.125 612.044 712.125L615.266 705.88Z" stroke="#231F20" stroke-linecap="round" stroke-linejoin="round"/>
<path d="M661.702 634.569C661.702 634.569 666.909 620.628 645.455 611.267C624.001 601.922 604.227 608.962 595.798 624.751C587.369 640.539 594.927 654.603 599.111 658.68L617.099 654.023H624.612L661.702 634.554V634.569Z" fill="#625E8A"/>
<path d="M664.148 659.397C663.537 646.83 661.689 634.721 661.689 634.721L638.647 630.095C634.86 629.331 631.364 632.339 631.547 636.187L631.608 637.546C631.73 639.974 630.524 642.265 628.462 643.532C626.508 644.738 625.24 646.8 625.042 649.075L624.599 654.022H617.086L616.185 648.586C613.819 646.846 610.719 646.052 607.436 646.754C603.374 647.609 600.091 650.907 599.236 654.969C598.152 660.161 600.793 664.879 604.977 666.971H604.962L598.045 673.797C598.045 673.797 606.046 708.429 612.032 712.261L617.987 700.733C620.339 696.198 623.423 692.09 627.149 688.578L629.531 686.333L629.44 686.242C639.411 693.144 653.566 690.227 659.643 679.233C662.04 674.881 663.384 671.491 663.384 671.491C663.384 671.491 669.66 671.644 669.507 666.284C669.355 660.924 664.148 659.382 664.148 659.382V659.397Z" fill="#FFC7B6"/>
<path d="M615.265 673.187L627.023 684.166C636.964 693.465 653.073 691.007 659.655 679.081C662.052 674.729 663.396 671.339 663.396 671.339C663.396 671.339 669.672 671.492 669.519 666.132C669.366 660.773 664.159 659.23 664.159 659.23C663.548 646.663 661.701 634.554 661.701 634.554L638.659 629.928C634.872 629.164 631.375 632.172 631.558 636.02L631.619 637.379C631.742 639.807 630.535 642.098 628.474 643.365C626.519 644.571 625.252 646.633 625.053 648.908L624.611 653.855H617.098L616.197 648.419C613.83 646.679 610.73 645.885 607.447 646.587C603.386 647.442 600.103 650.74 599.247 654.802C597.782 661.796 603.08 667.934 609.814 667.934" stroke="#231F20" stroke-linecap="round" stroke-linejoin="round"/>
<path d="M606.531 651.579L613.876 660.466" stroke="#231F20" stroke-linecap="round" stroke-linejoin="round"/>
<path d="M605.6 659.856L610.196 656.023" stroke="#231F20" stroke-linecap="round" stroke-linejoin="round"/>
<path d="M661.702 634.569C661.702 634.569 666.909 620.628 645.455 611.267C624.001 601.922 604.227 608.962 595.798 624.751C587.369 640.539 594.927 654.603 599.111 658.68" stroke="#231F20" stroke-linecap="round" stroke-linejoin="round"/>
<path d="M649.775 652.159V654.221" stroke="#231F20" stroke-linecap="round" stroke-linejoin="round"/>
<path d="M644.264 644.112C644.264 644.112 644.722 641.928 648.524 642.279M653.349 671.124C650.616 671.048 648.112 669.612 646.661 667.307L645.531 665.489" stroke="#231F20" stroke-linecap="round" stroke-linejoin="round"/>
<path d="M604.976 666.818L598.059 673.644" stroke="#231F20" stroke-linecap="round" stroke-linejoin="round"/>
<path d="M598.059 673.645C598.059 673.645 606.06 708.276 612.046 712.109L618.001 700.58C620.352 696.045 623.437 691.938 627.163 688.426L629.545 686.181" stroke="#231F20" stroke-linecap="round" stroke-linejoin="round"/>
<path d="M553.651 698.475L477.638 705.118L464.903 702.446C457.375 700.873 451.374 695.223 449.328 687.817C455.879 681.205 464.384 676.884 473.592 675.51C501.749 671.326 562.889 662.286 572.967 661.232L571.211 670.379C569.058 681.602 562.798 691.619 553.666 698.475H553.651Z" fill="#91B1DA"/>
<path d="M572.967 661.248C562.889 662.302 501.749 671.341 473.592 675.525C464.384 676.9 455.879 681.206 449.328 687.833" stroke="#231F20" stroke-linecap="round" stroke-linejoin="round"/>
<path d="M477.637 705.118L553.65 698.476" stroke="#231F20" stroke-linecap="round" stroke-linejoin="round"/>
<path d="M518.778 724.556C518.778 724.556 536.674 726.174 538.064 728.022C539.453 729.87 545.195 736.649 548.981 736.069C548.981 736.069 534.506 752.499 530.933 752.392C527.375 752.27 512.334 740.039 512.334 740.039L518.778 724.571V724.556Z" fill="#FFC7B6"/>
<path d="M518.778 724.556C518.778 724.556 536.674 726.174 538.064 728.022C539.453 729.87 545.195 736.649 548.981 736.069C548.981 736.069 534.506 752.499 530.933 752.392C527.375 752.27 512.334 740.039 512.334 740.039" stroke="#231F20" stroke-linecap="round" stroke-linejoin="round"/>
<path d="M449.327 687.831L447.509 689.663C440.76 696.489 440.455 707.392 446.838 714.568C454.137 722.768 463.634 728.708 474.216 731.64L511.49 742.008L519.155 723.623L469.651 701.589L449.296 687.846L449.327 687.831Z" fill="#91B1DA"/>
<path d="M449.327 687.831L447.509 689.663C440.76 696.489 440.455 707.392 446.838 714.568C454.137 722.768 463.634 728.708 474.216 731.64L511.49 742.008L519.155 723.623L469.651 701.589" stroke="#231F20" stroke-linecap="round" stroke-linejoin="round"/>
</svg>
