<svg width="972" height="1080" viewBox="0 0 972 1080" fill="none" xmlns="http://www.w3.org/2000/svg">
<rect width="972" height="1080" fill="#F4F6F7"/>
<path d="M185.032 152V149.239C185.032 148.455 185.186 147.653 185.493 146.835C185.799 146.017 186.204 145.246 186.707 144.521C187.21 143.797 187.755 143.192 188.343 142.706L190.747 144.125C190.27 144.875 189.877 145.659 189.571 146.477C189.272 147.295 189.123 148.207 189.123 149.213V152H185.032ZM191.488 152V149.239C191.488 148.455 191.642 147.653 191.949 146.835C192.255 146.017 192.66 145.246 193.163 144.521C193.666 143.797 194.211 143.192 194.799 142.706L197.203 144.125C196.725 144.875 196.333 145.659 196.027 146.477C195.728 147.295 195.579 148.207 195.579 149.213V152H191.488ZM223.615 152.984H218.015C217.913 152.26 217.704 151.616 217.389 151.054C217.074 150.483 216.669 149.997 216.174 149.597C215.68 149.196 215.109 148.889 214.461 148.676C213.822 148.463 213.127 148.357 212.377 148.357C211.022 148.357 209.842 148.693 208.836 149.366C207.831 150.031 207.051 151.003 206.497 152.281C205.943 153.551 205.666 155.094 205.666 156.909C205.666 158.776 205.943 160.344 206.497 161.614C207.059 162.884 207.843 163.842 208.849 164.49C209.855 165.138 211.018 165.462 212.339 165.462C213.081 165.462 213.767 165.364 214.397 165.168C215.037 164.972 215.603 164.686 216.098 164.311C216.592 163.928 217.001 163.463 217.325 162.918C217.657 162.372 217.887 161.75 218.015 161.051L223.615 161.077C223.47 162.278 223.108 163.438 222.528 164.554C221.957 165.662 221.186 166.655 220.214 167.533C219.251 168.402 218.1 169.092 216.762 169.604C215.433 170.107 213.929 170.358 212.25 170.358C209.914 170.358 207.826 169.83 205.985 168.773C204.153 167.716 202.704 166.186 201.639 164.183C200.582 162.18 200.054 159.756 200.054 156.909C200.054 154.054 200.591 151.625 201.664 149.622C202.738 147.619 204.196 146.094 206.037 145.045C207.877 143.989 209.949 143.46 212.25 143.46C213.767 143.46 215.173 143.673 216.468 144.099C217.772 144.526 218.927 145.148 219.933 145.966C220.939 146.776 221.757 147.768 222.387 148.945C223.027 150.121 223.436 151.467 223.615 152.984ZM236.431 170.384C234.411 170.384 232.672 169.974 231.215 169.156C229.766 168.33 228.65 167.162 227.865 165.653C227.081 164.136 226.689 162.342 226.689 160.271C226.689 158.251 227.081 156.479 227.865 154.953C228.65 153.428 229.753 152.239 231.176 151.386C232.608 150.534 234.287 150.108 236.213 150.108C237.509 150.108 238.715 150.317 239.831 150.734C240.956 151.143 241.936 151.761 242.772 152.588C243.615 153.415 244.272 154.455 244.74 155.707C245.209 156.952 245.444 158.409 245.444 160.08V161.575H228.863V158.2H240.317C240.317 157.416 240.147 156.722 239.806 156.116C239.465 155.511 238.992 155.038 238.387 154.697C237.79 154.348 237.096 154.173 236.303 154.173C235.476 154.173 234.743 154.365 234.104 154.749C233.473 155.124 232.979 155.631 232.621 156.27C232.263 156.901 232.08 157.604 232.071 158.379V161.588C232.071 162.56 232.25 163.399 232.608 164.107C232.975 164.814 233.49 165.359 234.155 165.743C234.82 166.126 235.608 166.318 236.52 166.318C237.125 166.318 237.679 166.233 238.182 166.062C238.685 165.892 239.115 165.636 239.473 165.295C239.831 164.955 240.104 164.537 240.292 164.043L245.328 164.375C245.073 165.585 244.549 166.642 243.756 167.545C242.972 168.44 241.958 169.139 240.713 169.642C239.478 170.136 238.05 170.384 236.431 170.384ZM254.444 158.648V170H248.998V150.364H254.188V153.828H254.418C254.853 152.686 255.581 151.783 256.604 151.118C257.627 150.445 258.867 150.108 260.324 150.108C261.688 150.108 262.877 150.406 263.891 151.003C264.905 151.599 265.694 152.452 266.256 153.56C266.819 154.659 267.1 155.972 267.1 157.497V170H261.654V158.469C261.662 157.267 261.355 156.33 260.733 155.656C260.111 154.974 259.255 154.634 258.164 154.634C257.431 154.634 256.783 154.791 256.221 155.107C255.667 155.422 255.232 155.882 254.917 156.487C254.61 157.084 254.452 157.804 254.444 158.648ZM281.837 150.364V154.455H270.011V150.364H281.837ZM272.696 145.659H278.142V163.966C278.142 164.469 278.219 164.861 278.372 165.142C278.526 165.415 278.739 165.607 279.011 165.717C279.293 165.828 279.616 165.884 279.983 165.884C280.239 165.884 280.494 165.862 280.75 165.82C281.006 165.768 281.202 165.73 281.338 165.705L282.195 169.757C281.922 169.842 281.538 169.94 281.044 170.051C280.55 170.17 279.949 170.243 279.241 170.268C277.929 170.32 276.778 170.145 275.79 169.744C274.81 169.344 274.047 168.722 273.501 167.878C272.956 167.034 272.688 165.969 272.696 164.682V145.659ZM285.384 170V150.364H290.664V153.79H290.869C291.227 152.571 291.827 151.651 292.671 151.028C293.515 150.398 294.487 150.082 295.586 150.082C295.859 150.082 296.153 150.099 296.468 150.134C296.783 150.168 297.06 150.214 297.299 150.274V155.107C297.043 155.03 296.69 154.962 296.238 154.902C295.786 154.842 295.373 154.812 294.998 154.812C294.197 154.812 293.481 154.987 292.85 155.337C292.228 155.678 291.734 156.155 291.367 156.768C291.009 157.382 290.83 158.089 290.83 158.891V170H285.384ZM305.152 170.371C303.899 170.371 302.782 170.153 301.802 169.719C300.822 169.276 300.047 168.624 299.475 167.763C298.913 166.893 298.632 165.811 298.632 164.516C298.632 163.425 298.832 162.509 299.233 161.767C299.633 161.026 300.179 160.429 300.869 159.977C301.559 159.526 302.343 159.185 303.221 158.955C304.108 158.724 305.037 158.562 306.008 158.469C307.15 158.349 308.071 158.239 308.77 158.136C309.468 158.026 309.975 157.864 310.291 157.651C310.606 157.437 310.764 157.122 310.764 156.705V156.628C310.764 155.818 310.508 155.192 309.997 154.749C309.494 154.305 308.778 154.084 307.849 154.084C306.869 154.084 306.089 154.301 305.51 154.736C304.93 155.162 304.547 155.699 304.359 156.347L299.322 155.938C299.578 154.744 300.081 153.713 300.831 152.844C301.581 151.966 302.548 151.293 303.733 150.824C304.926 150.347 306.306 150.108 307.875 150.108C308.966 150.108 310.01 150.236 311.007 150.491C312.012 150.747 312.903 151.143 313.679 151.68C314.463 152.217 315.081 152.908 315.532 153.751C315.984 154.587 316.21 155.588 316.21 156.756V170H311.045V167.277H310.892C310.576 167.891 310.154 168.432 309.626 168.901C309.098 169.361 308.463 169.723 307.721 169.987C306.98 170.243 306.123 170.371 305.152 170.371ZM306.711 166.612C307.512 166.612 308.22 166.455 308.833 166.139C309.447 165.815 309.929 165.381 310.278 164.835C310.627 164.29 310.802 163.672 310.802 162.982V160.898C310.632 161.009 310.397 161.111 310.099 161.205C309.809 161.29 309.481 161.371 309.115 161.447C308.748 161.516 308.382 161.58 308.015 161.639C307.649 161.69 307.316 161.737 307.018 161.78C306.379 161.874 305.821 162.023 305.343 162.227C304.866 162.432 304.495 162.709 304.231 163.058C303.967 163.399 303.835 163.825 303.835 164.337C303.835 165.078 304.103 165.645 304.64 166.037C305.186 166.42 305.876 166.612 306.711 166.612ZM325.881 143.818V170H320.435V143.818H325.881ZM330.244 170V150.364H335.69V170H330.244ZM332.979 147.832C332.17 147.832 331.475 147.564 330.896 147.027C330.325 146.482 330.039 145.83 330.039 145.071C330.039 144.321 330.325 143.678 330.896 143.141C331.475 142.595 332.17 142.322 332.979 142.322C333.789 142.322 334.479 142.595 335.05 143.141C335.63 143.678 335.92 144.321 335.92 145.071C335.92 145.83 335.63 146.482 335.05 147.027C334.479 147.564 333.789 147.832 332.979 147.832ZM339.95 170V166.753L349.564 154.851V154.71H340.282V150.364H356.122V153.905L347.096 165.513V165.653H356.454V170H339.95ZM369.005 170.384C366.985 170.384 365.246 169.974 363.789 169.156C362.34 168.33 361.224 167.162 360.44 165.653C359.656 164.136 359.263 162.342 359.263 160.271C359.263 158.251 359.656 156.479 360.44 154.953C361.224 153.428 362.327 152.239 363.751 151.386C365.183 150.534 366.862 150.108 368.788 150.108C370.083 150.108 371.289 150.317 372.406 150.734C373.531 151.143 374.511 151.761 375.346 152.588C376.19 153.415 376.846 154.455 377.315 155.707C377.783 156.952 378.018 158.409 378.018 160.08V161.575H361.437V158.2H372.891C372.891 157.416 372.721 156.722 372.38 156.116C372.039 155.511 371.566 155.038 370.961 154.697C370.364 154.348 369.67 154.173 368.877 154.173C368.05 154.173 367.317 154.365 366.678 154.749C366.048 155.124 365.553 155.631 365.195 156.27C364.837 156.901 364.654 157.604 364.646 158.379V161.588C364.646 162.56 364.825 163.399 365.183 164.107C365.549 164.814 366.065 165.359 366.729 165.743C367.394 166.126 368.183 166.318 369.094 166.318C369.7 166.318 370.254 166.233 370.756 166.062C371.259 165.892 371.69 165.636 372.048 165.295C372.406 164.955 372.678 164.537 372.866 164.043L377.903 164.375C377.647 165.585 377.123 166.642 376.33 167.545C375.546 168.44 374.532 169.139 373.288 169.642C372.052 170.136 370.624 170.384 369.005 170.384ZM388.808 170.32C387.316 170.32 385.965 169.936 384.755 169.169C383.553 168.393 382.599 167.256 381.891 165.756C381.192 164.247 380.843 162.398 380.843 160.207C380.843 157.957 381.205 156.087 381.93 154.595C382.654 153.095 383.617 151.974 384.819 151.233C386.029 150.483 387.354 150.108 388.795 150.108C389.894 150.108 390.81 150.295 391.543 150.67C392.285 151.037 392.881 151.497 393.333 152.051C393.793 152.597 394.143 153.134 394.381 153.662H394.548V143.818H399.981V170H394.612V166.855H394.381C394.126 167.401 393.763 167.942 393.295 168.479C392.835 169.007 392.234 169.446 391.492 169.795C390.759 170.145 389.864 170.32 388.808 170.32ZM390.533 165.986C391.411 165.986 392.153 165.747 392.758 165.27C393.371 164.784 393.84 164.107 394.164 163.237C394.496 162.368 394.663 161.349 394.663 160.182C394.663 159.014 394.501 158 394.177 157.139C393.853 156.278 393.384 155.614 392.771 155.145C392.157 154.676 391.411 154.442 390.533 154.442C389.638 154.442 388.884 154.685 388.271 155.17C387.657 155.656 387.192 156.33 386.877 157.19C386.562 158.051 386.404 159.048 386.404 160.182C386.404 161.324 386.562 162.334 386.877 163.212C387.201 164.081 387.665 164.763 388.271 165.257C388.884 165.743 389.638 165.986 390.533 165.986ZM420.026 170.32C418.535 170.32 417.184 169.936 415.974 169.169C414.772 168.393 413.817 167.256 413.11 165.756C412.411 164.247 412.062 162.398 412.062 160.207C412.062 157.957 412.424 156.087 413.148 154.595C413.873 153.095 414.836 151.974 416.038 151.233C417.248 150.483 418.573 150.108 420.013 150.108C421.113 150.108 422.029 150.295 422.762 150.67C423.504 151.037 424.1 151.497 424.552 152.051C425.012 152.597 425.362 153.134 425.6 153.662H425.766V143.818H431.2V170H425.83V166.855H425.6C425.344 167.401 424.982 167.942 424.513 168.479C424.053 169.007 423.452 169.446 422.711 169.795C421.978 170.145 421.083 170.32 420.026 170.32ZM421.752 165.986C422.63 165.986 423.371 165.747 423.977 165.27C424.59 164.784 425.059 164.107 425.383 163.237C425.715 162.368 425.881 161.349 425.881 160.182C425.881 159.014 425.719 158 425.396 157.139C425.072 156.278 424.603 155.614 423.989 155.145C423.376 154.676 422.63 154.442 421.752 154.442C420.857 154.442 420.103 154.685 419.489 155.17C418.876 155.656 418.411 156.33 418.096 157.19C417.781 158.051 417.623 159.048 417.623 160.182C417.623 161.324 417.781 162.334 418.096 163.212C418.42 164.081 418.884 164.763 419.489 165.257C420.103 165.743 420.857 165.986 421.752 165.986ZM441.277 170.371C440.024 170.371 438.907 170.153 437.927 169.719C436.947 169.276 436.172 168.624 435.6 167.763C435.038 166.893 434.757 165.811 434.757 164.516C434.757 163.425 434.957 162.509 435.358 161.767C435.758 161.026 436.304 160.429 436.994 159.977C437.684 159.526 438.468 159.185 439.346 158.955C440.233 158.724 441.162 158.562 442.133 158.469C443.275 158.349 444.196 158.239 444.895 158.136C445.593 158.026 446.1 157.864 446.416 157.651C446.731 157.437 446.889 157.122 446.889 156.705V156.628C446.889 155.818 446.633 155.192 446.122 154.749C445.619 154.305 444.903 154.084 443.974 154.084C442.994 154.084 442.214 154.301 441.635 154.736C441.055 155.162 440.672 155.699 440.484 156.347L435.447 155.938C435.703 154.744 436.206 153.713 436.956 152.844C437.706 151.966 438.673 151.293 439.858 150.824C441.051 150.347 442.431 150.108 444 150.108C445.091 150.108 446.135 150.236 447.132 150.491C448.137 150.747 449.028 151.143 449.804 151.68C450.588 152.217 451.206 152.908 451.657 153.751C452.109 154.587 452.335 155.588 452.335 156.756V170H447.17V167.277H447.017C446.701 167.891 446.279 168.432 445.751 168.901C445.223 169.361 444.588 169.723 443.846 169.987C443.105 170.243 442.248 170.371 441.277 170.371ZM442.836 166.612C443.637 166.612 444.345 166.455 444.958 166.139C445.572 165.815 446.054 165.381 446.403 164.835C446.752 164.29 446.927 163.672 446.927 162.982V160.898C446.757 161.009 446.522 161.111 446.224 161.205C445.934 161.29 445.606 161.371 445.24 161.447C444.873 161.516 444.507 161.58 444.14 161.639C443.774 161.69 443.441 161.737 443.143 161.78C442.504 161.874 441.946 162.023 441.468 162.227C440.991 162.432 440.62 162.709 440.356 163.058C440.092 163.399 439.96 163.825 439.96 164.337C439.96 165.078 440.228 165.645 440.765 166.037C441.311 166.42 442.001 166.612 442.836 166.612ZM467.005 150.364V154.455H455.179V150.364H467.005ZM457.864 145.659H463.31V163.966C463.31 164.469 463.387 164.861 463.54 165.142C463.694 165.415 463.907 165.607 464.179 165.717C464.461 165.828 464.784 165.884 465.151 165.884C465.407 165.884 465.662 165.862 465.918 165.82C466.174 165.768 466.37 165.73 466.506 165.705L467.363 169.757C467.09 169.842 466.706 169.94 466.212 170.051C465.718 170.17 465.117 170.243 464.409 170.268C463.097 170.32 461.946 170.145 460.958 169.744C459.978 169.344 459.215 168.722 458.669 167.878C458.124 167.034 457.855 165.969 457.864 164.682V145.659ZM476.152 170.371C474.899 170.371 473.782 170.153 472.802 169.719C471.822 169.276 471.047 168.624 470.475 167.763C469.913 166.893 469.632 165.811 469.632 164.516C469.632 163.425 469.832 162.509 470.233 161.767C470.633 161.026 471.179 160.429 471.869 159.977C472.559 159.526 473.343 159.185 474.221 158.955C475.108 158.724 476.037 158.562 477.008 158.469C478.15 158.349 479.071 158.239 479.77 158.136C480.468 158.026 480.975 157.864 481.291 157.651C481.606 157.437 481.764 157.122 481.764 156.705V156.628C481.764 155.818 481.508 155.192 480.997 154.749C480.494 154.305 479.778 154.084 478.849 154.084C477.869 154.084 477.089 154.301 476.51 154.736C475.93 155.162 475.547 155.699 475.359 156.347L470.322 155.938C470.578 154.744 471.081 153.713 471.831 152.844C472.581 151.966 473.548 151.293 474.733 150.824C475.926 150.347 477.306 150.108 478.875 150.108C479.966 150.108 481.01 150.236 482.007 150.491C483.012 150.747 483.903 151.143 484.679 151.68C485.463 152.217 486.081 152.908 486.532 153.751C486.984 154.587 487.21 155.588 487.21 156.756V170H482.045V167.277H481.892C481.576 167.891 481.154 168.432 480.626 168.901C480.098 169.361 479.463 169.723 478.721 169.987C477.98 170.243 477.123 170.371 476.152 170.371ZM477.711 166.612C478.512 166.612 479.22 166.455 479.833 166.139C480.447 165.815 480.929 165.381 481.278 164.835C481.627 164.29 481.802 163.672 481.802 162.982V160.898C481.632 161.009 481.397 161.111 481.099 161.205C480.809 161.29 480.481 161.371 480.115 161.447C479.748 161.516 479.382 161.58 479.015 161.639C478.649 161.69 478.316 161.737 478.018 161.78C477.379 161.874 476.821 162.023 476.343 162.227C475.866 162.432 475.495 162.709 475.231 163.058C474.967 163.399 474.835 163.825 474.835 164.337C474.835 165.078 475.103 165.645 475.64 166.037C476.186 166.42 476.876 166.612 477.711 166.612ZM499.767 170V150.364H504.957V153.828H505.188C505.597 152.678 506.278 151.77 507.233 151.105C508.188 150.44 509.33 150.108 510.659 150.108C512.006 150.108 513.152 150.445 514.098 151.118C515.044 151.783 515.675 152.686 515.99 153.828H516.195C516.595 152.703 517.32 151.804 518.368 151.131C519.425 150.449 520.673 150.108 522.114 150.108C523.946 150.108 525.433 150.692 526.575 151.859C527.726 153.018 528.301 154.663 528.301 156.794V170H522.868V157.868C522.868 156.777 522.578 155.959 521.999 155.413C521.419 154.868 520.695 154.595 519.825 154.595C518.837 154.595 518.065 154.911 517.511 155.541C516.957 156.163 516.68 156.986 516.68 158.009V170H511.401V157.753C511.401 156.79 511.124 156.023 510.57 155.452C510.024 154.881 509.304 154.595 508.409 154.595C507.804 154.595 507.259 154.749 506.773 155.055C506.295 155.354 505.916 155.776 505.635 156.321C505.354 156.858 505.213 157.489 505.213 158.213V170H499.767ZM538.202 170.371C536.95 170.371 535.833 170.153 534.853 169.719C533.873 169.276 533.097 168.624 532.526 167.763C531.964 166.893 531.683 165.811 531.683 164.516C531.683 163.425 531.883 162.509 532.283 161.767C532.684 161.026 533.229 160.429 533.92 159.977C534.61 159.526 535.394 159.185 536.272 158.955C537.158 158.724 538.087 158.562 539.059 158.469C540.201 158.349 541.121 158.239 541.82 158.136C542.519 158.026 543.026 157.864 543.342 157.651C543.657 157.437 543.815 157.122 543.815 156.705V156.628C543.815 155.818 543.559 155.192 543.048 154.749C542.545 154.305 541.829 154.084 540.9 154.084C539.92 154.084 539.14 154.301 538.56 154.736C537.981 155.162 537.597 155.699 537.41 156.347L532.373 155.938C532.629 154.744 533.131 153.713 533.881 152.844C534.631 151.966 535.599 151.293 536.783 150.824C537.977 150.347 539.357 150.108 540.925 150.108C542.016 150.108 543.06 150.236 544.058 150.491C545.063 150.747 545.954 151.143 546.729 151.68C547.513 152.217 548.131 152.908 548.583 153.751C549.035 154.587 549.261 155.588 549.261 156.756V170H544.096V167.277H543.942C543.627 167.891 543.205 168.432 542.677 168.901C542.148 169.361 541.513 169.723 540.772 169.987C540.031 170.243 539.174 170.371 538.202 170.371ZM539.762 166.612C540.563 166.612 541.271 166.455 541.884 166.139C542.498 165.815 542.979 165.381 543.329 164.835C543.678 164.29 543.853 163.672 543.853 162.982V160.898C543.683 161.009 543.448 161.111 543.15 161.205C542.86 161.29 542.532 161.371 542.165 161.447C541.799 161.516 541.433 161.58 541.066 161.639C540.7 161.69 540.367 161.737 540.069 161.78C539.43 161.874 538.871 162.023 538.394 162.227C537.917 162.432 537.546 162.709 537.282 163.058C537.018 163.399 536.886 163.825 536.886 164.337C536.886 165.078 537.154 165.645 537.691 166.037C538.237 166.42 538.927 166.612 539.762 166.612ZM558.932 158.648V170H553.486V150.364H558.676V153.828H558.906C559.341 152.686 560.07 151.783 561.092 151.118C562.115 150.445 563.355 150.108 564.812 150.108C566.176 150.108 567.365 150.406 568.379 151.003C569.393 151.599 570.182 152.452 570.744 153.56C571.307 154.659 571.588 155.972 571.588 157.497V170H566.142V158.469C566.151 157.267 565.844 156.33 565.222 155.656C564.599 154.974 563.743 154.634 562.652 154.634C561.919 154.634 561.271 154.791 560.709 155.107C560.155 155.422 559.72 155.882 559.405 156.487C559.098 157.084 558.94 157.804 558.932 158.648ZM581.48 170.371C580.227 170.371 579.11 170.153 578.13 169.719C577.15 169.276 576.375 168.624 575.804 167.763C575.241 166.893 574.96 165.811 574.96 164.516C574.96 163.425 575.16 162.509 575.561 161.767C575.961 161.026 576.507 160.429 577.197 159.977C577.887 159.526 578.672 159.185 579.549 158.955C580.436 158.724 581.365 158.562 582.336 158.469C583.478 158.349 584.399 158.239 585.098 158.136C585.797 158.026 586.304 157.864 586.619 157.651C586.934 157.437 587.092 157.122 587.092 156.705V156.628C587.092 155.818 586.836 155.192 586.325 154.749C585.822 154.305 585.106 154.084 584.177 154.084C583.197 154.084 582.417 154.301 581.838 154.736C581.258 155.162 580.875 155.699 580.687 156.347L575.65 155.938C575.906 154.744 576.409 153.713 577.159 152.844C577.909 151.966 578.876 151.293 580.061 150.824C581.254 150.347 582.635 150.108 584.203 150.108C585.294 150.108 586.338 150.236 587.335 150.491C588.341 150.747 589.231 151.143 590.007 151.68C590.791 152.217 591.409 152.908 591.86 153.751C592.312 154.587 592.538 155.588 592.538 156.756V170H587.373V167.277H587.22C586.904 167.891 586.483 168.432 585.954 168.901C585.426 169.361 584.791 169.723 584.049 169.987C583.308 170.243 582.451 170.371 581.48 170.371ZM583.039 166.612C583.841 166.612 584.548 166.455 585.162 166.139C585.775 165.815 586.257 165.381 586.606 164.835C586.956 164.29 587.13 163.672 587.13 162.982V160.898C586.96 161.009 586.725 161.111 586.427 161.205C586.137 161.29 585.809 161.371 585.443 161.447C585.076 161.516 584.71 161.58 584.343 161.639C583.977 161.69 583.645 161.737 583.346 161.78C582.707 161.874 582.149 162.023 581.672 162.227C581.194 162.432 580.824 162.709 580.559 163.058C580.295 163.399 580.163 163.825 580.163 164.337C580.163 165.078 580.431 165.645 580.968 166.037C581.514 166.42 582.204 166.612 583.039 166.612ZM605.61 177.773C603.846 177.773 602.333 177.53 601.071 177.044C599.819 176.567 598.821 175.915 598.08 175.088C597.338 174.261 596.857 173.332 596.635 172.301L601.672 171.624C601.826 172.016 602.069 172.382 602.401 172.723C602.733 173.064 603.172 173.337 603.718 173.541C604.272 173.754 604.945 173.861 605.738 173.861C606.922 173.861 607.898 173.571 608.665 172.991C609.441 172.42 609.828 171.462 609.828 170.115V166.523H609.598C609.36 167.068 609.002 167.584 608.525 168.07C608.047 168.555 607.434 168.952 606.684 169.259C605.934 169.565 605.039 169.719 603.999 169.719C602.525 169.719 601.182 169.378 599.972 168.696C598.77 168.006 597.811 166.953 597.096 165.538C596.388 164.115 596.034 162.317 596.034 160.143C596.034 157.919 596.397 156.061 597.121 154.57C597.846 153.078 598.809 151.962 600.01 151.22C601.221 150.479 602.546 150.108 603.986 150.108C605.086 150.108 606.006 150.295 606.748 150.67C607.489 151.037 608.086 151.497 608.537 152.051C608.998 152.597 609.351 153.134 609.598 153.662H609.803V150.364H615.211V170.192C615.211 171.862 614.801 173.26 613.983 174.385C613.165 175.51 612.032 176.354 610.583 176.916C609.142 177.487 607.485 177.773 605.61 177.773ZM605.725 165.628C606.603 165.628 607.344 165.411 607.949 164.976C608.563 164.533 609.032 163.902 609.355 163.084C609.688 162.257 609.854 161.268 609.854 160.118C609.854 158.967 609.692 157.97 609.368 157.126C609.044 156.274 608.576 155.614 607.962 155.145C607.348 154.676 606.603 154.442 605.725 154.442C604.83 154.442 604.076 154.685 603.462 155.17C602.848 155.648 602.384 156.312 602.069 157.165C601.753 158.017 601.596 159.001 601.596 160.118C601.596 161.251 601.753 162.232 602.069 163.058C602.392 163.876 602.857 164.511 603.462 164.963C604.076 165.406 604.83 165.628 605.725 165.628ZM628.493 170.384C626.473 170.384 624.735 169.974 623.277 169.156C621.828 168.33 620.712 167.162 619.928 165.653C619.144 164.136 618.752 162.342 618.752 160.271C618.752 158.251 619.144 156.479 619.928 154.953C620.712 153.428 621.816 152.239 623.239 151.386C624.671 150.534 626.35 150.108 628.276 150.108C629.571 150.108 630.777 150.317 631.894 150.734C633.019 151.143 633.999 151.761 634.834 152.588C635.678 153.415 636.334 154.455 636.803 155.707C637.272 156.952 637.506 158.409 637.506 160.08V161.575H620.925V158.2H632.38C632.38 157.416 632.209 156.722 631.868 156.116C631.527 155.511 631.054 155.038 630.449 154.697C629.853 154.348 629.158 154.173 628.365 154.173C627.539 154.173 626.806 154.365 626.167 154.749C625.536 155.124 625.042 155.631 624.684 156.27C624.326 156.901 624.142 157.604 624.134 158.379V161.588C624.134 162.56 624.313 163.399 624.671 164.107C625.037 164.814 625.553 165.359 626.218 165.743C626.882 166.126 627.671 166.318 628.583 166.318C629.188 166.318 629.742 166.233 630.245 166.062C630.748 165.892 631.178 165.636 631.536 165.295C631.894 164.955 632.167 164.537 632.354 164.043L637.391 164.375C637.135 165.585 636.611 166.642 635.819 167.545C635.034 168.44 634.02 169.139 632.776 169.642C631.54 170.136 630.113 170.384 628.493 170.384ZM641.06 170V150.364H646.25V153.828H646.48C646.89 152.678 647.571 151.77 648.526 151.105C649.48 150.44 650.623 150.108 651.952 150.108C653.299 150.108 654.445 150.445 655.391 151.118C656.337 151.783 656.968 152.686 657.283 153.828H657.488C657.888 152.703 658.613 151.804 659.661 151.131C660.718 150.449 661.966 150.108 663.407 150.108C665.239 150.108 666.726 150.692 667.868 151.859C669.019 153.018 669.594 154.663 669.594 156.794V170H664.161V157.868C664.161 156.777 663.871 155.959 663.292 155.413C662.712 154.868 661.988 154.595 661.118 154.595C660.13 154.595 659.358 154.911 658.804 155.541C658.25 156.163 657.973 156.986 657.973 158.009V170H652.694V157.753C652.694 156.79 652.417 156.023 651.863 155.452C651.317 154.881 650.597 154.595 649.702 154.595C649.097 154.595 648.551 154.749 648.066 155.055C647.588 155.354 647.209 155.776 646.928 156.321C646.647 156.858 646.506 157.489 646.506 158.213V170H641.06ZM682.845 170.384C680.825 170.384 679.086 169.974 677.629 169.156C676.18 168.33 675.064 167.162 674.279 165.653C673.495 164.136 673.103 162.342 673.103 160.271C673.103 158.251 673.495 156.479 674.279 154.953C675.064 153.428 676.167 152.239 677.591 151.386C679.022 150.534 680.701 150.108 682.627 150.108C683.923 150.108 685.129 150.317 686.245 150.734C687.37 151.143 688.35 151.761 689.186 152.588C690.029 153.415 690.686 154.455 691.154 155.707C691.623 156.952 691.858 158.409 691.858 160.08V161.575H675.277V158.2H686.731C686.731 157.416 686.561 156.722 686.22 156.116C685.879 155.511 685.406 155.038 684.801 154.697C684.204 154.348 683.51 154.173 682.717 154.173C681.89 154.173 681.157 154.365 680.518 154.749C679.887 155.124 679.393 155.631 679.035 156.27C678.677 156.901 678.494 157.604 678.485 158.379V161.588C678.485 162.56 678.664 163.399 679.022 164.107C679.389 164.814 679.904 165.359 680.569 165.743C681.234 166.126 682.022 166.318 682.934 166.318C683.539 166.318 684.093 166.233 684.596 166.062C685.099 165.892 685.529 165.636 685.887 165.295C686.245 164.955 686.518 164.537 686.706 164.043L691.743 164.375C691.487 165.585 690.963 166.642 690.17 167.545C689.386 168.44 688.372 169.139 687.127 169.642C685.892 170.136 684.464 170.384 682.845 170.384ZM700.858 158.648V170H695.412V150.364H700.602V153.828H700.832C701.267 152.686 701.995 151.783 703.018 151.118C704.041 150.445 705.281 150.108 706.738 150.108C708.102 150.108 709.291 150.406 710.305 151.003C711.319 151.599 712.108 152.452 712.67 153.56C713.233 154.659 713.514 155.972 713.514 157.497V170H708.068V158.469C708.076 157.267 707.77 156.33 707.147 155.656C706.525 154.974 705.669 154.634 704.578 154.634C703.845 154.634 703.197 154.791 702.635 155.107C702.081 155.422 701.646 155.882 701.331 156.487C701.024 157.084 700.866 157.804 700.858 158.648ZM728.251 150.364V154.455H716.425V150.364H728.251ZM719.11 145.659H724.556V163.966C724.556 164.469 724.633 164.861 724.786 165.142C724.94 165.415 725.153 165.607 725.425 165.717C725.707 165.828 726.031 165.884 726.397 165.884C726.653 165.884 726.908 165.862 727.164 165.82C727.42 165.768 727.616 165.73 727.752 165.705L728.609 169.757C728.336 169.842 727.952 169.94 727.458 170.051C726.964 170.17 726.363 170.243 725.656 170.268C724.343 170.32 723.192 170.145 722.204 169.744C721.224 169.344 720.461 168.722 719.915 167.878C719.37 167.034 719.102 165.969 719.11 164.682V145.659ZM750.69 150.364V154.455H738.571V150.364H750.69ZM741.345 170V148.945C741.345 147.521 741.622 146.341 742.176 145.403C742.738 144.466 743.505 143.763 744.477 143.294C745.449 142.825 746.552 142.591 747.788 142.591C748.623 142.591 749.386 142.655 750.076 142.783C750.775 142.911 751.295 143.026 751.636 143.128L750.664 147.219C750.451 147.151 750.187 147.087 749.872 147.027C749.565 146.967 749.25 146.938 748.926 146.938C748.125 146.938 747.566 147.125 747.251 147.5C746.936 147.866 746.778 148.382 746.778 149.047V170H741.345ZM762.186 170.384C760.2 170.384 758.483 169.962 757.034 169.118C755.594 168.266 754.482 167.081 753.697 165.564C752.913 164.038 752.521 162.27 752.521 160.259C752.521 158.23 752.913 156.457 753.697 154.94C754.482 153.415 755.594 152.23 757.034 151.386C758.483 150.534 760.2 150.108 762.186 150.108C764.172 150.108 765.885 150.534 767.325 151.386C768.774 152.23 769.891 153.415 770.675 154.94C771.459 156.457 771.851 158.23 771.851 160.259C771.851 162.27 771.459 164.038 770.675 165.564C769.891 167.081 768.774 168.266 767.325 169.118C765.885 169.962 764.172 170.384 762.186 170.384ZM762.212 166.165C763.115 166.165 763.869 165.909 764.474 165.398C765.08 164.878 765.536 164.17 765.842 163.276C766.158 162.381 766.315 161.362 766.315 160.22C766.315 159.078 766.158 158.06 765.842 157.165C765.536 156.27 765.08 155.562 764.474 155.043C763.869 154.523 763.115 154.263 762.212 154.263C761.3 154.263 760.533 154.523 759.911 155.043C759.297 155.562 758.832 156.27 758.517 157.165C758.21 158.06 758.057 159.078 758.057 160.22C758.057 161.362 758.21 162.381 758.517 163.276C758.832 164.17 759.297 164.878 759.911 165.398C760.533 165.909 761.3 166.165 762.212 166.165ZM775.392 170V150.364H780.672V153.79H780.876C781.234 152.571 781.835 151.651 782.679 151.028C783.523 150.398 784.494 150.082 785.594 150.082C785.866 150.082 786.161 150.099 786.476 150.134C786.791 150.168 787.068 150.214 787.307 150.274V155.107C787.051 155.03 786.697 154.962 786.246 154.902C785.794 154.842 785.381 154.812 785.006 154.812C784.205 154.812 783.489 154.987 782.858 155.337C782.236 155.678 781.741 156.155 781.375 156.768C781.017 157.382 780.838 158.089 780.838 158.891V170H775.392ZM176.472 230.384C174.452 230.384 172.713 229.974 171.256 229.156C169.807 228.33 168.691 227.162 167.906 225.653C167.122 224.136 166.73 222.342 166.73 220.271C166.73 218.251 167.122 216.479 167.906 214.953C168.691 213.428 169.794 212.239 171.218 211.386C172.649 210.534 174.328 210.108 176.254 210.108C177.55 210.108 178.756 210.317 179.872 210.734C180.997 211.143 181.977 211.761 182.813 212.588C183.656 213.415 184.313 214.455 184.781 215.707C185.25 216.952 185.485 218.409 185.485 220.08V221.575H168.904V218.2H180.358C180.358 217.416 180.188 216.722 179.847 216.116C179.506 215.511 179.033 215.038 178.428 214.697C177.831 214.348 177.137 214.173 176.344 214.173C175.517 214.173 174.784 214.365 174.145 214.749C173.514 215.124 173.02 215.631 172.662 216.27C172.304 216.901 172.121 217.604 172.112 218.379V221.588C172.112 222.56 172.291 223.399 172.649 224.107C173.016 224.814 173.531 225.359 174.196 225.743C174.861 226.126 175.649 226.318 176.561 226.318C177.166 226.318 177.72 226.233 178.223 226.062C178.726 225.892 179.156 225.636 179.514 225.295C179.872 224.955 180.145 224.537 180.333 224.043L185.369 224.375C185.114 225.585 184.59 226.642 183.797 227.545C183.013 228.44 181.999 229.139 180.754 229.642C179.519 230.136 178.091 230.384 176.472 230.384ZM199.598 210.364V214.455H187.479V210.364H199.598ZM190.253 230V208.945C190.253 207.521 190.53 206.341 191.084 205.403C191.646 204.466 192.414 203.763 193.385 203.294C194.357 202.825 195.46 202.591 196.696 202.591C197.531 202.591 198.294 202.655 198.985 202.783C199.683 202.911 200.203 203.026 200.544 203.128L199.573 207.219C199.36 207.151 199.095 207.087 198.78 207.027C198.473 206.967 198.158 206.938 197.834 206.938C197.033 206.938 196.475 207.125 196.159 207.5C195.844 207.866 195.686 208.382 195.686 209.047V230H190.253ZM213.485 210.364V214.455H201.366V210.364H213.485ZM204.14 230V208.945C204.14 207.521 204.417 206.341 204.971 205.403C205.533 204.466 206.3 203.763 207.272 203.294C208.243 202.825 209.347 202.591 210.583 202.591C211.418 202.591 212.181 202.655 212.871 202.783C213.57 202.911 214.09 203.026 214.431 203.128L213.459 207.219C213.246 207.151 212.982 207.087 212.667 207.027C212.36 206.967 212.045 206.938 211.721 206.938C210.92 206.938 210.361 207.125 210.046 207.5C209.731 207.866 209.573 208.382 209.573 209.047V230H204.14ZM216.812 230V210.364H222.258V230H216.812ZM219.548 207.832C218.738 207.832 218.044 207.564 217.464 207.027C216.893 206.482 216.607 205.83 216.607 205.071C216.607 204.321 216.893 203.678 217.464 203.141C218.044 202.595 218.738 202.322 219.548 202.322C220.357 202.322 221.048 202.595 221.619 203.141C222.198 203.678 222.488 204.321 222.488 205.071C222.488 205.83 222.198 206.482 221.619 207.027C221.048 207.564 220.357 207.832 219.548 207.832ZM235.493 230.384C233.481 230.384 231.751 229.957 230.302 229.105C228.862 228.244 227.754 227.051 226.979 225.526C226.211 224 225.828 222.244 225.828 220.259C225.828 218.247 226.216 216.483 226.991 214.966C227.775 213.44 228.888 212.251 230.328 211.399C231.768 210.538 233.481 210.108 235.467 210.108C237.18 210.108 238.68 210.419 239.967 211.041C241.254 211.663 242.273 212.537 243.023 213.662C243.773 214.787 244.186 216.108 244.263 217.625H239.123C238.979 216.645 238.595 215.857 237.973 215.26C237.359 214.655 236.554 214.352 235.557 214.352C234.713 214.352 233.976 214.582 233.345 215.043C232.723 215.494 232.237 216.155 231.888 217.024C231.538 217.893 231.363 218.946 231.363 220.182C231.363 221.435 231.534 222.5 231.875 223.378C232.224 224.256 232.714 224.925 233.345 225.385C233.976 225.845 234.713 226.075 235.557 226.075C236.179 226.075 236.737 225.947 237.231 225.692C237.734 225.436 238.148 225.065 238.471 224.58C238.804 224.085 239.021 223.493 239.123 222.803H244.263C244.177 224.303 243.768 225.624 243.035 226.766C242.311 227.899 241.309 228.786 240.031 229.425C238.753 230.064 237.24 230.384 235.493 230.384ZM247.749 230V210.364H253.195V230H247.749ZM250.485 207.832C249.676 207.832 248.981 207.564 248.401 207.027C247.83 206.482 247.545 205.83 247.545 205.071C247.545 204.321 247.83 203.678 248.401 203.141C248.981 202.595 249.676 202.322 250.485 202.322C251.295 202.322 251.985 202.595 252.556 203.141C253.136 203.678 253.426 204.321 253.426 205.071C253.426 205.83 253.136 206.482 252.556 207.027C251.985 207.564 251.295 207.832 250.485 207.832ZM266.507 230.384C264.487 230.384 262.748 229.974 261.291 229.156C259.842 228.33 258.726 227.162 257.942 225.653C257.157 224.136 256.765 222.342 256.765 220.271C256.765 218.251 257.157 216.479 257.942 214.953C258.726 213.428 259.829 212.239 261.253 211.386C262.684 210.534 264.363 210.108 266.29 210.108C267.585 210.108 268.791 210.317 269.907 210.734C271.032 211.143 272.013 211.761 272.848 212.588C273.692 213.415 274.348 214.455 274.817 215.707C275.285 216.952 275.52 218.409 275.52 220.08V221.575H258.939V218.2H270.393C270.393 217.416 270.223 216.722 269.882 216.116C269.541 215.511 269.068 215.038 268.463 214.697C267.866 214.348 267.172 214.173 266.379 214.173C265.552 214.173 264.819 214.365 264.18 214.749C263.55 215.124 263.055 215.631 262.697 216.27C262.339 216.901 262.156 217.604 262.148 218.379V221.588C262.148 222.56 262.327 223.399 262.684 224.107C263.051 224.814 263.567 225.359 264.231 225.743C264.896 226.126 265.684 226.318 266.596 226.318C267.202 226.318 267.756 226.233 268.258 226.062C268.761 225.892 269.192 225.636 269.55 225.295C269.907 224.955 270.18 224.537 270.368 224.043L275.405 224.375C275.149 225.585 274.625 226.642 273.832 227.545C273.048 228.44 272.034 229.139 270.79 229.642C269.554 230.136 268.126 230.384 266.507 230.384ZM284.52 218.648V230H279.074V210.364H284.264V213.828H284.494C284.929 212.686 285.657 211.783 286.68 211.118C287.703 210.445 288.943 210.108 290.4 210.108C291.764 210.108 292.953 210.406 293.967 211.003C294.981 211.599 295.77 212.452 296.332 213.56C296.895 214.659 297.176 215.972 297.176 217.497V230H291.73V218.469C291.738 217.267 291.432 216.33 290.809 215.656C290.187 214.974 289.331 214.634 288.24 214.634C287.507 214.634 286.859 214.791 286.297 215.107C285.743 215.422 285.308 215.882 284.993 216.487C284.686 217.084 284.528 217.804 284.52 218.648ZM311.913 210.364V214.455H300.088V210.364H311.913ZM302.772 205.659H308.218V223.966C308.218 224.469 308.295 224.861 308.448 225.142C308.602 225.415 308.815 225.607 309.088 225.717C309.369 225.828 309.693 225.884 310.059 225.884C310.315 225.884 310.57 225.862 310.826 225.82C311.082 225.768 311.278 225.73 311.414 225.705L312.271 229.757C311.998 229.842 311.615 229.94 311.12 230.051C310.626 230.17 310.025 230.243 309.318 230.268C308.005 230.32 306.855 230.145 305.866 229.744C304.886 229.344 304.123 228.722 303.578 227.878C303.032 227.034 302.764 225.969 302.772 224.682V205.659ZM332.665 230.384C330.679 230.384 328.961 229.962 327.513 229.118C326.072 228.266 324.96 227.081 324.176 225.564C323.392 224.038 323 222.27 323 220.259C323 218.23 323.392 216.457 324.176 214.94C324.96 213.415 326.072 212.23 327.513 211.386C328.961 210.534 330.679 210.108 332.665 210.108C334.65 210.108 336.363 210.534 337.804 211.386C339.253 212.23 340.369 213.415 341.153 214.94C341.937 216.457 342.329 218.23 342.329 220.259C342.329 222.27 341.937 224.038 341.153 225.564C340.369 227.081 339.253 228.266 337.804 229.118C336.363 229.962 334.65 230.384 332.665 230.384ZM332.69 226.165C333.594 226.165 334.348 225.909 334.953 225.398C335.558 224.878 336.014 224.17 336.321 223.276C336.636 222.381 336.794 221.362 336.794 220.22C336.794 219.078 336.636 218.06 336.321 217.165C336.014 216.27 335.558 215.562 334.953 215.043C334.348 214.523 333.594 214.263 332.69 214.263C331.778 214.263 331.011 214.523 330.389 215.043C329.775 215.562 329.311 216.27 328.996 217.165C328.689 218.06 328.535 219.078 328.535 220.22C328.535 221.362 328.689 222.381 328.996 223.276C329.311 224.17 329.775 224.878 330.389 225.398C331.011 225.909 331.778 226.165 332.69 226.165ZM345.871 230V210.364H351.15V213.79H351.355C351.713 212.571 352.314 211.651 353.157 211.028C354.001 210.398 354.973 210.082 356.072 210.082C356.345 210.082 356.639 210.099 356.954 210.134C357.27 210.168 357.547 210.214 357.785 210.274V215.107C357.53 215.03 357.176 214.962 356.724 214.902C356.273 214.842 355.859 214.812 355.484 214.812C354.683 214.812 353.967 214.987 353.336 215.337C352.714 215.678 352.22 216.155 351.854 216.768C351.496 217.382 351.317 218.089 351.317 218.891V230H345.871ZM368.534 237.773C366.769 237.773 365.257 237.53 363.995 237.044C362.742 236.567 361.745 235.915 361.004 235.088C360.262 234.261 359.781 233.332 359.559 232.301L364.596 231.624C364.749 232.016 364.992 232.382 365.325 232.723C365.657 233.064 366.096 233.337 366.642 233.541C367.195 233.754 367.869 233.861 368.661 233.861C369.846 233.861 370.822 233.571 371.589 232.991C372.365 232.42 372.752 231.462 372.752 230.115V226.523H372.522C372.284 227.068 371.926 227.584 371.448 228.07C370.971 228.555 370.357 228.952 369.607 229.259C368.857 229.565 367.963 229.719 366.923 229.719C365.448 229.719 364.106 229.378 362.896 228.696C361.694 228.006 360.735 226.953 360.019 225.538C359.312 224.115 358.958 222.317 358.958 220.143C358.958 217.919 359.32 216.061 360.045 214.57C360.769 213.078 361.732 211.962 362.934 211.22C364.144 210.479 365.47 210.108 366.91 210.108C368.009 210.108 368.93 210.295 369.671 210.67C370.413 211.037 371.009 211.497 371.461 212.051C371.921 212.597 372.275 213.134 372.522 213.662H372.727V210.364H378.134V230.192C378.134 231.862 377.725 233.26 376.907 234.385C376.089 235.51 374.955 236.354 373.507 236.916C372.066 237.487 370.409 237.773 368.534 237.773ZM368.649 225.628C369.526 225.628 370.268 225.411 370.873 224.976C371.487 224.533 371.955 223.902 372.279 223.084C372.612 222.257 372.778 221.268 372.778 220.118C372.778 218.967 372.616 217.97 372.292 217.126C371.968 216.274 371.499 215.614 370.886 215.145C370.272 214.676 369.526 214.442 368.649 214.442C367.754 214.442 366.999 214.685 366.386 215.17C365.772 215.648 365.308 216.312 364.992 217.165C364.677 218.017 364.519 219.001 364.519 220.118C364.519 221.251 364.677 222.232 364.992 223.058C365.316 223.876 365.781 224.511 366.386 224.963C366.999 225.406 367.754 225.628 368.649 225.628ZM388.068 230.371C386.815 230.371 385.698 230.153 384.718 229.719C383.738 229.276 382.963 228.624 382.392 227.763C381.829 226.893 381.548 225.811 381.548 224.516C381.548 223.425 381.748 222.509 382.149 221.767C382.549 221.026 383.095 220.429 383.785 219.977C384.475 219.526 385.259 219.185 386.137 218.955C387.024 218.724 387.953 218.562 388.924 218.469C390.066 218.349 390.987 218.239 391.686 218.136C392.384 218.026 392.892 217.864 393.207 217.651C393.522 217.437 393.68 217.122 393.68 216.705V216.628C393.68 215.818 393.424 215.192 392.913 214.749C392.41 214.305 391.694 214.084 390.765 214.084C389.785 214.084 389.005 214.301 388.426 214.736C387.846 215.162 387.463 215.699 387.275 216.347L382.238 215.938C382.494 214.744 382.997 213.713 383.747 212.844C384.497 211.966 385.464 211.293 386.649 210.824C387.842 210.347 389.222 210.108 390.791 210.108C391.882 210.108 392.926 210.236 393.923 210.491C394.928 210.747 395.819 211.143 396.595 211.68C397.379 212.217 397.997 212.908 398.448 213.751C398.9 214.587 399.126 215.588 399.126 216.756V230H393.961V227.277H393.808C393.492 227.891 393.07 228.432 392.542 228.901C392.014 229.361 391.379 229.723 390.637 229.987C389.896 230.243 389.039 230.371 388.068 230.371ZM389.627 226.612C390.428 226.612 391.136 226.455 391.749 226.139C392.363 225.815 392.845 225.381 393.194 224.835C393.544 224.29 393.718 223.672 393.718 222.982V220.898C393.548 221.009 393.313 221.111 393.015 221.205C392.725 221.29 392.397 221.371 392.031 221.447C391.664 221.516 391.298 221.58 390.931 221.639C390.565 221.69 390.232 221.737 389.934 221.78C389.295 221.874 388.737 222.023 388.259 222.227C387.782 222.432 387.411 222.709 387.147 223.058C386.883 223.399 386.751 223.825 386.751 224.337C386.751 225.078 387.019 225.645 387.556 226.037C388.102 226.42 388.792 226.612 389.627 226.612ZM408.797 218.648V230H403.351V210.364H408.541V213.828H408.771C409.206 212.686 409.935 211.783 410.958 211.118C411.98 210.445 413.22 210.108 414.678 210.108C416.041 210.108 417.23 210.406 418.244 211.003C419.259 211.599 420.047 212.452 420.61 213.56C421.172 214.659 421.453 215.972 421.453 217.497V230H416.007V218.469C416.016 217.267 415.709 216.33 415.087 215.656C414.465 214.974 413.608 214.634 412.517 214.634C411.784 214.634 411.137 214.791 410.574 215.107C410.02 215.422 409.585 215.882 409.27 216.487C408.963 217.084 408.806 217.804 408.797 218.648ZM425.746 230V210.364H431.192V230H425.746ZM428.481 207.832C427.672 207.832 426.977 207.564 426.398 207.027C425.827 206.482 425.541 205.83 425.541 205.071C425.541 204.321 425.827 203.678 426.398 203.141C426.977 202.595 427.672 202.322 428.481 202.322C429.291 202.322 429.981 202.595 430.552 203.141C431.132 203.678 431.422 204.321 431.422 205.071C431.422 205.83 431.132 206.482 430.552 207.027C429.981 207.564 429.291 207.832 428.481 207.832ZM435.452 230V226.753L445.066 214.851V214.71H435.784V210.364H451.624V213.905L442.598 225.513V225.653H451.956V230H435.452ZM461.72 230.371C460.467 230.371 459.351 230.153 458.371 229.719C457.39 229.276 456.615 228.624 456.044 227.763C455.481 226.893 455.2 225.811 455.2 224.516C455.2 223.425 455.4 222.509 455.801 221.767C456.202 221.026 456.747 220.429 457.437 219.977C458.128 219.526 458.912 219.185 459.79 218.955C460.676 218.724 461.605 218.562 462.577 218.469C463.719 218.349 464.639 218.239 465.338 218.136C466.037 218.026 466.544 217.864 466.859 217.651C467.175 217.437 467.332 217.122 467.332 216.705V216.628C467.332 215.818 467.077 215.192 466.565 214.749C466.062 214.305 465.346 214.084 464.417 214.084C463.437 214.084 462.657 214.301 462.078 214.736C461.498 215.162 461.115 215.699 460.927 216.347L455.89 215.938C456.146 214.744 456.649 213.713 457.399 212.844C458.149 211.966 459.116 211.293 460.301 210.824C461.494 210.347 462.875 210.108 464.443 210.108C465.534 210.108 466.578 210.236 467.575 210.491C468.581 210.747 469.471 211.143 470.247 211.68C471.031 212.217 471.649 212.908 472.101 213.751C472.552 214.587 472.778 215.588 472.778 216.756V230H467.613V227.277H467.46C467.145 227.891 466.723 228.432 466.194 228.901C465.666 229.361 465.031 229.723 464.29 229.987C463.548 230.243 462.692 230.371 461.72 230.371ZM463.28 226.612C464.081 226.612 464.788 226.455 465.402 226.139C466.015 225.815 466.497 225.381 466.846 224.835C467.196 224.29 467.371 223.672 467.371 222.982V220.898C467.2 221.009 466.966 221.111 466.667 221.205C466.378 221.29 466.05 221.371 465.683 221.447C465.317 221.516 464.95 221.58 464.584 221.639C464.217 221.69 463.885 221.737 463.586 221.78C462.947 221.874 462.389 222.023 461.912 222.227C461.434 222.432 461.064 222.709 460.8 223.058C460.535 223.399 460.403 223.825 460.403 224.337C460.403 225.078 460.672 225.645 461.209 226.037C461.754 226.42 462.444 226.612 463.28 226.612ZM487.448 210.364V214.455H475.623V210.364H487.448ZM478.307 205.659H483.753V223.966C483.753 224.469 483.83 224.861 483.983 225.142C484.137 225.415 484.35 225.607 484.623 225.717C484.904 225.828 485.228 225.884 485.594 225.884C485.85 225.884 486.106 225.862 486.361 225.82C486.617 225.768 486.813 225.73 486.949 225.705L487.806 229.757C487.533 229.842 487.15 229.94 486.655 230.051C486.161 230.17 485.56 230.243 484.853 230.268C483.54 230.32 482.39 230.145 481.401 229.744C480.421 229.344 479.658 228.722 479.113 227.878C478.567 227.034 478.299 225.969 478.307 224.682V205.659ZM490.996 230V210.364H496.442V230H490.996ZM493.731 207.832C492.922 207.832 492.227 207.564 491.648 207.027C491.077 206.482 490.791 205.83 490.791 205.071C490.791 204.321 491.077 203.678 491.648 203.141C492.227 202.595 492.922 202.322 493.731 202.322C494.541 202.322 495.231 202.595 495.802 203.141C496.382 203.678 496.672 204.321 496.672 205.071C496.672 205.83 496.382 206.482 495.802 207.027C495.231 207.564 494.541 207.832 493.731 207.832ZM509.676 230.384C507.691 230.384 505.973 229.962 504.524 229.118C503.084 228.266 501.972 227.081 501.188 225.564C500.404 224.038 500.012 222.27 500.012 220.259C500.012 218.23 500.404 216.457 501.188 214.94C501.972 213.415 503.084 212.23 504.524 211.386C505.973 210.534 507.691 210.108 509.676 210.108C511.662 210.108 513.375 210.534 514.816 211.386C516.264 212.23 517.381 213.415 518.165 214.94C518.949 216.457 519.341 218.23 519.341 220.259C519.341 222.27 518.949 224.038 518.165 225.564C517.381 227.081 516.264 228.266 514.816 229.118C513.375 229.962 511.662 230.384 509.676 230.384ZM509.702 226.165C510.605 226.165 511.36 225.909 511.965 225.398C512.57 224.878 513.026 224.17 513.333 223.276C513.648 222.381 513.806 221.362 513.806 220.22C513.806 219.078 513.648 218.06 513.333 217.165C513.026 216.27 512.57 215.562 511.965 215.043C511.36 214.523 510.605 214.263 509.702 214.263C508.79 214.263 508.023 214.523 507.401 215.043C506.787 215.562 506.323 216.27 506.007 217.165C505.7 218.06 505.547 219.078 505.547 220.22C505.547 221.362 505.7 222.381 506.007 223.276C506.323 224.17 506.787 224.878 507.401 225.398C508.023 225.909 508.79 226.165 509.702 226.165ZM528.328 218.648V230H522.882V210.364H528.073V213.828H528.303C528.737 212.686 529.466 211.783 530.489 211.118C531.512 210.445 532.752 210.108 534.209 210.108C535.573 210.108 536.762 210.406 537.776 211.003C538.79 211.599 539.578 212.452 540.141 213.56C540.703 214.659 540.985 215.972 540.985 217.497V230H535.539V218.469C535.547 217.267 535.24 216.33 534.618 215.656C533.996 214.974 533.139 214.634 532.048 214.634C531.316 214.634 530.668 214.791 530.105 215.107C529.551 215.422 529.117 215.882 528.801 216.487C528.494 217.084 528.337 217.804 528.328 218.648ZM559.208 230.371C557.955 230.371 556.839 230.153 555.859 229.719C554.879 229.276 554.103 228.624 553.532 227.763C552.97 226.893 552.688 225.811 552.688 224.516C552.688 223.425 552.889 222.509 553.289 221.767C553.69 221.026 554.235 220.429 554.926 219.977C555.616 219.526 556.4 219.185 557.278 218.955C558.164 218.724 559.093 218.562 560.065 218.469C561.207 218.349 562.127 218.239 562.826 218.136C563.525 218.026 564.032 217.864 564.347 217.651C564.663 217.437 564.82 217.122 564.82 216.705V216.628C564.82 215.818 564.565 215.192 564.053 214.749C563.551 214.305 562.835 214.084 561.906 214.084C560.926 214.084 560.146 214.301 559.566 214.736C558.987 215.162 558.603 215.699 558.416 216.347L553.379 215.938C553.634 214.744 554.137 213.713 554.887 212.844C555.637 211.966 556.605 211.293 557.789 210.824C558.982 210.347 560.363 210.108 561.931 210.108C563.022 210.108 564.066 210.236 565.063 210.491C566.069 210.747 566.96 211.143 567.735 211.68C568.519 212.217 569.137 212.908 569.589 213.751C570.041 214.587 570.267 215.588 570.267 216.756V230H565.102V227.277H564.948C564.633 227.891 564.211 228.432 563.683 228.901C563.154 229.361 562.519 229.723 561.778 229.987C561.036 230.243 560.18 230.371 559.208 230.371ZM560.768 226.612C561.569 226.612 562.276 226.455 562.89 226.139C563.504 225.815 563.985 225.381 564.335 224.835C564.684 224.29 564.859 223.672 564.859 222.982V220.898C564.688 221.009 564.454 221.111 564.156 221.205C563.866 221.29 563.538 221.371 563.171 221.447C562.805 221.516 562.438 221.58 562.072 221.639C561.705 221.69 561.373 221.737 561.075 221.78C560.436 221.874 559.877 222.023 559.4 222.227C558.923 222.432 558.552 222.709 558.288 223.058C558.024 223.399 557.892 223.825 557.892 224.337C557.892 225.078 558.16 225.645 558.697 226.037C559.242 226.42 559.933 226.612 560.768 226.612ZM579.938 218.648V230H574.492V210.364H579.682V213.828H579.912C580.347 212.686 581.075 211.783 582.098 211.118C583.121 210.445 584.361 210.108 585.818 210.108C587.182 210.108 588.371 210.406 589.385 211.003C590.399 211.599 591.188 212.452 591.75 213.56C592.313 214.659 592.594 215.972 592.594 217.497V230H587.148V218.469C587.156 217.267 586.85 216.33 586.227 215.656C585.605 214.974 584.749 214.634 583.658 214.634C582.925 214.634 582.277 214.791 581.715 215.107C581.161 215.422 580.726 215.882 580.411 216.487C580.104 217.084 579.946 217.804 579.938 218.648ZM604.122 230.32C602.631 230.32 601.28 229.936 600.069 229.169C598.868 228.393 597.913 227.256 597.206 225.756C596.507 224.247 596.157 222.398 596.157 220.207C596.157 217.957 596.52 216.087 597.244 214.595C597.969 213.095 598.932 211.974 600.133 211.233C601.344 210.483 602.669 210.108 604.109 210.108C605.209 210.108 606.125 210.295 606.858 210.67C607.599 211.037 608.196 211.497 608.648 212.051C609.108 212.597 609.457 213.134 609.696 213.662H609.862V203.818H615.295V230H609.926V226.855H609.696C609.44 227.401 609.078 227.942 608.609 228.479C608.149 229.007 607.548 229.446 606.807 229.795C606.074 230.145 605.179 230.32 604.122 230.32ZM605.848 225.986C606.726 225.986 607.467 225.747 608.072 225.27C608.686 224.784 609.155 224.107 609.479 223.237C609.811 222.368 609.977 221.349 609.977 220.182C609.977 219.014 609.815 218 609.491 217.139C609.167 216.278 608.699 215.614 608.085 215.145C607.471 214.676 606.726 214.442 605.848 214.442C604.953 214.442 604.199 214.685 603.585 215.17C602.971 215.656 602.507 216.33 602.192 217.19C601.876 218.051 601.719 219.048 601.719 220.182C601.719 221.324 601.876 222.334 602.192 223.212C602.515 224.081 602.98 224.763 603.585 225.257C604.199 225.743 604.953 225.986 605.848 225.986ZM644.443 215.963L639.457 216.27C639.372 215.844 639.189 215.46 638.907 215.119C638.626 214.77 638.256 214.493 637.795 214.288C637.344 214.075 636.802 213.969 636.172 213.969C635.328 213.969 634.616 214.148 634.037 214.506C633.457 214.855 633.167 215.324 633.167 215.912C633.167 216.381 633.355 216.777 633.73 217.101C634.105 217.425 634.748 217.685 635.66 217.881L639.214 218.597C641.123 218.989 642.547 219.619 643.484 220.489C644.422 221.358 644.89 222.5 644.89 223.915C644.89 225.202 644.511 226.331 643.753 227.303C643.003 228.274 641.971 229.033 640.659 229.578C639.355 230.115 637.851 230.384 636.146 230.384C633.547 230.384 631.476 229.842 629.933 228.76C628.399 227.669 627.5 226.186 627.236 224.311L632.592 224.03C632.754 224.822 633.146 225.428 633.768 225.845C634.39 226.254 635.187 226.459 636.159 226.459C637.113 226.459 637.881 226.276 638.46 225.909C639.048 225.534 639.346 225.053 639.355 224.464C639.346 223.97 639.138 223.565 638.729 223.25C638.319 222.926 637.689 222.679 636.836 222.509L633.436 221.831C631.518 221.447 630.091 220.783 629.153 219.837C628.224 218.891 627.76 217.685 627.76 216.219C627.76 214.957 628.101 213.871 628.782 212.959C629.473 212.047 630.44 211.344 631.684 210.849C632.937 210.355 634.403 210.108 636.082 210.108C638.562 210.108 640.514 210.632 641.937 211.68C643.369 212.729 644.204 214.156 644.443 215.963ZM658.764 210.364V214.455H646.939V210.364H658.764ZM649.624 205.659H655.07V223.966C655.07 224.469 655.146 224.861 655.3 225.142C655.453 225.415 655.666 225.607 655.939 225.717C656.22 225.828 656.544 225.884 656.911 225.884C657.166 225.884 657.422 225.862 657.678 225.82C657.933 225.768 658.129 225.73 658.266 225.705L659.122 229.757C658.85 229.842 658.466 229.94 657.972 230.051C657.477 230.17 656.877 230.243 656.169 230.268C654.857 230.32 653.706 230.145 652.718 229.744C651.737 229.344 650.975 228.722 650.429 227.878C649.884 227.034 649.615 225.969 649.624 224.682V205.659ZM670.973 230.384C668.987 230.384 667.27 229.962 665.821 229.118C664.381 228.266 663.269 227.081 662.485 225.564C661.7 224.038 661.308 222.27 661.308 220.259C661.308 218.23 661.7 216.457 662.485 214.94C663.269 213.415 664.381 212.23 665.821 211.386C667.27 210.534 668.987 210.108 670.973 210.108C672.959 210.108 674.672 210.534 676.112 211.386C677.561 212.23 678.678 213.415 679.462 214.94C680.246 216.457 680.638 218.23 680.638 220.259C680.638 222.27 680.246 224.038 679.462 225.564C678.678 227.081 677.561 228.266 676.112 229.118C674.672 229.962 672.959 230.384 670.973 230.384ZM670.999 226.165C671.902 226.165 672.656 225.909 673.262 225.398C673.867 224.878 674.323 224.17 674.629 223.276C674.945 222.381 675.102 221.362 675.102 220.22C675.102 219.078 674.945 218.06 674.629 217.165C674.323 216.27 673.867 215.562 673.262 215.043C672.656 214.523 671.902 214.263 670.999 214.263C670.087 214.263 669.32 214.523 668.698 215.043C668.084 215.562 667.619 216.27 667.304 217.165C666.997 218.06 666.844 219.078 666.844 220.22C666.844 221.362 666.997 222.381 667.304 223.276C667.619 224.17 668.084 224.878 668.698 225.398C669.32 225.909 670.087 226.165 670.999 226.165ZM684.179 230V210.364H689.459V213.79H689.664C690.021 212.571 690.622 211.651 691.466 211.028C692.31 210.398 693.281 210.082 694.381 210.082C694.654 210.082 694.948 210.099 695.263 210.134C695.578 210.168 695.855 210.214 696.094 210.274V215.107C695.838 215.03 695.485 214.962 695.033 214.902C694.581 214.842 694.168 214.812 693.793 214.812C692.992 214.812 692.276 214.987 691.645 215.337C691.023 215.678 690.529 216.155 690.162 216.768C689.804 217.382 689.625 218.089 689.625 218.891V230H684.179ZM703.947 230.371C702.694 230.371 701.577 230.153 700.597 229.719C699.617 229.276 698.841 228.624 698.27 227.763C697.708 226.893 697.427 225.811 697.427 224.516C697.427 223.425 697.627 222.509 698.028 221.767C698.428 221.026 698.974 220.429 699.664 219.977C700.354 219.526 701.138 219.185 702.016 218.955C702.903 218.724 703.831 218.562 704.803 218.469C705.945 218.349 706.866 218.239 707.564 218.136C708.263 218.026 708.77 217.864 709.086 217.651C709.401 217.437 709.559 217.122 709.559 216.705V216.628C709.559 215.818 709.303 215.192 708.792 214.749C708.289 214.305 707.573 214.084 706.644 214.084C705.664 214.084 704.884 214.301 704.305 214.736C703.725 215.162 703.341 215.699 703.154 216.347L698.117 215.938C698.373 214.744 698.876 213.713 699.626 212.844C700.376 211.966 701.343 211.293 702.528 210.824C703.721 210.347 705.101 210.108 706.67 210.108C707.76 210.108 708.805 210.236 709.802 210.491C710.807 210.747 711.698 211.143 712.474 211.68C713.258 212.217 713.876 212.908 714.327 213.751C714.779 214.587 715.005 215.588 715.005 216.756V230H709.84V227.277H709.687C709.371 227.891 708.949 228.432 708.421 228.901C707.893 229.361 707.258 229.723 706.516 229.987C705.775 230.243 704.918 230.371 703.947 230.371ZM705.506 226.612C706.307 226.612 707.015 226.455 707.628 226.139C708.242 225.815 708.724 225.381 709.073 224.835C709.422 224.29 709.597 223.672 709.597 222.982V220.898C709.427 221.009 709.192 221.111 708.894 221.205C708.604 221.29 708.276 221.371 707.91 221.447C707.543 221.516 707.177 221.58 706.81 221.639C706.444 221.69 706.111 221.737 705.813 221.78C705.174 221.874 704.616 222.023 704.138 222.227C703.661 222.432 703.29 222.709 703.026 223.058C702.762 223.399 702.63 223.825 702.63 224.337C702.63 225.078 702.898 225.645 703.435 226.037C703.981 226.42 704.671 226.612 705.506 226.612ZM728.077 237.773C726.312 237.773 724.8 237.53 723.538 237.044C722.285 236.567 721.288 235.915 720.547 235.088C719.805 234.261 719.324 233.332 719.102 232.301L724.139 231.624C724.292 232.016 724.535 232.382 724.868 232.723C725.2 233.064 725.639 233.337 726.184 233.541C726.738 233.754 727.412 233.861 728.204 233.861C729.389 233.861 730.365 233.571 731.132 232.991C731.907 232.42 732.295 231.462 732.295 230.115V226.523H732.065C731.827 227.068 731.469 227.584 730.991 228.07C730.514 228.555 729.9 228.952 729.15 229.259C728.4 229.565 727.506 229.719 726.466 229.719C724.991 229.719 723.649 229.378 722.439 228.696C721.237 228.006 720.278 226.953 719.562 225.538C718.855 224.115 718.501 222.317 718.501 220.143C718.501 217.919 718.863 216.061 719.588 214.57C720.312 213.078 721.275 211.962 722.477 211.22C723.687 210.479 725.013 210.108 726.453 210.108C727.552 210.108 728.473 210.295 729.214 210.67C729.956 211.037 730.552 211.497 731.004 212.051C731.464 212.597 731.818 213.134 732.065 213.662H732.27V210.364H737.677V230.192C737.677 231.862 737.268 233.26 736.45 234.385C735.632 235.51 734.498 236.354 733.05 236.916C731.609 237.487 729.952 237.773 728.077 237.773ZM728.192 225.628C729.069 225.628 729.811 225.411 730.416 224.976C731.03 224.533 731.498 223.902 731.822 223.084C732.155 222.257 732.321 221.268 732.321 220.118C732.321 218.967 732.159 217.97 731.835 217.126C731.511 216.274 731.042 215.614 730.429 215.145C729.815 214.676 729.069 214.442 728.192 214.442C727.297 214.442 726.542 214.685 725.929 215.17C725.315 215.648 724.851 216.312 724.535 217.165C724.22 218.017 724.062 219.001 724.062 220.118C724.062 221.251 724.22 222.232 724.535 223.058C724.859 223.876 725.324 224.511 725.929 224.963C726.542 225.406 727.297 225.628 728.192 225.628ZM750.96 230.384C748.94 230.384 747.202 229.974 745.744 229.156C744.295 228.33 743.179 227.162 742.395 225.653C741.611 224.136 741.219 222.342 741.219 220.271C741.219 218.251 741.611 216.479 742.395 214.953C743.179 213.428 744.282 212.239 745.706 211.386C747.138 210.534 748.817 210.108 750.743 210.108C752.038 210.108 753.244 210.317 754.361 210.734C755.486 211.143 756.466 211.761 757.301 212.588C758.145 213.415 758.801 214.455 759.27 215.707C759.738 216.952 759.973 218.409 759.973 220.08V221.575H743.392V218.2H754.846C754.846 217.416 754.676 216.722 754.335 216.116C753.994 215.511 753.521 215.038 752.916 214.697C752.319 214.348 751.625 214.173 750.832 214.173C750.006 214.173 749.273 214.365 748.633 214.749C748.003 215.124 747.508 215.631 747.15 216.27C746.792 216.901 746.609 217.604 746.601 218.379V221.588C746.601 222.56 746.78 223.399 747.138 224.107C747.504 224.814 748.02 225.359 748.684 225.743C749.349 226.126 750.138 226.318 751.05 226.318C751.655 226.318 752.209 226.233 752.711 226.062C753.214 225.892 753.645 225.636 754.003 225.295C754.361 224.955 754.633 224.537 754.821 224.043L759.858 224.375C759.602 225.585 759.078 226.642 758.285 227.545C757.501 228.44 756.487 229.139 755.243 229.642C754.007 230.136 752.579 230.384 750.96 230.384ZM780.731 230.384C778.745 230.384 777.028 229.962 775.579 229.118C774.139 228.266 773.026 227.081 772.242 225.564C771.458 224.038 771.066 222.27 771.066 220.259C771.066 218.23 771.458 216.457 772.242 214.94C773.026 213.415 774.139 212.23 775.579 211.386C777.028 210.534 778.745 210.108 780.731 210.108C782.717 210.108 784.43 210.534 785.87 211.386C787.319 212.23 788.436 213.415 789.22 214.94C790.004 216.457 790.396 218.23 790.396 220.259C790.396 222.27 790.004 224.038 789.22 225.564C788.436 227.081 787.319 228.266 785.87 229.118C784.43 229.962 782.717 230.384 780.731 230.384ZM780.757 226.165C781.66 226.165 782.414 225.909 783.019 225.398C783.624 224.878 784.08 224.17 784.387 223.276C784.703 222.381 784.86 221.362 784.86 220.22C784.86 219.078 784.703 218.06 784.387 217.165C784.08 216.27 783.624 215.562 783.019 215.043C782.414 214.523 781.66 214.263 780.757 214.263C779.845 214.263 779.078 214.523 778.455 215.043C777.842 215.562 777.377 216.27 777.062 217.165C776.755 218.06 776.602 219.078 776.602 220.22C776.602 221.362 776.755 222.381 777.062 223.276C777.377 224.17 777.842 224.878 778.455 225.398C779.078 225.909 779.845 226.165 780.757 226.165ZM804.497 210.364V214.455H792.377V210.364H804.497ZM795.151 230V208.945C795.151 207.521 795.428 206.341 795.982 205.403C796.545 204.466 797.312 203.763 798.284 203.294C799.255 202.825 800.359 202.591 801.595 202.591C802.43 202.591 803.193 202.655 803.883 202.783C804.582 202.911 805.102 203.026 805.443 203.128L804.471 207.219C804.258 207.151 803.994 207.087 803.678 207.027C803.372 206.967 803.056 206.938 802.732 206.938C801.931 206.938 801.373 207.125 801.058 207.5C800.742 207.866 800.585 208.382 800.585 209.047V230H795.151ZM321.48 275.963L316.494 276.27C316.409 275.844 316.226 275.46 315.945 275.119C315.663 274.77 315.293 274.493 314.832 274.288C314.381 274.075 313.839 273.969 313.209 273.969C312.365 273.969 311.653 274.148 311.074 274.506C310.494 274.855 310.205 275.324 310.205 275.912C310.205 276.381 310.392 276.777 310.767 277.101C311.142 277.425 311.786 277.685 312.697 277.881L316.251 278.597C318.161 278.989 319.584 279.619 320.521 280.489C321.459 281.358 321.928 282.5 321.928 283.915C321.928 285.202 321.548 286.331 320.79 287.303C320.04 288.274 319.009 289.033 317.696 289.578C316.392 290.115 314.888 290.384 313.183 290.384C310.584 290.384 308.513 289.842 306.97 288.76C305.436 287.669 304.537 286.186 304.273 284.311L309.629 284.03C309.791 284.822 310.183 285.428 310.805 285.845C311.428 286.254 312.224 286.459 313.196 286.459C314.151 286.459 314.918 286.276 315.497 285.909C316.085 285.534 316.384 285.053 316.392 284.464C316.384 283.97 316.175 283.565 315.766 283.25C315.357 282.926 314.726 282.679 313.874 282.509L310.473 281.831C308.555 281.447 307.128 280.783 306.19 279.837C305.261 278.891 304.797 277.685 304.797 276.219C304.797 274.957 305.138 273.871 305.82 272.959C306.51 272.047 307.477 271.344 308.722 270.849C309.974 270.355 311.44 270.108 313.119 270.108C315.599 270.108 317.551 270.632 318.974 271.68C320.406 272.729 321.241 274.156 321.48 275.963ZM335.801 270.364V274.455H323.976V270.364H335.801ZM326.661 265.659H332.107V283.966C332.107 284.469 332.184 284.861 332.337 285.142C332.49 285.415 332.703 285.607 332.976 285.717C333.257 285.828 333.581 285.884 333.948 285.884C334.203 285.884 334.459 285.862 334.715 285.82C334.971 285.768 335.167 285.73 335.303 285.705L336.159 289.757C335.887 289.842 335.503 289.94 335.009 290.051C334.515 290.17 333.914 290.243 333.206 290.268C331.894 290.32 330.743 290.145 329.755 289.744C328.775 289.344 328.012 288.722 327.466 287.878C326.921 287.034 326.652 285.969 326.661 284.682V265.659ZM351.941 281.639V270.364H357.387V290H352.159V286.433H351.954C351.511 287.584 350.774 288.509 349.743 289.207C348.72 289.906 347.471 290.256 345.997 290.256C344.684 290.256 343.529 289.957 342.532 289.361C341.535 288.764 340.755 287.916 340.193 286.817C339.639 285.717 339.358 284.401 339.349 282.866V270.364H344.795V281.895C344.804 283.054 345.115 283.97 345.728 284.643C346.342 285.317 347.164 285.653 348.196 285.653C348.852 285.653 349.466 285.504 350.037 285.206C350.608 284.899 351.068 284.447 351.417 283.851C351.775 283.254 351.95 282.517 351.941 281.639ZM368.979 290.32C367.488 290.32 366.137 289.936 364.927 289.169C363.725 288.393 362.771 287.256 362.063 285.756C361.364 284.247 361.015 282.398 361.015 280.207C361.015 277.957 361.377 276.087 362.102 274.595C362.826 273.095 363.789 271.974 364.991 271.233C366.201 270.483 367.526 270.108 368.967 270.108C370.066 270.108 370.982 270.295 371.715 270.67C372.457 271.037 373.053 271.497 373.505 272.051C373.965 272.597 374.315 273.134 374.553 273.662H374.719V263.818H380.153V290H374.783V286.855H374.553C374.298 287.401 373.935 287.942 373.467 288.479C373.006 289.007 372.406 289.446 371.664 289.795C370.931 290.145 370.036 290.32 368.979 290.32ZM370.705 285.986C371.583 285.986 372.325 285.747 372.93 285.27C373.543 284.784 374.012 284.107 374.336 283.237C374.668 282.368 374.835 281.349 374.835 280.182C374.835 279.014 374.673 278 374.349 277.139C374.025 276.278 373.556 275.614 372.942 275.145C372.329 274.676 371.583 274.442 370.705 274.442C369.81 274.442 369.056 274.685 368.442 275.17C367.829 275.656 367.364 276.33 367.049 277.19C366.734 278.051 366.576 279.048 366.576 280.182C366.576 281.324 366.734 282.334 367.049 283.212C367.373 284.081 367.837 284.763 368.442 285.257C369.056 285.743 369.81 285.986 370.705 285.986ZM393.579 290.384C391.559 290.384 389.821 289.974 388.363 289.156C386.914 288.33 385.798 287.162 385.014 285.653C384.23 284.136 383.838 282.342 383.838 280.271C383.838 278.251 384.23 276.479 385.014 274.953C385.798 273.428 386.902 272.239 388.325 271.386C389.757 270.534 391.436 270.108 393.362 270.108C394.657 270.108 395.863 270.317 396.98 270.734C398.105 271.143 399.085 271.761 399.92 272.588C400.764 273.415 401.42 274.455 401.889 275.707C402.358 276.952 402.592 278.409 402.592 280.08V281.575H386.011V278.2H397.466C397.466 277.416 397.295 276.722 396.954 276.116C396.613 275.511 396.14 275.038 395.535 274.697C394.939 274.348 394.244 274.173 393.451 274.173C392.625 274.173 391.892 274.365 391.252 274.749C390.622 275.124 390.127 275.631 389.77 276.27C389.412 276.901 389.228 277.604 389.22 278.379V281.588C389.22 282.56 389.399 283.399 389.757 284.107C390.123 284.814 390.639 285.359 391.304 285.743C391.968 286.126 392.757 286.318 393.669 286.318C394.274 286.318 394.828 286.233 395.331 286.062C395.833 285.892 396.264 285.636 396.622 285.295C396.98 284.955 397.252 284.537 397.44 284.043L402.477 284.375C402.221 285.585 401.697 286.642 400.904 287.545C400.12 288.44 399.106 289.139 397.862 289.642C396.626 290.136 395.199 290.384 393.579 290.384ZM411.592 278.648V290H406.146V270.364H411.336V273.828H411.566C412.001 272.686 412.73 271.783 413.752 271.118C414.775 270.445 416.015 270.108 417.473 270.108C418.836 270.108 420.025 270.406 421.039 271.003C422.054 271.599 422.842 272.452 423.404 273.56C423.967 274.659 424.248 275.972 424.248 277.497V290H418.802V278.469C418.811 277.267 418.504 276.33 417.882 275.656C417.26 274.974 416.403 274.634 415.312 274.634C414.579 274.634 413.931 274.791 413.369 275.107C412.815 275.422 412.38 275.882 412.065 276.487C411.758 277.084 411.6 277.804 411.592 278.648ZM438.985 270.364V274.455H427.16V270.364H438.985ZM429.844 265.659H435.29V283.966C435.29 284.469 435.367 284.861 435.521 285.142C435.674 285.415 435.887 285.607 436.16 285.717C436.441 285.828 436.765 285.884 437.131 285.884C437.387 285.884 437.643 285.862 437.898 285.82C438.154 285.768 438.35 285.73 438.487 285.705L439.343 289.757C439.07 289.842 438.687 289.94 438.192 290.051C437.698 290.17 437.097 290.243 436.39 290.268C435.077 290.32 433.927 290.145 432.938 289.744C431.958 289.344 431.195 288.722 430.65 287.878C430.104 287.034 429.836 285.969 429.844 284.682V265.659ZM450.865 290V270.364H456.311V290H450.865ZM453.6 267.832C452.791 267.832 452.096 267.564 451.517 267.027C450.946 266.482 450.66 265.83 450.66 265.071C450.66 264.321 450.946 263.678 451.517 263.141C452.096 262.595 452.791 262.322 453.6 262.322C454.41 262.322 455.1 262.595 455.672 263.141C456.251 263.678 456.541 264.321 456.541 265.071C456.541 265.83 456.251 266.482 455.672 267.027C455.1 267.564 454.41 267.832 453.6 267.832ZM466.119 278.648V290H460.673V270.364H465.864V273.828H466.094C466.528 272.686 467.257 271.783 468.28 271.118C469.303 270.445 470.543 270.108 472 270.108C473.364 270.108 474.553 270.406 475.567 271.003C476.581 271.599 477.369 272.452 477.932 273.56C478.494 274.659 478.776 275.972 478.776 277.497V290H473.33V278.469C473.338 277.267 473.031 276.33 472.409 275.656C471.787 274.974 470.93 274.634 469.839 274.634C469.107 274.634 468.459 274.791 467.896 275.107C467.342 275.422 466.908 275.882 466.592 276.487C466.286 277.084 466.128 277.804 466.119 278.648ZM493.627 270.364V274.455H481.508V270.364H493.627ZM484.282 290V268.945C484.282 267.521 484.559 266.341 485.113 265.403C485.676 264.466 486.443 263.763 487.414 263.294C488.386 262.825 489.49 262.591 490.725 262.591C491.561 262.591 492.324 262.655 493.014 262.783C493.713 262.911 494.233 263.026 494.574 263.128L493.602 267.219C493.389 267.151 493.125 267.087 492.809 267.027C492.502 266.967 492.187 266.938 491.863 266.938C491.062 266.938 490.504 267.125 490.189 267.5C489.873 267.866 489.716 268.382 489.716 269.047V290H484.282ZM505.124 290.384C503.138 290.384 501.42 289.962 499.972 289.118C498.531 288.266 497.419 287.081 496.635 285.564C495.851 284.038 495.459 282.27 495.459 280.259C495.459 278.23 495.851 276.457 496.635 274.94C497.419 273.415 498.531 272.23 499.972 271.386C501.42 270.534 503.138 270.108 505.124 270.108C507.109 270.108 508.822 270.534 510.263 271.386C511.712 272.23 512.828 273.415 513.612 274.94C514.396 276.457 514.788 278.23 514.788 280.259C514.788 282.27 514.396 284.038 513.612 285.564C512.828 287.081 511.712 288.266 510.263 289.118C508.822 289.962 507.109 290.384 505.124 290.384ZM505.149 286.165C506.053 286.165 506.807 285.909 507.412 285.398C508.017 284.878 508.473 284.17 508.78 283.276C509.095 282.381 509.253 281.362 509.253 280.22C509.253 279.078 509.095 278.06 508.78 277.165C508.473 276.27 508.017 275.562 507.412 275.043C506.807 274.523 506.053 274.263 505.149 274.263C504.237 274.263 503.47 274.523 502.848 275.043C502.234 275.562 501.77 276.27 501.455 277.165C501.148 278.06 500.994 279.078 500.994 280.22C500.994 281.362 501.148 282.381 501.455 283.276C501.77 284.17 502.234 284.878 502.848 285.398C503.47 285.909 504.237 286.165 505.149 286.165ZM518.33 290V270.364H523.609V273.79H523.814C524.172 272.571 524.773 271.651 525.616 271.028C526.46 270.398 527.432 270.082 528.531 270.082C528.804 270.082 529.098 270.099 529.413 270.134C529.729 270.168 530.006 270.214 530.244 270.274V275.107C529.989 275.03 529.635 274.962 529.183 274.902C528.732 274.842 528.318 274.812 527.943 274.812C527.142 274.812 526.426 274.987 525.795 275.337C525.173 275.678 524.679 276.155 524.312 276.768C523.955 277.382 523.776 278.089 523.776 278.891V290H518.33ZM533.06 290V270.364H538.25V273.828H538.48C538.89 272.678 539.571 271.77 540.526 271.105C541.48 270.44 542.623 270.108 543.952 270.108C545.299 270.108 546.445 270.445 547.391 271.118C548.337 271.783 548.968 272.686 549.283 273.828H549.488C549.888 272.703 550.613 271.804 551.661 271.131C552.718 270.449 553.966 270.108 555.407 270.108C557.239 270.108 558.726 270.692 559.868 271.859C561.019 273.018 561.594 274.663 561.594 276.794V290H556.161V277.868C556.161 276.777 555.871 275.959 555.292 275.413C554.712 274.868 553.988 274.595 553.118 274.595C552.13 274.595 551.358 274.911 550.804 275.541C550.25 276.163 549.973 276.986 549.973 278.009V290H544.694V277.753C544.694 276.79 544.417 276.023 543.863 275.452C543.317 274.881 542.597 274.595 541.702 274.595C541.097 274.595 540.551 274.749 540.066 275.055C539.588 275.354 539.209 275.776 538.928 276.321C538.647 276.858 538.506 277.489 538.506 278.213V290H533.06ZM571.495 290.371C570.243 290.371 569.126 290.153 568.146 289.719C567.166 289.276 566.39 288.624 565.819 287.763C565.257 286.893 564.975 285.811 564.975 284.516C564.975 283.425 565.176 282.509 565.576 281.767C565.977 281.026 566.522 280.429 567.213 279.977C567.903 279.526 568.687 279.185 569.565 278.955C570.451 278.724 571.38 278.562 572.352 278.469C573.494 278.349 574.414 278.239 575.113 278.136C575.812 278.026 576.319 277.864 576.635 277.651C576.95 277.437 577.108 277.122 577.108 276.705V276.628C577.108 275.818 576.852 275.192 576.341 274.749C575.838 274.305 575.122 274.084 574.193 274.084C573.213 274.084 572.433 274.301 571.853 274.736C571.274 275.162 570.89 275.699 570.703 276.347L565.666 275.938C565.922 274.744 566.424 273.713 567.174 272.844C567.924 271.966 568.892 271.293 570.076 270.824C571.27 270.347 572.65 270.108 574.218 270.108C575.309 270.108 576.353 270.236 577.35 270.491C578.356 270.747 579.247 271.143 580.022 271.68C580.806 272.217 581.424 272.908 581.876 273.751C582.328 274.587 582.554 275.588 582.554 276.756V290H577.389V287.277H577.235C576.92 287.891 576.498 288.432 575.97 288.901C575.441 289.361 574.806 289.723 574.065 289.987C573.324 290.243 572.467 290.371 571.495 290.371ZM573.055 286.612C573.856 286.612 574.564 286.455 575.177 286.139C575.791 285.815 576.272 285.381 576.622 284.835C576.971 284.29 577.146 283.672 577.146 282.982V280.898C576.975 281.009 576.741 281.111 576.443 281.205C576.153 281.29 575.825 281.371 575.458 281.447C575.092 281.516 574.725 281.58 574.359 281.639C573.993 281.69 573.66 281.737 573.362 281.78C572.723 281.874 572.164 282.023 571.687 282.227C571.21 282.432 570.839 282.709 570.575 283.058C570.311 283.399 570.179 283.825 570.179 284.337C570.179 285.078 570.447 285.645 570.984 286.037C571.529 286.42 572.22 286.612 573.055 286.612ZM597.223 270.364V274.455H585.398V270.364H597.223ZM588.083 265.659H593.529V283.966C593.529 284.469 593.605 284.861 593.759 285.142C593.912 285.415 594.125 285.607 594.398 285.717C594.679 285.828 595.003 285.884 595.37 285.884C595.625 285.884 595.881 285.862 596.137 285.82C596.392 285.768 596.588 285.73 596.725 285.705L597.581 289.757C597.309 289.842 596.925 289.94 596.431 290.051C595.936 290.17 595.336 290.243 594.628 290.268C593.316 290.32 592.165 290.145 591.176 289.744C590.196 289.344 589.434 288.722 588.888 287.878C588.343 287.034 588.074 285.969 588.083 284.682V265.659ZM600.771 290V270.364H606.217V290H600.771ZM603.507 267.832C602.697 267.832 602.002 267.564 601.423 267.027C600.852 266.482 600.566 265.83 600.566 265.071C600.566 264.321 600.852 263.678 601.423 263.141C602.002 262.595 602.697 262.322 603.507 262.322C604.316 262.322 605.007 262.595 605.578 263.141C606.157 263.678 606.447 264.321 606.447 265.071C606.447 265.83 606.157 266.482 605.578 267.027C605.007 267.564 604.316 267.832 603.507 267.832ZM619.452 290.384C617.466 290.384 615.749 289.962 614.3 289.118C612.859 288.266 611.747 287.081 610.963 285.564C610.179 284.038 609.787 282.27 609.787 280.259C609.787 278.23 610.179 276.457 610.963 274.94C611.747 273.415 612.859 272.23 614.3 271.386C615.749 270.534 617.466 270.108 619.452 270.108C621.438 270.108 623.151 270.534 624.591 271.386C626.04 272.23 627.156 273.415 627.94 274.94C628.724 276.457 629.116 278.23 629.116 280.259C629.116 282.27 628.724 284.038 627.94 285.564C627.156 287.081 626.04 288.266 624.591 289.118C623.151 289.962 621.438 290.384 619.452 290.384ZM619.477 286.165C620.381 286.165 621.135 285.909 621.74 285.398C622.345 284.878 622.801 284.17 623.108 283.276C623.423 282.381 623.581 281.362 623.581 280.22C623.581 279.078 623.423 278.06 623.108 277.165C622.801 276.27 622.345 275.562 621.74 275.043C621.135 274.523 620.381 274.263 619.477 274.263C618.565 274.263 617.798 274.523 617.176 275.043C616.563 275.562 616.098 276.27 615.783 277.165C615.476 278.06 615.322 279.078 615.322 280.22C615.322 281.362 615.476 282.381 615.783 283.276C616.098 284.17 616.563 284.878 617.176 285.398C617.798 285.909 618.565 286.165 619.477 286.165ZM638.104 278.648V290H632.658V270.364H637.848V273.828H638.078C638.513 272.686 639.241 271.783 640.264 271.118C641.287 270.445 642.527 270.108 643.984 270.108C645.348 270.108 646.537 270.406 647.551 271.003C648.565 271.599 649.354 272.452 649.916 273.56C650.479 274.659 650.76 275.972 650.76 277.497V290H645.314V278.469C645.322 277.267 645.016 276.33 644.393 275.656C643.771 274.974 642.915 274.634 641.824 274.634C641.091 274.634 640.443 274.791 639.881 275.107C639.327 275.422 638.892 275.882 638.577 276.487C638.27 277.084 638.112 277.804 638.104 278.648ZM659.616 263.818V266.58C659.616 267.364 659.463 268.165 659.156 268.983C658.858 269.793 658.457 270.56 657.954 271.284C657.451 272 656.902 272.609 656.305 273.112L653.902 271.693C654.328 271.02 654.703 270.274 655.027 269.456C655.359 268.638 655.525 267.687 655.525 266.605V263.818H659.616ZM666.047 263.818V266.58C666.047 267.364 665.893 268.165 665.586 268.983C665.288 269.793 664.887 270.56 664.385 271.284C663.882 272 663.328 272.609 662.723 273.112L660.319 271.693C660.754 271.02 661.133 270.274 661.457 269.456C661.789 268.638 661.956 267.687 661.956 266.605V263.818H666.047Z" fill="#45515E"/>
<g clip-path="url(#clip0_4728_12304)">
<g clip-path="url(#clip1_4728_12304)">
<path d="M675.048 817.148H621.332V948.739H675.048V817.148Z" fill="#C7CFE4"/>
<path d="M794.701 686H844.876C848.888 686 852.143 689.255 852.143 693.268V1070.83C852.143 1074.85 848.888 1078.1 844.876 1078.1H794.701V686Z" fill="#625E8A"/>
<path d="M492.723 817.147H621.329V948.737H501.247C496.536 948.737 492.709 944.911 492.709 940.199V817.133L492.723 817.147Z" fill="#91B1DA"/>
<path d="M794.702 817.148H675.049V948.739H794.702V817.148Z" fill="#91B1DA"/>
<path d="M794.699 686H549.709V817.148H794.699V686Z" fill="#91B1DA"/>
<path d="M545.541 947.852H794.7V1079H552.409C548.625 1079 545.541 1075.93 545.541 1072.13V947.852Z" fill="#91B1DA"/>
<path d="M644.191 816.576L612.892 784.207C611.293 782.55 608.623 781.551 605.767 781.551H531.305C524.723 781.551 520.582 786.534 523.78 790.589L544.37 816.576H644.191Z" fill="#E58A9C"/>
<path d="M644.191 816.576L612.892 784.207C611.293 782.55 608.623 781.551 605.767 781.551H531.305C524.723 781.551 520.582 786.534 523.78 790.589L544.37 816.576" stroke="#231F20" stroke-linecap="round" stroke-linejoin="round"/>
<path d="M618.446 816.577L587.148 775.127C585.549 772.999 582.879 771.729 580.023 771.729H505.561C498.979 771.729 494.838 778.111 498.036 783.294L518.626 816.577H618.446Z" fill="#E58A9C"/>
<path d="M618.446 816.577L587.148 775.127C585.549 772.999 582.879 771.729 580.023 771.729H505.561C498.979 771.729 494.838 778.111 498.036 783.294L518.626 816.577" stroke="#231F20" stroke-linecap="round" stroke-linejoin="round"/>
<path d="M598.056 816.577L566.757 770.657C565.158 768.301 562.488 766.888 559.632 766.888H485.17C478.588 766.888 474.447 773.956 477.646 779.71L498.235 816.577H598.056Z" fill="#E58A9C"/>
<path d="M598.056 816.577L566.757 770.657C565.158 768.301 562.488 766.888 559.632 766.888H485.17C478.588 766.888 474.447 773.956 477.646 779.71L498.235 816.577M492.724 817.148H852.141V948.738H504.603C498.035 948.738 492.724 943.412 492.724 936.859V817.148ZM545.54 948.753H852.141V1070.79C852.141 1074.83 848.857 1078.12 844.816 1078.12H552.864C548.824 1078.12 545.54 1074.83 545.54 1070.79V948.767V948.753Z" stroke="#231F20" stroke-linecap="round" stroke-linejoin="round"/>
<path d="M621.332 817.148V948.753" stroke="#231F20" stroke-linecap="round" stroke-linejoin="round"/>
<path d="M675.049 1078.1V817.148V686" stroke="#231F20" stroke-linecap="round" stroke-linejoin="round"/>
<path d="M794.701 1078.1V817.148V686" stroke="#231F20" stroke-linecap="round" stroke-linejoin="round"/>
<path d="M579.11 686H637.523V697.894C637.523 701.207 634.839 703.905 631.512 703.905H585.107C581.794 703.905 579.096 701.221 579.096 697.894V686H579.11ZM705.674 686H764.088V697.894C764.088 701.207 761.403 703.905 758.076 703.905H711.671C708.359 703.905 705.66 701.221 705.66 697.894V686H705.674Z" fill="#625E8A"/>
<path d="M549.709 766.088V686H842.004C847.044 686 851.127 690.055 851.17 695.095L852.141 817.148" stroke="#231F20" stroke-linecap="round" stroke-linejoin="round"/>
<path d="M523.568 817.148H581.982V830.199C581.982 832.883 579.811 835.054 577.127 835.054H528.423C525.739 835.054 523.568 832.883 523.568 830.199V817.148ZM704.662 817.148H763.075V830.199C763.075 832.883 760.905 835.054 758.221 835.054H709.517C706.832 835.054 704.662 832.883 704.662 830.199V817.148ZM579.112 948.753H637.525V961.804C637.525 964.488 635.354 966.658 632.67 966.658H583.966C581.282 966.658 579.112 964.488 579.112 961.804V948.753ZM705.676 948.753H764.089V961.804C764.089 964.488 761.919 966.658 759.234 966.658H710.531C707.846 966.658 705.676 964.488 705.676 961.804V948.753Z" fill="#625E8A"/>
<path d="M579.112 686H637.525V697.894C637.525 701.207 634.84 703.905 631.514 703.905H585.109C581.796 703.905 579.097 701.221 579.097 697.894V686H579.112ZM523.568 817.148H581.982V830.198C581.982 832.883 579.811 835.053 577.127 835.053H528.423C525.739 835.053 523.568 832.883 523.568 830.198V817.148ZM704.662 817.148H763.075V830.198C763.075 832.883 760.905 835.053 758.221 835.053H709.517C706.832 835.053 704.662 832.883 704.662 830.198V817.148ZM705.676 686H764.089V697.894C764.089 701.207 761.405 703.905 758.078 703.905H711.673C708.36 703.905 705.662 701.221 705.662 697.894V686H705.676ZM579.112 948.752H637.525V961.803C637.525 964.487 635.354 966.658 632.67 966.658H583.966C581.282 966.658 579.112 964.487 579.112 961.803V948.752ZM705.676 948.752H764.089V961.803C764.089 964.487 761.919 966.658 759.234 966.658H710.531C707.846 966.658 705.676 964.487 705.676 961.803V948.752Z" stroke="#231F20" stroke-linecap="round" stroke-linejoin="round"/>
<path d="M595.115 1030.73L598.057 1024.19" stroke="#231F20" stroke-linecap="round" stroke-linejoin="round"/>
<path d="M700.934 996.428L708.473 994.115" stroke="#231F20" stroke-linecap="round" stroke-linejoin="round"/>
<path d="M530.336 892.896L537.304 895.209" stroke="#231F20" stroke-linecap="round" stroke-linejoin="round"/>
<path d="M809.107 744.456L813.163 732.434" stroke="#231F20" stroke-linecap="round" stroke-linejoin="round"/>
<path d="M829.355 869.765V873.234" stroke="#231F20" stroke-linecap="round" stroke-linejoin="round"/>
<path d="M343.217 796.458C344.873 796.444 346.53 796.073 348.072 795.373C355.211 792.075 364.977 786.82 374.958 779.552C388.48 769.715 398.717 760.005 408.241 755.993L408.17 755.25C407.77 750.753 405.643 746.583 402.23 743.628L401.702 743.171C397.904 744.999 392.521 747.126 384.282 750.11C370.003 755.293 355.439 765.303 350.128 769.143C349.4 769.672 348.557 769.957 347.701 770L346.672 771.871C343.288 778.039 341.903 785.092 342.703 792.075L343.203 796.458H343.217Z" fill="#FFC7B6"/>
<path d="M347.698 770C348.555 769.957 349.397 769.672 350.126 769.143C355.437 765.303 370.001 755.279 384.28 750.11C392.504 747.126 397.901 744.999 401.699 743.171M343.215 796.458C344.871 796.444 346.527 796.073 348.07 795.373C355.209 792.075 364.975 786.82 374.956 779.552C388.478 769.715 398.715 760.005 408.239 755.993" stroke="#231F20" stroke-linecap="round" stroke-linejoin="round"/>
<path d="M441.638 753.094L440.767 752.423C439.968 751.981 439.025 751.552 438.026 751.124C437.797 750.239 437.112 748.397 435.042 747.183C432.243 745.541 419.478 743.442 419.478 743.442L419.45 743.471C421.606 740.901 421.677 738.102 421.677 738.102C423.162 737.26 424.804 736.617 426.632 736.217C432.671 734.875 433.571 730.206 433.571 730.206C433.571 730.206 426.546 730.577 422.048 730.406C416.951 730.206 414.552 733.09 410.74 737.117C408.684 739.287 406.428 741.015 401.973 743.157V743.257C401.973 748.297 404.4 753.037 408.512 755.979C410.854 754.993 413.153 754.351 415.452 754.122C427.088 753.009 443.223 758.663 443.223 758.663V756.221C443.223 754.993 442.652 753.823 441.667 753.08L441.638 753.094Z" fill="#FFC7B6"/>
<path d="M401.701 743.17C406.156 741.029 408.412 739.301 410.468 737.131C414.266 733.104 416.665 730.22 421.777 730.42C426.274 730.591 433.299 730.22 433.299 730.22C433.299 730.22 432.4 734.889 426.36 736.231C424.547 736.631 422.89 737.273 421.405 738.116C421.405 738.116 421.291 744.47 414.052 746.826M408.241 755.992C410.582 755.007 412.881 754.365 415.18 754.136C426.817 753.022 442.952 758.677 442.952 758.677V756.235C442.952 755.007 442.381 753.836 441.395 753.094L440.524 752.423C435.727 749.781 426.917 747.325 417.565 745.712" stroke="#231F20" stroke-linecap="round" stroke-linejoin="round"/>
<path d="M419.465 743.171L432.173 745.712C435.685 746.412 438.598 748.825 439.954 752.138M433.301 749.468C438.284 751.338 438.955 754.722 438.884 757.407" stroke="#231F20" stroke-linecap="round" stroke-linejoin="round"/>
<path d="M159.423 1032.2C159.423 1032.2 158.538 1036.61 162.407 1040.05C166.277 1043.49 170.946 1045.88 170.946 1045.88L182.697 1037.58L172.245 1021.27L159.423 1032.21V1032.2Z" fill="#FFC7B6"/>
<path d="M159.339 1033.22L138.578 1051.01L162.894 1074.52L182.699 1075.92C182.699 1075.92 181.071 1073.32 176.687 1070.45C172.304 1067.58 165.807 1066.01 165.807 1058.84C165.807 1051.67 170.962 1045.86 170.962 1045.86C170.962 1045.86 159.896 1041.5 159.353 1033.22H159.339Z" fill="#E58A9C"/>
<path d="M134.721 1055.68L159.422 1078.1H184.096L182.696 1075.92L162.892 1074.52L138.576 1051.01L134.721 1055.68Z" fill="#F2E7E3"/>
<path d="M170.946 1022.37L134.021 1055.04L160.38 1078.09H184.096C184.096 1078.09 182.583 1072.72 172.959 1068.46C163.335 1064.21 160.037 1052.7 182.168 1036.75" stroke="#231F20" stroke-linecap="round" stroke-linejoin="round"/>
<path d="M138.578 1051.02C138.778 1050.84 162.894 1074.52 162.894 1074.52L182.327 1075.42M159.41 1032.58C159.525 1042.45 170.947 1045.88 170.947 1045.88" stroke="#231F20" stroke-linecap="round" stroke-linejoin="round"/>
<path d="M290.2 1036.07L288.758 1049.04C288.758 1049.04 293.098 1052.29 298.282 1052.17C303.465 1052.06 307.805 1051 307.805 1051L310.761 1039.18L290.2 1036.08V1036.07Z" fill="#FFC7B6"/>
<path d="M286.002 1073.85L290 1049.04C290 1049.04 293.769 1052.5 298.267 1052.17C302.765 1051.84 307.791 1051 307.791 1051C307.791 1051 303.921 1062.85 311.817 1065.44C319.728 1068.02 331.764 1069.6 334.163 1073.86H286.002V1073.85Z" fill="#E58A9C"/>
<path d="M338.133 1078.1H285.531L286.002 1072.73L334.164 1073.85L338.133 1078.1Z" fill="#F2E7E3"/>
<path d="M290.2 1036.07L285.531 1078.1H338.119C338.119 1078.1 334.763 1070.72 318.643 1067.81C302.523 1064.89 307.006 1053.44 310.818 1038.91M286.274 1073.32C286.274 1073.32 334.621 1074.16 334.164 1073.85M288.758 1049.04C288.758 1049.04 297.168 1054.77 307.806 1050.99" stroke="#231F20" stroke-linecap="round" stroke-linejoin="round"/>
<path d="M301.294 862.61C301.294 862.61 330.736 954.335 330.293 961.717L328.68 962.517C319.556 967.043 309.104 968.1 299.252 965.501L294.254 964.187C293.583 961.06 246.479 866.437 246.479 866.437L301.279 862.61H301.294Z" fill="#625E8A"/>
<path d="M294.254 964.187C293.583 961.06 246.479 866.437 246.479 866.437M301.294 862.61C301.294 862.61 330.736 954.335 330.293 961.717" stroke="#231F20" stroke-linecap="round" stroke-linejoin="round"/>
<path d="M294.256 866.622C295.37 876.117 271.211 896.607 277.465 892.795C283.733 888.997 295.142 875.118 290.673 883.171C286.203 891.224 277.251 895.036 277.922 895.251C278.593 895.465 251.407 981.392 246.495 985.876H243.982C232.288 985.876 221.708 978.937 217.053 968.213C219.066 962.174 225.234 876.617 232.402 858.712L294.271 866.622H294.256Z" fill="#625E8A"/>
<path d="M217.053 968.213C219.066 962.174 225.234 876.617 232.402 858.712M290.687 876.117C282.177 885.184 271.211 896.593 277.479 892.795C283.747 888.997 295.156 875.118 290.687 883.171C286.218 891.224 277.265 895.036 277.936 895.251C278.607 895.465 251.421 981.392 246.509 985.876" stroke="#231F20" stroke-linecap="round" stroke-linejoin="round"/>
<path d="M330.295 961.717C329.853 969.099 312.618 1039.15 312.618 1039.15L286.66 1035.56C286.66 1035.56 294.942 967.3 294.271 964.173L296.627 962.945C305.679 958.261 316.217 957.333 325.955 960.36L330.295 961.702V961.717Z" fill="#625E8A"/>
<path d="M330.295 961.716C329.853 969.098 312.618 1039.15 312.618 1039.15L286.66 1035.56C286.66 1035.56 294.942 967.299 294.271 964.172" stroke="#231F20" stroke-linecap="round" stroke-linejoin="round"/>
<path d="M287.23 1030.72L313.96 1033.67" stroke="#231F20" stroke-linecap="round" stroke-linejoin="round"/>
<path d="M246.492 985.876C241.566 990.345 183.71 1039.16 183.71 1039.16L170.959 1019.25C170.959 1019.25 215.051 974.268 217.064 968.214L219.377 968.528C228.416 969.742 236.668 974.268 242.565 981.222L246.506 985.876H246.492Z" fill="#625E8A"/>
<path d="M246.492 985.876C241.566 990.345 183.71 1039.16 183.71 1039.16L170.959 1019.25C170.959 1019.25 215.051 974.268 217.064 968.214M176.685 1013.35C176.685 1013.35 188.821 1035.14 188.707 1035.22" stroke="#231F20" stroke-linecap="round" stroke-linejoin="round"/>
<path d="M319.241 793.417C319.241 793.417 302.978 834.825 295.368 844.22L300.965 835.938C301.636 835.938 306.79 857.87 306.79 858.313C306.79 858.755 292.469 871.063 273.222 872.634C253.974 874.205 229.801 856.971 229.801 856.971C233.385 841.978 251.29 789.605 260.914 770.814C270.537 752.01 278.719 744.285 293.997 741.715L294.696 742.215C306.762 750.782 314.815 763.889 317.014 778.525L319.241 793.417Z" fill="#F2E7E3"/>
<path d="M293.997 741.715C278.719 744.285 270.537 752.024 260.914 770.814C251.29 789.619 233.385 841.978 229.801 856.971C229.801 856.971 253.974 874.205 273.222 872.634C292.469 871.063 306.79 858.755 306.79 858.313C306.79 857.87 301.636 835.938 300.965 835.938M319.241 793.417C319.241 793.417 302.978 834.825 295.368 844.22" stroke="#231F20" stroke-linecap="round" stroke-linejoin="round"/>
<path d="M366.934 806.368C368.59 806.354 370.246 805.983 371.789 805.283C378.928 801.985 388.694 796.73 398.675 789.463C412.197 779.625 422.434 769.915 431.958 765.903L431.887 765.161C431.487 760.663 429.359 756.494 425.947 753.538L425.418 753.081C421.62 754.909 416.237 757.036 407.999 760.02C393.72 765.203 379.156 775.213 373.845 779.054C373.116 779.582 372.274 779.867 371.417 779.91L370.389 781.781C367.005 787.949 365.62 795.003 366.42 801.985L366.92 806.368H366.934Z" fill="#FFC7B6"/>
<path d="M371.429 779.91C372.286 779.867 373.129 779.582 373.857 779.054C379.168 775.213 393.732 765.189 408.011 760.02C416.235 757.036 421.632 754.909 425.431 753.081M366.932 806.368C368.588 806.354 370.244 805.983 371.786 805.283C378.926 801.985 388.692 796.73 398.673 789.463C412.194 779.625 422.432 769.915 431.956 765.903" stroke="#231F20" stroke-linecap="round" stroke-linejoin="round"/>
<path d="M333.163 704.121C333.163 704.121 336.59 708.261 338.146 712.845C339.688 717.428 340.331 722.697 340.331 722.697C340.331 722.697 345.414 723.04 345.257 724.639C345.1 726.238 340.331 729.408 340.331 729.408C340.331 729.408 340.559 733.791 339.217 738.646C337.875 743.501 333.848 745.4 329.879 745.128C325.909 744.857 319.256 743.172 319.256 743.172C319.256 743.172 316.357 745.543 315.5 746.028C314.644 746.513 313.587 748.198 313.587 748.198L308.447 748.57C302.864 748.969 297.481 746.471 294.183 741.959L293.997 741.716L299.194 734.334C299.194 734.334 293.526 732.692 293.197 726.01C292.869 719.327 299.48 718.342 301.822 717.071C304.163 715.801 310.103 724.71 310.103 724.71L314.801 723.368C314.801 723.368 314.215 720.869 314.943 717.071C315.672 713.273 318.156 711.974 318.156 711.974L333.148 704.106L333.163 704.121Z" fill="#FFC7B6"/>
<path d="M285.573 721.754C285.573 721.754 272.58 727.379 269.424 729.821C266.269 732.263 263.784 734.733 269.424 733.334C275.064 731.934 293.055 724.624 293.055 724.624C293.055 724.624 293.783 719.683 296.596 718.484C299.409 717.27 303.393 716.214 303.393 716.214L330.964 701.25C330.964 701.25 324.867 690.984 311.003 691.055C297.124 691.126 282.004 700.75 285.573 721.754Z" fill="#E58A9C"/>
<path d="M333.163 704.12L305.863 718.427L303.393 716.228L330.979 701.265L333.163 704.12Z" fill="#F2E7E3"/>
<path d="M314.817 723.367L310.119 724.709L306.764 717.07L318.172 711.973C318.172 711.973 312.575 716.87 314.817 723.353V723.367Z" fill="#625E8A"/>
<path d="M317.828 712.158C312.003 717.084 314.816 723.138 314.816 723.138L310.118 724.638C310.118 724.638 306.091 714.114 297.81 717.855C289.528 721.582 292.884 732.105 301.608 734.347M297.81 721.354C302.508 720.682 303.407 728.521 303.407 728.521" stroke="#231F20" stroke-linecap="round" stroke-linejoin="round"/>
<path d="M297.809 727.393L300.607 724.638" stroke="#231F20" stroke-linecap="round" stroke-linejoin="round"/>
<path d="M299.21 734.334L293.998 741.716" stroke="#231F20" stroke-linecap="round" stroke-linejoin="round"/>
<path d="M319.242 743.185C315.473 743.742 313.574 748.211 313.574 748.211M305.606 718.569L333.164 704.119M333.164 704.119C333.164 704.119 340.546 713.743 340.331 722.696C340.331 722.696 345.257 722.467 345.257 725.38C345.257 728.293 340.331 729.406 340.331 729.406C340.331 729.406 342.116 737.017 336.305 742.828C330.494 748.64 315.044 741.714 314.816 741.258M333.164 704.119C333.164 704.119 326.695 693.824 315.487 691.583C304.293 689.341 291.313 694.496 287.958 704.119C284.603 713.743 286.616 721.311 286.616 721.311C286.616 721.311 265.355 730.335 265.798 733.333C266.24 736.331 284.117 728.435 291.542 724.909" stroke="#231F20" stroke-linecap="round" stroke-linejoin="round"/>
<path d="M301.836 717.071L330.978 701.265" stroke="#231F20" stroke-linecap="round" stroke-linejoin="round"/>
<path d="M332.264 717.071V719.784" stroke="#231F20" stroke-linecap="round" stroke-linejoin="round"/>
<path d="M330.981 713.972C328.025 714.414 327.568 717.084 327.568 717.084" stroke="#231F20" stroke-linecap="round" stroke-linejoin="round"/>
<path d="M311.004 727.394L315.487 726.009" stroke="#231F20" stroke-linecap="round" stroke-linejoin="round"/>
<path d="M333.166 730.977L334.965 732.09" stroke="#231F20" stroke-linecap="round" stroke-linejoin="round"/>
<path d="M122 1078.1H600.985" stroke="#231F20" stroke-linecap="round" stroke-linejoin="round"/>
<path d="M295.327 778.424C309.62 787.305 334.022 802.755 334.022 802.755L355.054 768.743C355.054 768.743 326.04 752.651 309.249 745.598C303.452 743.156 296.926 743.156 291.087 745.512C285.161 747.911 281.763 754.151 282.962 760.419C284.39 767.887 288.859 774.426 295.327 778.438V778.424Z" fill="#E58A9C"/>
<path d="M345.26 764.261L324.971 796.287" stroke="#231F20" stroke-linecap="round" stroke-linejoin="round"/>
<path d="M339.504 795.487L362.064 805.354C363.62 806.039 365.277 806.367 366.933 806.353L368.432 803.754C372.302 797.015 373.501 789.048 371.788 781.466L371.431 779.895C370.717 779.938 369.988 779.809 369.317 779.495L353.697 772.527L339.504 795.487Z" fill="#FFC7B6"/>
<path d="M353.712 772.541L369.333 779.509C370.004 779.809 370.732 779.938 371.446 779.909M339.505 795.487L362.065 805.353C363.621 806.039 365.277 806.367 366.934 806.353M295.327 778.424C309.62 787.305 334.022 802.755 334.022 802.755L355.054 768.743C355.054 768.743 326.04 752.651 309.249 745.598C303.452 743.156 296.926 743.156 291.087 745.512C285.161 747.911 281.763 754.151 282.962 760.419C284.39 767.887 288.859 774.426 295.327 778.438V778.424Z" stroke="#231F20" stroke-linecap="round" stroke-linejoin="round"/>
<path d="M465.369 763.004L464.498 762.333C463.698 761.89 462.756 761.462 461.756 761.033C461.528 760.148 460.842 758.306 458.772 757.092C455.973 755.45 443.209 753.351 443.209 753.351L443.18 753.38C445.336 750.81 445.407 748.011 445.407 748.011C446.892 747.169 448.534 746.526 450.362 746.126C456.402 744.784 457.301 740.115 457.301 740.115C457.301 740.115 450.276 740.486 445.779 740.315C440.681 740.115 438.282 742.999 434.47 747.026C432.414 749.196 430.158 750.924 425.703 753.066V753.166C425.703 758.206 428.13 762.947 432.243 765.888C434.584 764.903 436.883 764.26 439.182 764.032C450.819 762.918 466.954 768.572 466.954 768.572V766.131C466.954 764.903 466.383 763.732 465.397 762.989L465.369 763.004Z" fill="#FFC7B6"/>
<path d="M425.432 753.066C429.887 750.924 432.143 749.196 434.199 747.026C437.997 742.999 440.396 740.115 445.507 740.315C450.005 740.486 457.03 740.115 457.03 740.115C457.03 740.115 456.13 744.784 450.091 746.126C448.277 746.526 446.621 747.169 445.136 748.011C445.136 748.011 445.022 754.365 437.783 756.721M431.957 765.888C434.299 764.903 436.597 764.26 438.896 764.032C450.533 762.918 466.668 768.572 466.668 768.572V766.131C466.668 764.903 466.097 763.732 465.112 762.989L464.241 762.318C459.443 759.677 450.633 757.221 441.281 755.607" stroke="#231F20" stroke-linecap="round" stroke-linejoin="round"/>
<path d="M443.193 753.066L455.901 755.608C459.414 756.308 462.327 758.721 463.683 762.033M457.029 759.363C462.012 761.234 462.683 764.618 462.612 767.302" stroke="#231F20" stroke-linecap="round" stroke-linejoin="round"/>
<path d="M519.855 745.655L472.737 726.236L473.836 724.466C474.336 723.652 473.479 722.481 471.894 721.824L443.294 710.045C441.709 709.388 440.025 709.516 439.525 710.33L436.783 714.699L434.756 717.941L434.584 718.212C434.513 718.312 434.485 718.426 434.456 718.54C434.399 718.583 434.327 718.626 434.285 718.683L419.506 742.271C418.964 743.142 419.892 744.399 421.591 745.098L499.966 777.382C501.65 778.082 503.464 777.939 504.006 777.068L521.926 748.468C522.468 747.597 521.54 746.34 519.841 745.641L519.855 745.655Z" fill="#C7CFE4"/>
<path d="M471.151 721.524L443.651 710.202C441.881 709.473 439.982 709.616 439.41 710.53L435.869 716.184C435.298 717.098 436.283 718.426 438.054 719.154L465.554 730.477C467.325 731.205 469.224 731.062 469.795 730.149L473.336 724.494C473.907 723.58 472.922 722.253 471.151 721.524Z" fill="#91B1DA"/>
<path d="M519.855 745.656L474.036 726.78C473.108 726.394 472.108 726.465 471.808 726.951L469.31 730.949C469.01 731.42 468.01 731.506 467.082 731.12L436.512 718.527C435.584 718.141 434.584 718.212 434.285 718.698L419.506 742.286C418.964 743.157 419.892 744.413 421.591 745.113L499.966 777.397C501.65 778.096 503.464 777.954 504.006 777.083L521.926 748.483C522.468 747.612 521.54 746.355 519.841 745.656H519.855Z" stroke="#231F20" stroke-linecap="round" stroke-linejoin="round"/>
<path d="M471.151 721.524L443.651 710.202C441.881 709.473 439.982 709.616 439.41 710.53L435.869 716.184C435.298 717.098 436.283 718.426 438.054 719.154L465.554 730.477C467.325 731.205 469.224 731.062 469.795 730.149L473.336 724.494C473.907 723.58 472.922 722.253 471.151 721.524Z" stroke="#231F20" stroke-linecap="round" stroke-linejoin="round"/>
<path d="M425.432 753.066C429.887 750.924 432.143 749.196 434.199 747.026C437.997 742.999 440.396 740.115 445.507 740.315C450.005 740.486 457.03 740.115 457.03 740.115C457.03 740.115 456.13 744.784 450.091 746.126C448.277 746.526 446.621 747.169 445.136 748.011C445.136 748.011 445.022 754.365 437.783 756.721L433.827 757.735C430.229 758.649 426.545 756.607 425.432 753.066Z" fill="#FFC7B6"/>
<path d="M425.432 753.066C429.887 750.924 432.143 749.196 434.199 747.026C437.997 742.999 440.396 740.115 445.507 740.315C450.005 740.486 457.03 740.115 457.03 740.115C457.03 740.115 456.13 744.784 450.091 746.126C448.277 746.526 446.621 747.169 445.136 748.011C445.136 748.011 445.022 754.365 437.783 756.721" stroke="#231F20" stroke-linecap="round" stroke-linejoin="round"/>
<path d="M401.701 743.171C406.156 741.03 408.412 739.302 410.468 737.131C414.266 733.105 416.665 730.221 421.777 730.421C426.274 730.592 433.299 730.221 433.299 730.221C433.299 730.221 432.4 734.89 426.36 736.232C424.547 736.632 422.89 737.274 421.405 738.117C421.405 738.117 421.291 744.471 414.052 746.827L410.097 747.84C406.499 748.754 402.815 746.712 401.701 743.171Z" fill="#FFC7B6"/>
<path d="M401.701 743.171C406.156 741.03 408.412 739.302 410.468 737.131C414.266 733.105 416.665 730.221 421.777 730.421C426.274 730.592 433.299 730.221 433.299 730.221C433.299 730.221 432.4 734.89 426.36 736.232C424.547 736.632 422.89 737.274 421.405 738.117C421.405 738.117 421.291 744.471 414.052 746.827" stroke="#231F20" stroke-linecap="round" stroke-linejoin="round"/>
</g>
</g>
<defs>
<clipPath id="clip0_4728_12304">
<rect width="760" height="496" fill="white" transform="translate(107 584)"/>
</clipPath>
<clipPath id="clip1_4728_12304">
<rect width="759" height="596" fill="white" transform="translate(107 584)"/>
</clipPath>
</defs>
</svg>
